<svg width="93" height="93" viewBox="0 0 93 93" fill="none" xmlns="http://www.w3.org/2000/svg">
<path d="M65.875 7.75H27.125C16.4245 7.75 7.75 16.4245 7.75 27.125V65.875C7.75 76.5755 16.4245 85.25 27.125 85.25H65.875C76.5755 85.25 85.25 76.5755 85.25 65.875V27.125C85.25 16.4245 76.5755 7.75 65.875 7.75Z" stroke="#CFEFFF" stroke-width="4" stroke-linecap="round" stroke-linejoin="round"/>
<path d="M62.0003 44.0585C62.4785 47.2834 61.9277 50.577 60.4261 53.4709C58.9246 56.3647 56.5488 58.7114 53.6366 60.1772C50.7245 61.6429 47.4243 62.1531 44.2055 61.6352C40.9867 61.1172 38.0132 59.5975 35.7078 57.2922C33.4025 54.9869 31.8828 52.0133 31.3648 48.7945C30.8469 45.5757 31.3571 42.2755 32.8228 39.3634C34.2886 36.4513 36.6353 34.0754 39.5291 32.5739C42.423 31.0723 45.7166 30.5215 48.9416 30.9997C52.2312 31.4875 55.2766 33.0204 57.6281 35.3719C59.9797 37.7234 61.5125 40.7689 62.0003 44.0585Z" stroke="#CFEFFF" stroke-width="4" stroke-linecap="round" stroke-linejoin="round"/>
<path d="M67.8125 25.1875H67.8533" stroke="#CFEFFF" stroke-width="4" stroke-linecap="round" stroke-linejoin="round"/>
</svg>
