<svg width="87" height="87" viewBox="0 0 87 87" fill="none" xmlns="http://www.w3.org/2000/svg">
<g clip-path="url(#clip0_1204_101)">
<path d="M85.6567 8.64212C84.594 7.34248 83.0023 6.62695 81.1743 6.62695C80.1807 6.62695 79.128 6.83604 78.046 7.24956L4.40217 35.3617C0.493972 36.8531 -0.0323875 39.0913 0.00146406 40.2927C0.0353156 41.4941 0.687789 43.6991 4.67431 44.9676C4.69821 44.9749 4.7221 44.9822 4.746 44.9888L20.0217 49.3603L28.2828 72.9834C29.4092 76.204 31.9375 78.2045 34.8819 78.2045C36.7384 78.2045 38.5644 77.4266 40.1628 75.9557L49.6113 67.2559L63.3159 78.2908C63.3173 78.2921 63.3192 78.2928 63.3206 78.2941L63.4507 78.399C63.4626 78.4083 63.4752 78.4183 63.4872 78.4276C65.0105 79.609 66.6732 80.233 68.2974 80.2336H68.2981C71.4715 80.2336 73.9984 77.8846 74.7345 74.2499L86.801 14.6684C87.2855 12.2769 86.8793 10.1369 85.6567 8.64212ZM25.132 48.5299L54.6035 33.4739L36.2526 52.9731C35.9519 53.2924 35.7388 53.6833 35.6339 54.1088L32.0955 68.442L25.132 48.5299ZM36.7092 72.2055C36.5871 72.3177 36.4643 72.4179 36.3415 72.5102L39.6244 59.2138L45.5963 64.0227L36.7092 72.2055ZM81.8049 13.6561L69.7384 73.2383C69.6223 73.8085 69.2512 75.1353 68.2974 75.1353C67.8262 75.1353 67.2341 74.8784 66.6281 74.4118L51.0988 61.908C51.0968 61.906 51.0942 61.904 51.0915 61.9027L41.8514 54.4619L68.389 26.2635C69.2386 25.3608 69.3156 23.9782 68.5716 22.9866C67.8268 21.9949 66.4774 21.683 65.3736 22.2471L21.7262 44.5454L6.24277 40.1155L79.8641 12.012C80.486 11.7744 80.9201 11.7246 81.1743 11.7246C81.3303 11.7246 81.6077 11.7432 81.7106 11.87C81.846 12.0352 82.0186 12.5988 81.8049 13.6561Z" fill="#CFEFFF"/>
</g>
<defs>
<clipPath id="clip0_1204_101">
<rect width="87" height="87" fill="white"/>
</clipPath>
</defs>
</svg>
