<svg width="490" height="142" viewBox="0 0 490 142" fill="none" xmlns="http://www.w3.org/2000/svg">
<path d="M23.8362 21.8343C19.8366 22.2883 15.9397 23.0472 12.4599 24.235C6.34402 26.3135 1.68794 29.9237 0.918944 33.991C-0.516842 42.4912 16.2815 45.7885 22.5384 52.2838C28.5864 58.5949 27.2592 66.6704 27.7284 73.666C27.9254 75.3091 28.0134 77.4378 29.0526 78.9661C30.0903 80.6769 31.1393 80.9894 31.3334 82.9973C31.7245 86.6484 30.9585 90.3508 31.2444 94.0011C31.3397 95.2178 31.1029 98.499 35.0052 97.0714C36.7982 96.4171 36.6154 93.0109 36.7294 91.9175C37.6645 80.3126 34.7199 67.3387 40.5941 56.1385C41.768 54.0201 45.0483 51.4931 48.6155 52.4947C50.7141 53.0588 51.3332 54.523 51.7434 55.8031C53.076 60.0698 54.5117 64.5805 54.3711 68.9568C54.3377 73.0908 56.0913 77.3001 56.2681 81.4358C56.2598 82.4693 56.2514 83.5028 56.6642 84.4789C56.7664 84.8445 56.9737 85.211 57.6036 85.3377C58.3392 85.4045 58.8689 84.9223 59.0826 84.4985C61.0009 81.3525 60.397 78.0037 61.3699 74.7285C62.2362 71.6348 63.2076 68.5419 63.7594 65.324C64.3083 62.471 64.9628 59.5579 67.5065 57.0858C70.0498 54.6744 75.1122 52.8306 79.9432 53.5993C88.0299 54.8806 94.9334 59.4355 102.313 57.1241C106.108 55.9996 108.233 53.2201 112.441 53.0109C118.332 52.7546 120.609 57.2721 120.897 60.6791C120.99 62.139 120.662 63.7779 120.965 65.2395C121.266 67.0659 121.99 68.5309 121.45 70.3505C121.021 71.3806 120.487 72.4099 120.373 73.5033C120.142 75.9942 122.226 78.3822 122.311 80.8756C122.397 83.2474 123.85 85.5695 123.936 87.9414C124.027 89.7053 122.751 91.4581 122.842 93.222C122.931 95.1682 124.6 96.9449 124.795 98.8312C124.992 100.474 124.032 102.108 124.124 103.75C124.317 105.88 126.299 107.902 126.912 110.035C127.319 111.802 126.777 113.743 127.604 115.513C127.915 116.123 128.75 116.799 129.803 116.686C131.381 116.577 130.392 108.908 130.61 107.876C131.265 104.903 133.919 101.884 133.627 98.9027C133.535 97.2604 132.287 95.6087 132.616 93.9698C132.947 92.0269 135.379 90.3443 135.71 88.4014C136.15 86.0338 133.539 83.7632 133.664 81.393C133.785 79.3877 135.692 77.6399 136.233 75.6988C137.21 71.9372 133.559 68.3205 134.326 64.4964C134.982 61.4618 135.958 57.7002 141.855 56.7143C146.91 55.7825 152.045 57.9519 157.191 58.8447C162.756 59.8625 169.069 59.3664 173.921 57.5817C177.612 56.2132 180.995 54.0518 185.306 54.1475C188.88 54.2372 191.917 55.8425 193.374 57.739C195.038 59.9412 194.496 61.9432 194.688 64.1943C194.879 66.6278 196.648 68.9524 196.417 71.4433C196.304 72.4151 195.981 73.4461 196.078 74.4196C196.063 76.3043 197.205 78.0767 197.61 79.9647C198.321 83.0712 196.718 86.2805 198.166 89.3321C198.268 89.6978 198.579 90.1867 199.314 90.3142C200.679 90.6292 201.634 89.5426 201.746 88.6923C202.94 84.1421 203.505 79.222 205.749 74.8019C207.886 70.6849 207.19 65.6938 207.225 61.3774C208.206 57.0686 212.661 52.3624 220.13 51.9364C225.286 51.6133 228.845 53.5269 231.348 56.1614C233.538 58.3679 233.836 60.6198 234.342 63.0559C234.95 65.7967 233.873 68.9495 235.429 71.5764C238.645 77.0135 244.767 74.2055 246.272 70.2049C246.773 68.8714 247.274 67.5582 247.776 66.2652C248.312 64.932 248.849 63.538 250.435 62.5172C254.452 59.8746 259.272 62.0415 260.829 64.6076C264.458 70.96 260.935 77.437 263.722 83.8433C264.031 84.697 264.445 85.5515 264.438 86.4027C264.325 87.3745 263.581 88.3413 263.258 89.3114C262.182 92.2818 264.471 95.2795 264.762 98.3218C264.957 100.269 263.682 101.9 263.561 103.784C263.435 106.336 265.519 108.785 265.708 111.34C265.795 113.651 264.936 115.833 265.548 118.148C266.16 120.464 266.983 122.781 267.49 125.095C267.998 127.288 268.506 129.42 268.804 131.611C268.997 133.741 269.086 135.809 269.069 137.936C269.065 138.423 269.165 138.971 269.582 139.46C270.104 139.89 271.154 140.142 271.892 139.905C272.419 139.727 272.632 139.364 272.74 139.06C273.703 136.94 273.617 134.69 273.423 132.56C273.041 127.815 273.814 123.262 273.536 118.639C273.163 112.799 276.889 107.114 275.359 101.265C275.054 99.925 274.434 98.5824 274.655 97.2466C274.988 95.1214 277.317 93.2554 277.755 91.0702C278.191 89.189 277.05 87.2342 277.066 85.2888C277.077 83.8298 277.825 82.4374 278.362 81.0434C279.866 77.0429 279.9 72.9089 279.512 68.8323C279.222 65.6684 278.723 62.442 282.005 59.6111C284.335 57.6236 289.286 56.5085 292.852 57.7533C300.296 60.4278 310.285 60.5694 316.413 56.971C320.745 54.3918 322.04 50.3287 326.999 48.3017C332.063 46.2147 339.523 46.9438 344.131 49.3523C348.844 51.7007 351.128 55.3671 351.835 58.8991C352.542 62.4919 351.882 66.0737 351.748 69.6597C351.635 70.5708 351.732 71.6051 352.462 72.4014C353.088 73.0145 354.135 73.5093 354.761 74.1224C357.265 76.5745 353.131 80.7362 357.431 82.1085C360.387 80.6733 360.828 78.1233 360.952 75.814C361.359 68.8052 361.766 61.7964 362.174 54.7876C362.3 52.1135 365.212 43.1997 373.38 47.3393C374.847 48.0807 375.257 49.3 376.618 50.0406C378.294 50.8445 380.713 50.8033 382.815 51.0027C387.964 51.4091 391.418 53.5042 392.762 56.3118C396.177 63.0881 396.754 69.8413 397.643 76.8403C397.844 78.0579 397.939 79.3355 398.665 80.4965C399.081 81.1079 399.602 81.7201 399.912 82.3306C400.326 83.2459 400.213 84.1569 400.101 85.0072C399.539 89.4409 399.713 93.9414 400.519 98.3254C400.618 99.0558 401.136 100.033 402.399 99.9214C403.451 99.8691 403.877 99.143 403.988 98.5359C404.643 95.5418 404.982 92.5451 405.007 89.546C405.02 87.8437 404.93 86.0798 406.203 84.631C406.629 84.0264 407.263 83.5452 407.689 82.9406C408.115 82.2145 408.122 81.3634 408.129 80.5731C407.967 74.5527 408.542 68.4775 408.17 62.5163C407.982 59.6572 407.484 56.2485 410.029 53.7155C411.089 52.6297 412.571 51.365 414.155 50.5874C415.95 49.6292 418.687 49.3473 420.273 48.205C421.649 47.1825 421.555 45.7226 422.511 44.5752C423.36 43.5485 425.154 42.8334 427.153 42.6672C436.729 41.8934 436.57 48.4584 436.647 52.0461C436.69 55.3296 436.979 58.5947 437.514 61.8416C437.511 62.1456 437.613 62.572 438.138 62.6979C438.977 62.8871 439.718 62.3458 439.932 61.8612C440.786 60.3481 440.904 58.7075 441.022 57.1277C441.323 54.5361 441.73 51.9656 442.241 49.4162C442.787 46.9279 441.67 41.9942 449.023 42.9656C450.389 43.0983 451.541 43.7764 452.376 44.4519C456.968 48.8665 458.609 53.9261 459.305 58.9172C459.998 64.273 458.587 69.6119 459.912 74.9121C460.218 76.0089 460.525 77.1058 460.306 78.1984C460.086 79.3517 459.341 80.4401 459.332 81.5952C459.32 82.9935 460.571 84.3411 460.98 85.8036C461.594 87.9365 460.104 90.174 460.822 92.3078C461.132 92.979 461.862 93.7753 463.02 93.6631C464.072 93.6108 464.499 92.7631 464.609 92.156C465.416 87.7445 465.943 83.3307 466.189 78.9147C466.344 77.011 466.429 75.1269 466.445 73.2625C466.524 72.0877 466.569 70.9127 466.578 69.7373C466.837 63.7204 467.41 57.9492 468.089 51.9964C468.765 46.4084 470.178 40.7048 476.104 36.1321C479.066 33.9673 483.073 32.5405 486.14 30.4374C491.321 26.8922 488.532 20.6682 482.349 18.0647C473.86 14.4697 461.538 16.802 451.99 14.232C449.261 13.5412 446.852 12.4273 444.337 11.3734C430.081 5.72544 411.271 4.05334 394.844 6.89959C387.052 8.23493 378.41 10.5362 371.172 8.41048C342.638 -0.0888876 306.557 1.38244 277.682 9.11347C272.097 10.5883 266.509 12.367 260.305 12.3168C254.206 12.2675 248.648 10.4594 242.98 9.07598C235.843 7.3767 227.865 5.67062 220.298 5.18382C211.154 4.62348 201.793 4.85176 192.846 5.93456C180.847 7.35746 168.846 8.96276 157.261 11.1794C152.205 12.1721 147.15 13.104 141.785 13.3646C116.856 14.2573 80.7729 3.02174 58.7111 13.4222C51.0056 17.0078 48.3572 19.4183 38.0437 20.4292C33.4127 20.939 28.4682 21.203 23.8362 21.8343Z" fill="#A6E2FF"/>
<path d="M9.94696 35.8275C14.4517 37.9311 21.0707 38.6534 23.9913 41.5953C26.3901 44.0467 25.9375 47.9949 30.5577 48.8226C37.2779 50.0321 41.3341 42.5868 48.1619 43.4932C50.7877 43.8792 52.4583 45.3519 54.6591 46.2816C60.5283 48.7002 68.8538 46.4573 74.1344 43.6424C79.4155 40.7668 84.4922 37.16 91.6472 36.6099C98.5915 36.1189 104.985 38.7241 110.539 41.1402C114.52 42.9355 118.711 44.7934 120.898 47.4862C121.939 48.8322 122.347 50.2946 123.704 51.5824C124.955 52.8692 127.576 53.924 129.998 53.518C133.262 52.9972 134.018 50.5714 136.656 49.3768C142.461 46.7486 150.096 51.9174 157.458 51.7338C162.296 51.5905 165.892 49.1269 167.805 46.5888C169.718 44.0508 170.582 41.261 173.125 38.9104C175.563 36.4982 180.52 34.6536 185.035 35.5413C193.224 37.1883 193.05 45.6986 201.563 46.2539C207.869 46.6089 211.377 42.0166 217.276 40.7267C223.281 39.3769 230.201 41.8648 232.383 45.1048C234.047 47.4286 235.079 49.8689 235.373 52.4248C235.675 54.1296 235.66 55.9534 237.226 57.3644C237.749 57.7942 238.376 58.2249 239.216 58.4141C241.106 58.7334 242.902 57.7143 243.436 56.6851C243.971 55.595 243.769 54.499 244.093 53.4073C245.819 48.1318 259.483 48.9111 264.876 45.1852C266.885 43.8031 268.161 42.0503 270.484 40.8531C277.772 36.8993 287.402 42.3275 292.533 45.1049C296.406 47.2034 301.017 49.1862 306.277 48.9856C315.323 48.6332 318.216 41.9687 326.524 41.8535C331.783 41.7745 337.137 42.8514 341.223 44.7692C343.423 45.8205 345.62 47.1759 348.459 47.1988C351.087 47.2809 353.41 46.1445 354.682 44.8172C355.85 43.4891 356.283 41.9726 356.926 40.5187C358.105 37.6707 360.126 34.8295 363.718 32.8522C369.632 29.617 378.992 29.5103 384.007 33.5027C387.351 36.1441 388.06 39.5545 390.982 42.3141C393.904 45.0736 400.934 46.9545 404.843 44.7365C413.506 39.6996 423.34 32.9697 435.316 34.4649C440.569 35.1154 446.445 36.6221 450.666 34.8323C454.148 33.3405 454.805 30.1843 458.704 29.1822C461.444 28.414 464.699 29.0483 467.747 29.1338C476.789 29.3285 483.246 24.1521 483.815 18.8064C483.326 18.5593 482.837 18.3121 482.349 18.065C473.86 14.47 461.538 16.8023 451.989 14.2323C449.261 13.5415 446.851 12.4276 444.336 11.3737C430.08 5.72574 411.271 4.05364 394.843 6.89989C387.051 8.23522 378.41 10.5365 371.171 8.41078C342.637 -0.0885889 306.557 1.38273 277.681 9.11377C272.096 10.5886 266.508 12.3673 260.304 12.3171C254.206 12.2678 248.647 10.4597 242.98 9.07628C235.843 7.377 227.865 5.67092 220.298 5.18412C211.153 4.62378 201.793 4.85205 192.846 5.93486C180.846 7.35776 168.845 8.96305 157.26 11.1797C152.205 12.1724 147.15 13.1043 141.785 13.3648C116.855 14.2576 80.7723 3.02204 58.7105 13.4225C51.0051 17.0081 48.3566 19.4186 38.0431 20.4295C33.4121 20.9393 28.4676 21.2033 23.8356 21.8346C19.836 22.2886 15.9391 23.0475 12.4593 24.2353C9.40112 25.3049 6.76108 26.682 4.74947 28.368C4.4114 31.162 6.07019 34.0938 9.94696 35.8275Z" fill="#CFEFFF"/>
<path d="M23.1401 29.733C24.1788 31.3222 26.271 32.6766 28.5755 33.7897C33.4983 36.2006 39.4776 38.0121 45.7856 38.1847C56.5099 38.3931 65.0634 33.9632 73.7092 31.1148C83.4096 27.9101 93.6111 27.7495 102.725 32.0183C106.81 33.9969 110.049 36.5766 114.24 38.4952C118.431 40.4139 124.521 41.4967 129.055 40.0134C131.797 39.0628 133.492 37.435 136.025 36.3003C144.68 32.2968 155.056 36.5758 164.536 34.5853C170.014 33.4745 174.555 31.0793 179.615 29.4787C190.58 25.9802 204.775 26.0343 215.787 29.7104C226.904 33.3874 234.319 39.6489 247.145 40.0566C259.34 40.4592 270.207 35.9872 279.288 31.3792C288.474 26.7112 297.77 21.5578 309.665 20.0732C318.612 18.9904 328.066 20.1613 336.78 21.9341C344.129 23.4527 349.46 27.3869 357.14 26.9626C364.714 26.5983 370.212 22.8733 376.854 20.7991C390.664 16.4725 407.78 19.59 422.899 22.509C437.912 25.488 455.663 28.0027 468.64 22.7574C471.383 21.6244 473.926 19.2739 471.519 17.7952C470.577 17.3012 469.211 17.1078 467.952 16.7936C466.692 16.4997 465.503 16.1253 464.386 15.6704C460.075 15.5139 455.871 15.2975 451.989 14.2326C449.26 13.5417 446.851 12.4278 444.335 11.3739C430.08 5.72598 411.27 4.05388 394.843 6.90013C387.05 8.23547 378.409 10.5367 371.17 8.41102C342.637 -0.0883478 306.556 1.38298 277.681 9.11401C272.095 10.5888 266.508 12.3675 260.304 12.3174C254.205 12.268 248.646 10.4599 242.979 9.07652C235.842 7.37724 227.864 5.67116 220.297 5.18436C211.153 4.62402 201.792 4.8523 192.845 5.9351C180.846 7.358 168.845 8.96329 157.26 11.1799C152.204 12.1726 147.149 13.1045 141.784 13.3651C116.855 14.2578 80.7716 3.02228 58.7098 13.4227C51.0044 17.0083 48.356 19.4188 38.0424 20.4298C30.991 21.1631 23.9494 20.6806 22.3294 25.9569C22.0032 27.2919 22.3083 28.5711 23.1401 29.733Z" fill="#E7F7FF"/>
<path d="M251.424 57.3583C250.999 57.902 250.993 58.6315 251.831 59.0031C252.354 59.3113 253.194 59.4397 253.93 59.5065C256.556 59.8317 259.077 60.1561 260.96 61.3873C262.215 62.2486 262.837 63.4088 263.353 64.5681C263.561 64.9346 263.977 65.4852 264.714 65.3695C265.24 65.313 265.453 65.0107 265.56 64.7076C266.847 61.6173 263.936 57.5203 258.369 56.6849C257.214 56.4931 256.059 56.3014 254.797 56.2912C253.64 56.3426 252.376 56.5756 251.636 57.1168C251.565 57.1973 251.494 57.2778 251.424 57.3583Z" fill="#CFEFFF"/>
<path d="M382.407 49.54C384.822 49.9243 387.451 49.9456 389.758 50.6938C391.751 51.3179 393.635 52.4883 394.571 53.7119C396.754 56.891 397.041 60.3589 397.855 63.7094C397.957 64.075 398.269 64.5031 398.796 64.3858C399.217 64.3284 399.324 64.086 399.326 63.8429C399.661 61.5352 399.157 58.7952 398.65 56.4808C397.731 53.1294 395.542 50.7406 390.402 49.0575C388.2 48.3101 385.466 48.288 383.477 47.2383C382.43 46.6219 381.701 45.8256 380.548 45.2691C378.349 44.2177 375.082 45.0425 376.33 46.8157C377.265 48.1608 380.096 49.1565 382.407 49.54Z" fill="#CFEFFF"/>
<path d="M28.8731 62.0019C29.2677 65.2274 29.0308 68.5086 29.53 71.7958C30.3702 71.9242 30.7957 71.3196 30.9048 70.8341C31.2493 67.2498 30.753 63.5979 30.1512 60.0059C29.7556 56.902 28.8344 53.7939 25.5959 51.1533C25.2824 50.9076 24.6539 50.5985 24.2314 50.8383C24.1257 50.8982 24.1243 51.0806 24.1233 51.2022C24.1189 51.7494 24.5355 52.2391 25.0573 52.7297C27.4532 55.5458 28.5828 58.8989 28.8731 62.0019Z" fill="#CFEFFF"/>
</svg>
