<svg viewBox="0 0 37 37" fill="currentColor" xmlns="http://www.w3.org/2000/svg">
  <g>
    <path
      d="M22.8831 21.2601C23.8767 20.0304 23.8025 18.2184 22.6601 17.0757C21.4381 15.8537 19.4499 15.8534 18.2279 17.0752L17.1803 18.1227C16.7958 18.5075 16.1697 18.5072 15.7847 18.1224C15.5981 17.9359 15.4956 17.688 15.4953 17.4244C15.4953 17.161 15.5981 16.9131 15.7841 16.7268L17.5566 14.9543C17.9761 14.5351 17.9761 13.8554 17.5566 13.4362C17.1374 13.0167 16.4577 13.0167 16.0385 13.4362L15.549 13.9257L15.0818 13.4585C14.6626 13.0393 13.9828 13.0393 13.5634 13.4585C13.1442 13.878 13.1442 14.5574 13.5634 14.9769L14.0432 15.4565C13.593 16.0123 13.3483 16.6997 13.3483 17.4249C13.3483 18.2619 13.6746 19.0489 14.2665 19.6409C14.8774 20.252 15.6802 20.5575 16.4828 20.5575C17.2853 20.5575 18.0879 20.252 18.6985 19.6414L19.746 18.5939C20.1308 18.2091 20.7569 18.2094 21.1419 18.5942C21.5267 18.9792 21.527 19.6053 21.1422 19.9898L19.0866 22.0454C18.6671 22.4646 18.6671 23.1443 19.0866 23.5635C19.2961 23.7733 19.5707 23.8783 19.8457 23.878C20.1203 23.878 20.3953 23.7733 20.6047 23.5635L21.3776 22.7909L21.8448 23.2578C22.0546 23.4676 22.3292 23.5723 22.6039 23.5723C22.8788 23.5723 23.1535 23.4676 23.3633 23.2578C23.7825 22.8386 23.7825 22.1589 23.3633 21.7397L22.8831 21.2601Z"
      fill="#FF1F70" />
    <path
      d="M25.4911 6.82125C24.8828 7.42958 24.5477 8.23833 24.5477 9.09846C24.5477 9.95887 24.8828 10.7676 25.4911 11.376C26.1189 12.0038 26.9438 12.3177 27.7686 12.3177C28.5935 12.3177 29.418 12.0038 30.0458 11.376C31.3017 10.1201 31.3017 8.07686 30.0458 6.82096C28.7902 5.56535 26.7467 5.56563 25.4911 6.82125ZM28.5277 9.85781C28.1091 10.2764 27.4279 10.2762 27.0093 9.85781C26.5909 9.43918 26.5909 8.75802 27.0093 8.33939C27.4279 7.92104 28.1091 7.92104 28.5277 8.33939C28.9463 8.75802 28.9463 9.43918 28.5277 9.85781Z"
      fill="#FF1F70" />
    <path
      d="M36.3437 1.48725C36.3267 0.919567 35.8708 0.463391 35.3034 0.446171L20.6668 0.00043908C20.3682 -0.00802955 20.0808 0.106297 19.8713 0.318013L1.80494 18.5704C-0.40904 20.8073 -0.40904 24.4468 1.80494 26.6834L10.3478 35.314C11.4236 36.4011 12.8551 36.9999 14.3783 36.9999C15.9013 36.9999 17.3327 36.4011 18.4088 35.314L36.4749 17.0616C36.6819 16.8527 36.7939 16.5682 36.7849 16.2743L36.3437 1.48725ZM16.8828 33.8035C16.2132 34.4802 15.3237 34.8528 14.3783 34.8528C13.4326 34.8528 12.5432 34.4802 11.8736 33.8035L3.33099 25.1729C1.94129 23.7691 1.94129 21.4848 3.33099 20.081L21.0685 2.16079L34.2276 2.56163L34.6251 15.8785L16.8828 33.8035Z"
      fill="currentColor" />
  </g>
</svg>
