<svg width="459" height="506" viewBox="0 0 459 506" fill="none" xmlns="http://www.w3.org/2000/svg">
<path d="M393.334 431.534C399.029 411.804 395.453 390.617 402.605 371.285C408.829 354.335 414.524 343.212 414.127 323.747C413.862 306.268 410.816 288.656 403.134 272.766C399.294 264.821 394.526 257.406 388.831 250.653C384.593 245.753 369.229 236.616 367.508 231.584C372.011 245.621 378.633 284.551 357.177 290.378C338.238 295.542 334.795 265.88 337.443 252.771C342.741 226.155 365.521 207.749 371.084 182.325C380.222 140.217 356.647 100.624 364.064 61.8257C334.662 71.4921 326.318 86.985 316.12 113.204C310.293 85.3959 300.095 61.1636 277.182 43.0225C264.865 33.356 242.35 14.8176 225.398 18.3929C228.444 25.5434 239.039 31.1049 243.278 38.6527C247.781 46.4653 248.84 54.0131 250.297 63.2823C254.005 85.2635 257.051 108.039 255.065 130.418C253.74 144.454 249.767 173.586 233.742 179.015C218.511 184.179 219.968 173.586 214.67 162.728C190.168 190.403 207.253 228.936 208.578 259.922C209.372 281.241 197.718 277.666 186.328 265.748C175.6 254.757 164.21 235.689 146.595 236.219C165.269 270.912 166.859 310.638 149.774 346.655C139.443 368.371 133.881 427.165 145.668 461.99H375.586C383.401 454.575 389.493 444.644 393.334 431.534Z" fill="url(#paint0_linear_883_727)"/>
<path d="M91.8114 364.507C88.3984 355.233 89.3559 344.934 85.262 335.901C81.6945 327.981 78.5854 322.839 78.0876 313.478C77.5967 305.076 78.4278 296.512 81.5306 288.613C83.082 284.663 85.0944 280.935 87.5723 277.492C89.4207 274.991 96.4259 270.065 97.0695 267.588C95.4173 274.486 93.6334 293.412 104.073 295.458C113.289 297.273 113.884 282.909 112.157 276.707C108.691 264.113 97.1754 256.073 93.6245 244.06C87.7788 224.161 97.6252 204.322 92.7177 185.952C107.083 189.562 111.61 196.709 117.4 208.941C119.197 195.384 123.206 183.39 133.494 173.876C139.028 168.802 149.112 159.11 157.324 160.233C156.124 163.773 151.266 166.815 149.511 170.588C147.639 174.498 147.401 178.159 147.033 182.661C146.04 193.346 145.392 204.39 147.129 215.066C148.257 221.759 151.181 235.609 159.016 237.653C166.463 239.599 165.394 234.563 167.537 229.164C180.201 241.593 173.413 260.696 173.875 275.621C174.249 285.886 179.682 283.761 184.694 277.638C189.423 271.985 194.182 262.429 202.602 262.065C194.92 279.38 195.565 298.511 204.986 315.207C210.68 325.272 215.409 353.309 211.017 370.445L101.352 378.509C97.3628 375.222 94.1063 370.667 91.8114 364.507Z" fill="url(#paint1_linear_883_727)"/>
<path opacity="0.4" d="M178.594 461.99C162.852 447.194 167.217 391.708 171.185 380.875C176.477 367.003 184.546 355.113 187.854 340.185C190.367 328.823 189.309 317.33 189.97 305.704C194.997 307.686 199.759 311.781 203.199 316.009C207.961 321.557 209.284 332.654 216.427 335.693C231.905 342.034 234.286 318.122 234.683 308.214C235.476 291.568 233.492 275.319 231.905 258.805C230.053 238.064 235.741 224.985 244.34 206.621C243.943 230.137 260.478 236.082 275.162 215.341C294.873 187.598 290.904 153.381 285.216 122.599C297.783 136.339 311.937 149.418 319.875 166.856C327.15 183.106 320.139 196.053 322.388 212.302C330.987 210.188 331.913 198.959 343.554 201.337C341.834 209.924 339.585 219.965 334.558 228.023C325.298 242.555 320.404 254.577 319.081 272.809C316.832 302.533 343.554 351.018 375.567 324.464C383.504 348.243 379.668 369.777 368.291 390.783C358.502 409.014 346.729 427.906 351.888 461.99H178.594Z" fill="#FF1F70"/>
<path opacity="0.4" d="M195.435 371.59C202.432 363.952 198.393 337.534 196.117 332.485C193.101 326.028 188.828 320.618 186.723 313.585C185.123 308.233 185.224 302.691 184.498 297.147C182.167 298.273 180.037 300.401 178.543 302.546C176.464 305.371 176.223 310.732 172.919 312.438C165.75 316.018 163.771 304.65 163.233 299.919C162.267 291.976 162.643 284.125 162.819 276.161C162.974 266.163 159.796 260.099 155.043 251.608C156.061 262.855 148.373 266.283 140.63 256.866C130.239 244.272 130.93 227.747 132.563 212.806C127.044 219.827 120.745 226.588 117.568 235.217C114.666 243.255 118.47 249.208 117.968 257.069C113.787 256.359 112.95 251.014 107.474 252.561C108.598 256.613 110.025 261.342 112.71 265.025C117.644 271.659 120.405 277.244 121.679 285.928C123.799 300.084 112.745 324.241 96.5209 312.649C93.5676 324.315 96.1581 334.493 102.331 344.152C107.648 352.539 113.936 361.173 112.673 377.676L195.435 371.59Z" fill="#FF1F70"/>
<path d="M195.541 139.183C197.51 155.562 190.321 193.078 175.254 176.98C166.784 168.021 165.307 144.363 160.974 131.484C157.232 120.145 152.603 108.386 152.505 95.5072C152.308 85.4282 161.466 70.3095 160.974 64.29C163.928 98.167 191.798 107.406 195.541 139.183Z" fill="url(#paint2_linear_883_727)"/>
<path d="M393.358 207.574C392.475 214.714 395.698 231.067 402.452 224.05C406.249 220.144 406.911 209.832 408.853 204.218C410.531 199.275 412.606 194.15 412.65 188.536C412.738 184.143 408.633 177.552 408.853 174.928C407.529 189.695 395.036 193.723 393.358 207.574Z" fill="url(#paint3_linear_883_727)"/>
<path d="M66.6319 265.834C68.5929 272.755 67.9011 289.409 60.1559 283.503C55.8083 280.223 53.5816 270.132 50.806 264.88C48.3945 260.251 45.5624 255.501 44.6629 249.96C43.9058 245.631 46.9587 238.492 46.3405 235.932C49.9008 250.325 62.8621 252.4 66.6319 265.834Z" fill="url(#paint4_linear_883_727)"/>
<path opacity="0.4" d="M187.501 143.396C189.151 151.362 188.635 162.635 184.716 168.948C180.075 176.463 178.219 168.196 177.188 161.883C176.26 156.022 175.435 151.813 173.166 146.553C168.937 136.182 163.265 124.458 167.391 112.134C171.928 124.759 184.51 128.667 187.501 143.396Z" fill="#FF1F70"/>
<path opacity="0.4" d="M396.617 209.928C395.847 213.513 396.088 218.586 397.917 221.426C400.083 224.808 400.949 221.088 401.43 218.248C401.863 215.61 402.248 213.716 403.307 211.349C405.28 206.682 407.927 201.406 406.002 195.86C403.885 201.542 398.013 203.3 396.617 209.928Z" fill="#FF1F70"/>
<path opacity="0.4" d="M63.7696 268.658C65.0771 272.083 65.6127 277.133 64.2383 280.22C62.6135 283.892 61.1902 280.348 60.2815 277.614C59.4513 275.073 58.782 273.26 57.3747 271.082C54.7131 266.77 51.2928 261.96 52.3498 256.185C55.3088 261.477 61.3797 262.32 63.7696 268.658Z" fill="#FF1F70"/>
<g filter="url(#filter0_d_883_727)">
<path d="M401.392 444.202C390.969 435.444 361.539 429.21 326.821 429.21C292.104 429.21 262.674 435.444 252.251 444.202H248.189V458.229C248.189 470.326 283.443 480.197 326.821 480.197C370.276 480.197 405.454 470.326 405.454 458.229V444.202H401.392Z" fill="#FF4F8E"/>
</g>
<path opacity="0.3" d="M259.761 469.658C264.053 471.662 269.495 473.443 275.779 474.927V434.479C269.495 435.963 264.053 437.745 259.761 439.748V469.658Z" fill="white"/>
<path opacity="0.3" d="M376.714 475.224C382.922 473.814 388.286 472.107 392.732 470.252V439.155C388.286 437.299 382.922 435.592 376.714 434.182V475.224Z" fill="white"/>
<path opacity="0.3" d="M284.363 476.709C287.173 477.253 290.137 477.723 293.253 478.119V431.288C290.137 431.683 287.173 432.153 284.363 432.698V476.709Z" fill="white"/>
<path opacity="0.3" d="M364.375 477.525C367.44 477.08 370.404 476.56 373.265 475.967V433.44C370.404 432.846 367.44 432.327 364.375 431.882V477.525Z" fill="white"/>
<path opacity="0.3" d="M297.698 478.638C299.435 478.836 301.198 479.009 302.986 479.158V431.288H297.698V478.638Z" fill="white"/>
<path d="M405.454 444.202C405.454 456.373 370.276 466.244 326.821 466.244C283.443 466.244 248.189 456.373 248.189 444.202C248.189 432.03 283.443 422.159 326.821 422.159C370.276 422.159 405.454 432.03 405.454 444.202Z" fill="#FF1F70"/>
<g filter="url(#filter1_d_883_727)">
<path d="M401.392 415.183C390.969 406.5 361.539 400.191 326.821 400.191C292.104 400.191 262.674 406.5 252.251 415.183H248.189V429.21C248.189 441.382 283.443 451.179 326.821 451.179C370.276 451.179 405.454 441.382 405.454 429.21V415.183H401.392Z" fill="#FF4F8E"/>
</g>
<path opacity="0.3" d="M259.761 440.64C264.053 442.644 269.495 444.425 275.779 445.909V405.461C269.495 406.945 264.053 408.726 259.761 410.73V440.64Z" fill="white"/>
<path opacity="0.3" d="M376.714 446.206C382.922 444.796 388.287 443.089 392.732 441.234V410.137C388.287 408.281 382.922 406.574 376.714 405.164V446.206Z" fill="white"/>
<path opacity="0.3" d="M284.363 447.69C287.173 448.235 290.137 448.705 293.253 449.101V402.27C290.137 402.665 287.173 403.135 284.363 403.68V447.69Z" fill="white"/>
<path opacity="0.3" d="M364.375 448.507C367.441 448.061 370.404 447.542 373.265 446.948V404.422C370.404 403.828 367.441 403.308 364.375 402.863V448.507Z" fill="white"/>
<path opacity="0.3" d="M297.698 449.62C299.435 449.818 301.198 449.991 302.986 450.14V402.27H297.698V449.62Z" fill="white"/>
<path d="M405.454 415.183C405.454 427.355 370.276 437.226 326.821 437.226C283.443 437.226 248.189 427.355 248.189 415.183C248.189 403.011 283.443 393.215 326.821 393.215C370.276 393.215 405.454 403.011 405.454 415.183Z" fill="#FF1F70"/>
<g filter="url(#filter2_d_883_727)">
<path d="M401.392 388.883C390.969 380.125 361.539 373.891 326.821 373.891C292.104 373.891 262.674 380.125 252.251 388.883H248.189V402.91C248.189 415.007 283.443 424.878 326.821 424.878C370.276 424.878 405.454 415.007 405.454 402.91V388.883H401.392Z" fill="#FF4F8E"/>
</g>
<path opacity="0.3" d="M259.761 414.339C264.053 416.343 269.495 418.124 275.779 419.608V379.16C269.495 380.644 264.053 382.425 259.761 384.429V414.339Z" fill="white"/>
<path opacity="0.3" d="M376.714 419.905C382.922 418.495 388.286 416.788 392.732 414.933V383.836C388.286 381.98 382.922 380.273 376.714 378.863V419.905Z" fill="white"/>
<path opacity="0.3" d="M284.363 421.389C287.173 421.934 290.137 422.404 293.253 422.8V375.969C290.137 376.364 287.173 376.834 284.363 377.379V421.389Z" fill="white"/>
<path opacity="0.3" d="M364.375 422.206C367.44 421.761 370.404 421.241 373.265 420.648V378.121C370.404 377.527 367.44 377.008 364.375 376.562V422.206Z" fill="white"/>
<path opacity="0.3" d="M297.698 423.319C299.435 423.517 301.198 423.69 302.986 423.839V375.969H297.698V423.319Z" fill="white"/>
<path d="M405.454 388.883C405.454 401.054 370.276 410.925 326.821 410.925C283.443 410.925 248.189 401.054 248.189 388.883C248.189 376.711 283.443 366.84 326.821 366.84C370.276 366.84 405.454 376.711 405.454 388.883Z" fill="#FF1F70"/>
<g filter="url(#filter3_d_883_727)">
<path d="M401.392 359.864C390.969 351.181 361.539 344.872 326.821 344.872C292.104 344.872 262.674 351.181 252.251 359.864H248.189V373.891C248.189 386.063 283.443 395.859 326.821 395.859C370.276 395.859 405.454 386.063 405.454 373.891V359.864H401.392Z" fill="#FF4F8E"/>
</g>
<path opacity="0.3" d="M259.761 385.321C264.053 387.324 269.495 389.106 275.779 390.59V350.142C269.495 351.626 264.053 353.407 259.761 355.411V385.321Z" fill="white"/>
<path opacity="0.3" d="M376.714 390.887C382.922 389.477 388.287 387.77 392.732 385.914V354.817C388.287 352.962 382.922 351.255 376.714 349.845V390.887Z" fill="white"/>
<path opacity="0.3" d="M284.363 392.371C287.173 392.915 290.137 393.385 293.253 393.781V346.95C290.137 347.346 287.173 347.816 284.363 348.36V392.371Z" fill="white"/>
<path opacity="0.3" d="M364.375 393.187C367.441 392.742 370.404 392.222 373.265 391.629V349.102C370.404 348.509 367.441 347.989 364.375 347.544V393.187Z" fill="white"/>
<path opacity="0.3" d="M297.698 394.301C299.435 394.499 301.198 394.672 302.986 394.82V346.95H297.698V394.301Z" fill="white"/>
<path d="M405.454 359.864C405.454 372.035 370.276 381.906 326.821 381.906C283.443 381.906 248.189 372.035 248.189 359.864C248.189 347.692 283.443 337.896 326.821 337.896C370.276 337.896 405.454 347.692 405.454 359.864Z" fill="#FF1F70"/>
<g filter="url(#filter4_d_883_727)">
<path d="M265.336 450.869C254.913 442.111 225.484 435.802 190.766 435.802C156.048 435.802 126.618 442.111 116.195 450.869H112.134V464.821C112.134 476.993 147.388 486.864 190.766 486.864C234.221 486.864 269.398 476.993 269.398 464.821V450.869H265.336Z" fill="#FF4F8E"/>
</g>
<path opacity="0.3" d="M123.706 476.325C127.998 478.329 133.439 480.11 139.724 481.594V441.146C133.439 442.63 127.998 444.412 123.706 446.415V476.325Z" fill="white"/>
<path opacity="0.3" d="M240.658 481.891C246.866 480.481 252.231 478.774 256.676 476.844V445.822C252.231 443.966 246.866 442.259 240.658 440.849V481.891Z" fill="white"/>
<path opacity="0.3" d="M148.308 483.376C151.118 483.871 154.081 484.341 157.198 484.786V437.955C154.081 438.351 151.118 438.821 148.308 439.365V483.376Z" fill="white"/>
<path opacity="0.3" d="M228.319 484.192C231.385 483.747 234.348 483.227 237.21 482.633V440.107C234.348 439.513 231.385 438.969 228.319 438.474V484.192Z" fill="white"/>
<path opacity="0.3" d="M161.643 485.306C163.38 485.504 165.143 485.677 166.931 485.825V437.955H161.643V485.306Z" fill="white"/>
<path d="M269.398 450.868C269.398 463.04 234.221 472.911 190.766 472.911C147.388 472.911 112.134 463.04 112.134 450.868C112.134 438.697 147.388 428.826 190.766 428.826C234.221 428.826 269.398 438.697 269.398 450.868Z" fill="#FF1F70"/>
<g filter="url(#filter5_d_883_727)">
<path d="M265.336 421.85C254.913 413.092 225.484 406.858 190.766 406.858C156.048 406.858 126.618 413.092 116.195 421.85H112.134V435.803C112.134 447.974 147.388 457.845 190.766 457.845C234.221 457.845 269.398 447.974 269.398 435.803V421.85H265.336Z" fill="#FF4F8E"/>
</g>
<path opacity="0.3" d="M123.706 447.306C127.998 449.31 133.439 451.091 139.724 452.576V412.127C133.439 413.612 127.998 415.393 123.706 417.397V447.306Z" fill="white"/>
<path opacity="0.3" d="M240.658 452.872C246.866 451.462 252.231 449.755 256.676 447.9V416.803C252.231 414.947 246.866 413.24 240.658 411.83V452.872Z" fill="white"/>
<path opacity="0.3" d="M148.308 454.357C151.118 454.852 154.081 455.322 157.198 455.767V408.936C154.081 409.332 151.118 409.802 148.308 410.346V454.357Z" fill="white"/>
<path opacity="0.3" d="M228.319 455.173C231.385 454.728 234.348 454.209 237.21 453.615V411.088C234.348 410.495 231.385 409.975 228.319 409.53V455.173Z" fill="white"/>
<path opacity="0.3" d="M161.643 456.286C163.38 456.484 165.143 456.657 166.931 456.806V408.936H161.643V456.286Z" fill="white"/>
<path d="M269.398 421.85C269.398 434.021 234.221 443.892 190.766 443.892C147.388 443.892 112.134 434.021 112.134 421.85C112.134 409.678 147.388 399.807 190.766 399.807C234.221 399.807 269.398 409.678 269.398 421.85Z" fill="#FF1F70"/>
<g filter="url(#filter6_d_883_727)">
<path d="M265.336 392.831C254.913 384.073 225.484 377.839 190.766 377.839C156.048 377.839 126.618 384.073 116.195 392.831H112.134V406.858C112.134 418.955 147.388 428.826 190.766 428.826C234.221 428.826 269.398 418.955 269.398 406.858V392.831H265.336Z" fill="#FF4F8E"/>
</g>
<path opacity="0.3" d="M123.706 418.287C127.998 420.291 133.439 422.072 139.724 423.556V383.108C133.439 384.592 127.998 386.373 123.706 388.377V418.287Z" fill="white"/>
<path opacity="0.3" d="M240.658 423.853C246.866 422.443 252.231 420.736 256.676 418.881V387.784C252.231 385.928 246.866 384.221 240.658 382.811V423.853Z" fill="white"/>
<path opacity="0.3" d="M148.308 425.337C151.118 425.882 154.081 426.352 157.198 426.748V379.917C154.081 380.312 151.118 380.782 148.308 381.327V425.337Z" fill="white"/>
<path opacity="0.3" d="M228.319 426.154C231.385 425.709 234.348 425.189 237.21 424.596V382.069C234.348 381.475 231.385 380.956 228.319 380.51V426.154Z" fill="white"/>
<path opacity="0.3" d="M161.643 427.267C163.38 427.465 165.143 427.638 166.931 427.787V379.917H161.643V427.267Z" fill="white"/>
<path d="M269.398 392.831C269.398 405.002 234.221 414.873 190.766 414.873C147.388 414.873 112.134 405.002 112.134 392.831C112.134 380.659 147.388 370.788 190.766 370.788C234.221 370.788 269.398 380.659 269.398 392.831Z" fill="#FF1F70"/>
<g filter="url(#filter7_d_883_727)">
<path d="M265.336 364.689C254.913 355.932 225.484 349.623 190.766 349.623C156.048 349.623 126.618 355.932 116.195 364.689H112.134V378.642C112.134 390.814 147.388 400.685 190.766 400.685C234.221 400.685 269.398 390.814 269.398 378.642V364.689H265.336Z" fill="#FF4F8E"/>
</g>
<path opacity="0.3" d="M123.706 390.146C127.998 392.15 133.439 393.931 139.724 395.415V354.967C133.439 356.451 127.998 358.232 123.706 360.236V390.146Z" fill="white"/>
<path opacity="0.3" d="M240.658 395.712C246.866 394.302 252.231 392.595 256.676 390.665V359.642C252.231 357.787 246.866 356.08 240.658 354.67V395.712Z" fill="white"/>
<path opacity="0.3" d="M148.308 397.197C151.118 397.692 154.081 398.162 157.198 398.607V351.776C154.081 352.172 151.118 352.642 148.308 353.186V397.197Z" fill="white"/>
<path opacity="0.3" d="M228.319 398.013C231.385 397.567 234.348 397.048 237.21 396.454V353.928C234.348 353.334 231.385 352.79 228.319 352.295V398.013Z" fill="white"/>
<path opacity="0.3" d="M161.643 399.126C163.38 399.324 165.143 399.498 166.931 399.646V351.776H161.643V399.126Z" fill="white"/>
<path d="M269.398 364.689C269.398 376.861 234.221 386.732 190.766 386.732C147.388 386.732 112.134 376.861 112.134 364.689C112.134 352.518 147.388 342.647 190.766 342.647C234.221 342.647 269.398 352.518 269.398 364.689Z" fill="#FF1F70"/>
<g filter="url(#filter8_d_883_727)">
<path d="M265.336 335.67C254.913 326.913 225.484 320.678 190.766 320.678C156.048 320.678 126.618 326.913 116.195 335.67H112.134V349.623C112.134 361.795 147.388 371.666 190.766 371.666C234.221 371.666 269.398 361.795 269.398 349.623V335.67H265.336Z" fill="#FF4F8E"/>
</g>
<path opacity="0.3" d="M123.706 361.127C127.998 363.131 133.439 364.912 139.724 366.396V325.948C133.439 327.432 127.998 329.214 123.706 331.217V361.127Z" fill="white"/>
<path opacity="0.3" d="M240.658 366.693C246.866 365.283 252.231 363.576 256.676 361.72V330.623C252.231 328.768 246.866 327.061 240.658 325.651V366.693Z" fill="white"/>
<path opacity="0.3" d="M148.308 368.177C151.118 368.672 154.081 369.142 157.198 369.587V322.756C154.081 323.152 151.118 323.622 148.308 324.166V368.177Z" fill="white"/>
<path opacity="0.3" d="M228.319 368.994C231.385 368.549 234.348 368.029 237.21 367.435V324.909C234.348 324.315 231.385 323.796 228.319 323.35V368.994Z" fill="white"/>
<path opacity="0.3" d="M161.643 370.107C163.38 370.305 165.143 370.478 166.931 370.626V322.756H161.643V370.107Z" fill="white"/>
<path d="M269.398 335.67C269.398 347.842 234.221 357.713 190.766 357.713C147.388 357.713 112.134 347.842 112.134 335.67C112.134 323.499 147.388 313.628 190.766 313.628C234.221 313.628 269.398 323.499 269.398 335.67Z" fill="#FF1F70"/>
<g filter="url(#filter9_d_883_727)">
<path d="M265.336 306.651C254.913 297.894 225.484 291.659 190.766 291.659C156.048 291.659 126.618 297.894 116.195 306.651H112.134V320.678C112.134 332.776 147.388 342.647 190.766 342.647C234.221 342.647 269.398 332.776 269.398 320.678V306.651H265.336Z" fill="#FF4F8E"/>
</g>
<path opacity="0.3" d="M123.706 332.108C127.998 334.112 133.439 335.893 139.724 337.377V296.929C133.439 298.413 127.998 300.194 123.706 302.198V332.108Z" fill="white"/>
<path opacity="0.3" d="M240.658 337.674C246.866 336.264 252.231 334.557 256.676 332.702V301.605C252.231 299.749 246.866 298.042 240.658 296.632V337.674Z" fill="white"/>
<path opacity="0.3" d="M148.308 339.158C151.118 339.703 154.081 340.173 157.198 340.568V293.737C154.081 294.133 151.118 294.603 148.308 295.147V339.158Z" fill="white"/>
<path opacity="0.3" d="M228.319 339.975C231.385 339.53 234.348 339.01 237.21 338.416V295.89C234.348 295.296 231.385 294.777 228.319 294.331V339.975Z" fill="white"/>
<path opacity="0.3" d="M161.643 341.088C163.38 341.286 165.143 341.459 166.931 341.607V293.737H161.643V341.088Z" fill="white"/>
<path d="M269.398 306.651C269.398 318.823 234.221 328.694 190.766 328.694C147.388 328.694 112.134 318.823 112.134 306.651C112.134 294.48 147.388 284.609 190.766 284.609C234.221 284.609 269.398 294.48 269.398 306.651Z" fill="#FF1F70"/>
<g filter="url(#filter10_d_883_727)">
<path d="M265.336 277.633C254.913 268.949 225.484 262.641 190.766 262.641C156.048 262.641 126.618 268.949 116.195 277.633H112.134V291.66C112.134 303.831 147.388 313.628 190.766 313.628C234.221 313.628 269.398 303.831 269.398 291.66V277.633H265.336Z" fill="#FF4F8E"/>
</g>
<path opacity="0.3" d="M123.706 303.089C127.998 305.093 133.439 306.874 139.724 308.359V267.91C133.439 269.395 127.998 271.176 123.706 273.18V303.089Z" fill="white"/>
<path opacity="0.3" d="M240.659 308.656C246.867 307.246 252.231 305.539 256.676 303.683V272.586C252.231 270.731 246.867 269.024 240.659 267.614V308.656Z" fill="white"/>
<path opacity="0.3" d="M148.308 310.14C151.118 310.684 154.081 311.154 157.198 311.55V264.719C154.081 265.115 151.118 265.585 148.308 266.129V310.14Z" fill="white"/>
<path opacity="0.3" d="M228.319 310.956C231.385 310.511 234.348 309.991 237.21 309.397V266.871C234.348 266.277 231.385 265.758 228.319 265.312V310.956Z" fill="white"/>
<path opacity="0.3" d="M161.643 312.07C163.38 312.267 165.143 312.441 166.931 312.589V264.719H161.643V312.07Z" fill="white"/>
<path d="M269.398 277.633C269.398 289.804 234.221 299.675 190.766 299.675C147.388 299.675 112.134 289.804 112.134 277.633C112.134 265.461 147.388 255.664 190.766 255.664C234.221 255.664 269.398 265.461 269.398 277.633Z" fill="#FF1F70"/>
<path d="M324.265 350.88C324.01 350.324 323.259 349.344 320.793 348.545C319.291 348.055 315.86 347.222 313.849 347.595C313.018 347.747 312.535 348.085 312.508 348.372C312.481 348.745 313.246 348.923 314.64 349.582C316.289 350.355 316.007 350.476 316.771 350.706C317.522 350.932 319.412 351.309 324.252 350.88L324.265 350.88Z" fill="white"/>
<path d="M324.673 358.188C325.568 358.167 326.341 358.184 326.965 358.205C327.548 357.999 328.349 357.75 329.366 357.488C332.159 356.78 335.048 356.43 337.475 356.144C340.839 355.748 341.056 355.861 342.602 355.558C345.246 355.035 346.589 354.302 347.199 353.964C348.027 353.497 349.179 352.847 349.084 352.034C348.989 351.224 347.715 350.828 345.572 349.682C344.487 349.1 342.982 348.227 341.517 347.081C340.744 347.393 339.686 347.907 339.361 348.594C338.94 349.462 340.039 349.812 339.089 350.272C337.869 350.866 335.089 350.74 334.492 351.364C334.438 351.427 334.261 351.604 334.492 351.785C335.007 352.19 336.838 352.101 338.004 352.455C339.157 352.805 339.239 353.459 338.818 353.884C338.072 354.626 335.753 354.685 332.064 355.562C328.308 356.46 329.569 356.671 326.938 357.155C322.748 357.931 319.113 357.48 315.587 358.5C315.275 358.589 314.285 358.875 314.502 359.002C314.8 359.175 317.16 358.964 319.357 358.728C322.219 358.247 324.673 358.192 324.673 358.192L324.673 358.188Z" fill="white"/>
<path d="M324.07 366.973C332.739 364.759 327.054 358.955 326.498 358.402C326.783 358.297 327.149 358.162 327.597 358.014C327.407 358.077 327.231 358.136 327.068 358.191C326.444 358.17 325.671 358.153 324.775 358.174C324.775 358.174 322.32 358.233 319.457 358.71C318.657 358.799 317.83 358.879 317.083 358.942C317.992 358.866 319.037 358.757 320 358.651C320.339 358.879 320.882 359.259 321.357 359.744C322.808 361.228 322.401 362.363 321.628 366.13C321.492 366.763 321.397 367.265 321.357 367.475C322.415 367.336 323.31 367.163 324.056 366.973L324.07 366.973Z" fill="white"/>
<path d="M188.21 268.649C187.955 268.093 187.204 267.113 184.738 266.314C183.236 265.824 179.804 264.991 177.793 265.364C176.962 265.516 176.48 265.854 176.453 266.141C176.426 266.514 177.19 266.692 178.584 267.351C180.233 268.124 179.952 268.245 180.716 268.475C181.467 268.701 183.357 269.078 188.196 268.649L188.21 268.649Z" fill="white"/>
<path d="M188.618 275.957C189.513 275.936 190.286 275.953 190.91 275.974C191.493 275.767 192.293 275.519 193.31 275.257C196.104 274.549 198.993 274.199 201.42 273.913C204.783 273.516 205 273.63 206.546 273.327C209.191 272.804 210.534 272.07 211.144 271.733C211.971 271.265 213.124 270.616 213.029 269.803C212.934 268.993 211.659 268.597 209.516 267.45C208.432 266.869 206.926 265.996 205.461 264.85C204.688 265.162 203.631 265.676 203.305 266.363C202.885 267.231 203.983 267.581 203.034 268.041C201.813 268.635 199.033 268.509 198.437 269.132C198.382 269.196 198.206 269.373 198.437 269.554C198.952 269.959 200.783 269.87 201.949 270.224C203.102 270.574 203.183 271.227 202.763 271.653C202.017 272.395 199.698 272.454 196.009 273.331C192.252 274.229 193.514 274.439 190.883 274.924C186.692 275.7 183.058 275.249 179.532 276.269C179.22 276.357 178.23 276.644 178.447 276.771C178.745 276.943 181.105 276.733 183.302 276.497C186.163 276.016 188.618 275.961 188.618 275.961L188.618 275.957Z" fill="white"/>
<path d="M188.014 284.742C196.683 282.528 190.999 276.724 190.443 276.171C190.728 276.066 191.094 275.931 191.542 275.783C191.352 275.846 191.175 275.905 191.013 275.96C190.388 275.939 189.615 275.922 188.72 275.943C188.72 275.943 186.264 276.002 183.402 276.479C182.602 276.568 181.774 276.648 181.028 276.711C181.937 276.635 182.981 276.525 183.945 276.42C184.284 276.648 184.826 277.027 185.301 277.512C186.753 278.997 186.346 280.132 185.572 283.899C185.437 284.531 185.342 285.033 185.301 285.244C186.359 285.105 187.255 284.932 188.001 284.742L188.014 284.742Z" fill="white"/>
<g filter="url(#filter11_d_883_727)">
<path d="M96.7195 342.176C84.8165 348.685 68.1462 373.745 55.403 406.039C42.6599 438.334 37.7258 468.025 41.9774 480.907L40.4865 484.686L53.5345 489.835C64.8565 494.302 86.9095 465.104 102.831 424.754C118.781 384.332 122.581 348.014 111.258 343.547L98.2105 338.398L96.7195 342.176Z" fill="#FF4F8E"/>
</g>
<path opacity="0.3" d="M68.4138 483.265C71.8531 480.008 75.5073 475.601 79.1947 470.3L41.5696 455.453C40.6436 461.844 40.3032 467.559 40.5919 472.287L68.4138 483.265Z" fill="white"/>
<path opacity="0.3" d="M116.519 376.519C117.486 370.227 117.867 364.61 117.773 359.794L88.8465 348.38C85.489 351.834 81.932 356.197 78.3417 361.454L116.519 376.519Z" fill="white"/>
<path opacity="0.3" d="M84.0025 462.969C85.5403 460.554 87.0652 457.97 88.5774 455.217L45.0151 438.027C44.2393 441.072 43.5888 444.001 43.0636 446.814L84.0025 462.969Z" fill="white"/>
<path opacity="0.3" d="M114.13 388.841C114.841 385.826 115.446 382.879 115.943 379.999L76.3853 364.39C74.7828 366.833 73.2118 369.399 71.6724 372.087L114.13 388.841Z" fill="white"/>
<path opacity="0.3" d="M90.6919 451.272C91.5137 449.729 92.3217 448.153 93.1162 446.544L48.5873 428.973L46.6464 433.892L90.6919 451.272Z" fill="white"/>
<path d="M98.2104 338.398C109.532 342.866 105.802 379.211 89.8524 419.633C73.9305 459.983 51.8085 489.154 40.4864 484.686C29.1644 480.218 32.9916 443.829 48.9135 403.479C64.8636 363.057 86.8884 333.931 98.2104 338.398Z" fill="#FF1F70"/>
<path d="M60.0534 410.623C59.4433 410.656 58.2555 410.994 56.6074 412.995C55.6002 414.212 53.5656 417.098 53.1747 419.106C53.0109 419.935 53.1486 420.508 53.4051 420.638C53.7424 420.8 54.1884 420.154 55.3136 419.1C56.6373 417.849 56.647 418.156 57.1414 417.529C57.6268 416.914 58.6718 415.294 60.0485 410.635L60.0534 410.623Z" fill="white"/>
<path d="M67.0013 412.925C67.3101 412.085 67.6096 411.372 67.8582 410.799C67.8801 410.181 67.9424 409.346 68.0727 408.304C68.4393 405.445 69.1742 402.63 69.7985 400.266C70.6645 396.992 70.85 396.832 71.1352 395.283C71.6196 392.631 71.4301 391.113 71.3405 390.421C71.2089 389.48 71.0281 388.169 70.2365 387.959C69.4488 387.75 68.6123 388.791 66.7593 390.363C65.8199 391.159 64.4557 392.239 62.8516 393.18C62.858 394.014 62.9481 395.187 63.4678 395.742C64.1212 396.451 64.8499 395.558 64.9288 396.61C65.0337 397.963 63.8956 400.503 64.2569 401.287C64.2958 401.361 64.3958 401.59 64.649 401.442C65.2146 401.111 65.8043 399.375 66.5617 398.42C67.3103 397.477 67.9479 397.641 68.1897 398.188C68.606 399.154 67.8097 401.333 67.2713 405.086C66.7276 408.91 67.3867 407.814 66.8719 410.439C66.0552 414.622 64.3016 417.837 63.9563 421.492C63.9241 421.815 63.8273 422.841 64.0246 422.685C64.2949 422.471 64.965 420.199 65.5518 418.068C66.1551 415.23 67.0052 412.927 67.0052 412.927L67.0013 412.925Z" fill="white"/>
<path d="M74.952 416.711C76.074 407.834 68.5885 410.992 67.8703 411.306C67.8768 411.002 67.8857 410.612 67.9127 410.142C67.9019 410.341 67.8921 410.527 67.8833 410.699C67.6346 411.271 67.3351 411.985 67.0261 412.825C67.0261 412.825 66.1797 415.131 65.5725 417.969C65.3611 418.746 65.1319 419.545 64.9169 420.262C65.1799 419.389 65.4613 418.377 65.7167 417.442C66.0531 417.21 66.6054 416.845 67.2309 416.581C69.1448 415.776 70.0509 416.571 73.271 418.673C73.8097 419.031 74.2418 419.304 74.4231 419.419C74.682 418.384 74.8498 417.487 74.947 416.724L74.952 416.711Z" fill="white"/>
<path d="M104.658 349.856L107.081 356.404L113.629 358.827L107.081 361.25L104.658 367.798L102.235 361.25L95.6873 358.827L102.235 356.404L104.658 349.856Z" fill="white"/>
<path d="M249.684 275.101L252.511 282.74L260.15 285.567L252.511 288.394L249.684 296.033L246.857 288.394L239.218 285.567L246.857 282.74L249.684 275.101Z" fill="white"/>
<path d="M26.1644 162.967L29.193 171.152L37.3778 174.181L29.193 177.209L26.1644 185.394L23.1358 177.209L14.951 174.181L23.1358 171.152L26.1644 162.967Z" fill="#FF1F70"/>
<path d="M447.787 340.886L450.815 349.071L459 352.099L450.815 355.128L447.787 363.313L444.758 355.128L436.573 352.099L444.758 349.071L447.787 340.886Z" fill="#FF1F70"/>
<path d="M349.109 0L353.753 12.5499L366.303 17.1938L353.753 21.8377L349.109 34.3876L344.465 21.8377L331.915 17.1938L344.465 12.5499L349.109 0Z" fill="#FF1F70"/>
<path d="M385.739 366.303L387.355 370.668L391.72 372.283L387.355 373.899L385.739 378.264L384.124 373.899L379.759 372.283L384.124 370.668L385.739 366.303Z" fill="white"/>
<defs>
<filter id="filter0_d_883_727" x="244.189" y="429.21" width="165.265" height="58.9873" filterUnits="userSpaceOnUse" color-interpolation-filters="sRGB">
<feFlood flood-opacity="0" result="BackgroundImageFix"/>
<feColorMatrix in="SourceAlpha" type="matrix" values="0 0 0 0 0 0 0 0 0 0 0 0 0 0 0 0 0 0 127 0" result="hardAlpha"/>
<feOffset dy="4"/>
<feGaussianBlur stdDeviation="2"/>
<feComposite in2="hardAlpha" operator="out"/>
<feColorMatrix type="matrix" values="0 0 0 0 0 0 0 0 0 0 0 0 0 0 0 0 0 0 0.25 0"/>
<feBlend mode="normal" in2="BackgroundImageFix" result="effect1_dropShadow_883_727"/>
<feBlend mode="normal" in="SourceGraphic" in2="effect1_dropShadow_883_727" result="shape"/>
</filter>
<filter id="filter1_d_883_727" x="244.189" y="400.191" width="165.265" height="58.9873" filterUnits="userSpaceOnUse" color-interpolation-filters="sRGB">
<feFlood flood-opacity="0" result="BackgroundImageFix"/>
<feColorMatrix in="SourceAlpha" type="matrix" values="0 0 0 0 0 0 0 0 0 0 0 0 0 0 0 0 0 0 127 0" result="hardAlpha"/>
<feOffset dy="4"/>
<feGaussianBlur stdDeviation="2"/>
<feComposite in2="hardAlpha" operator="out"/>
<feColorMatrix type="matrix" values="0 0 0 0 0 0 0 0 0 0 0 0 0 0 0 0 0 0 0.25 0"/>
<feBlend mode="normal" in2="BackgroundImageFix" result="effect1_dropShadow_883_727"/>
<feBlend mode="normal" in="SourceGraphic" in2="effect1_dropShadow_883_727" result="shape"/>
</filter>
<filter id="filter2_d_883_727" x="244.189" y="373.891" width="165.265" height="58.9873" filterUnits="userSpaceOnUse" color-interpolation-filters="sRGB">
<feFlood flood-opacity="0" result="BackgroundImageFix"/>
<feColorMatrix in="SourceAlpha" type="matrix" values="0 0 0 0 0 0 0 0 0 0 0 0 0 0 0 0 0 0 127 0" result="hardAlpha"/>
<feOffset dy="4"/>
<feGaussianBlur stdDeviation="2"/>
<feComposite in2="hardAlpha" operator="out"/>
<feColorMatrix type="matrix" values="0 0 0 0 0 0 0 0 0 0 0 0 0 0 0 0 0 0 0.25 0"/>
<feBlend mode="normal" in2="BackgroundImageFix" result="effect1_dropShadow_883_727"/>
<feBlend mode="normal" in="SourceGraphic" in2="effect1_dropShadow_883_727" result="shape"/>
</filter>
<filter id="filter3_d_883_727" x="244.189" y="344.872" width="165.265" height="58.9873" filterUnits="userSpaceOnUse" color-interpolation-filters="sRGB">
<feFlood flood-opacity="0" result="BackgroundImageFix"/>
<feColorMatrix in="SourceAlpha" type="matrix" values="0 0 0 0 0 0 0 0 0 0 0 0 0 0 0 0 0 0 127 0" result="hardAlpha"/>
<feOffset dy="4"/>
<feGaussianBlur stdDeviation="2"/>
<feComposite in2="hardAlpha" operator="out"/>
<feColorMatrix type="matrix" values="0 0 0 0 0 0 0 0 0 0 0 0 0 0 0 0 0 0 0.25 0"/>
<feBlend mode="normal" in2="BackgroundImageFix" result="effect1_dropShadow_883_727"/>
<feBlend mode="normal" in="SourceGraphic" in2="effect1_dropShadow_883_727" result="shape"/>
</filter>
<filter id="filter4_d_883_727" x="108.134" y="435.802" width="165.265" height="59.0615" filterUnits="userSpaceOnUse" color-interpolation-filters="sRGB">
<feFlood flood-opacity="0" result="BackgroundImageFix"/>
<feColorMatrix in="SourceAlpha" type="matrix" values="0 0 0 0 0 0 0 0 0 0 0 0 0 0 0 0 0 0 127 0" result="hardAlpha"/>
<feOffset dy="4"/>
<feGaussianBlur stdDeviation="2"/>
<feComposite in2="hardAlpha" operator="out"/>
<feColorMatrix type="matrix" values="0 0 0 0 0 0 0 0 0 0 0 0 0 0 0 0 0 0 0.25 0"/>
<feBlend mode="normal" in2="BackgroundImageFix" result="effect1_dropShadow_883_727"/>
<feBlend mode="normal" in="SourceGraphic" in2="effect1_dropShadow_883_727" result="shape"/>
</filter>
<filter id="filter5_d_883_727" x="108.134" y="406.858" width="165.265" height="58.9873" filterUnits="userSpaceOnUse" color-interpolation-filters="sRGB">
<feFlood flood-opacity="0" result="BackgroundImageFix"/>
<feColorMatrix in="SourceAlpha" type="matrix" values="0 0 0 0 0 0 0 0 0 0 0 0 0 0 0 0 0 0 127 0" result="hardAlpha"/>
<feOffset dy="4"/>
<feGaussianBlur stdDeviation="2"/>
<feComposite in2="hardAlpha" operator="out"/>
<feColorMatrix type="matrix" values="0 0 0 0 0 0 0 0 0 0 0 0 0 0 0 0 0 0 0.25 0"/>
<feBlend mode="normal" in2="BackgroundImageFix" result="effect1_dropShadow_883_727"/>
<feBlend mode="normal" in="SourceGraphic" in2="effect1_dropShadow_883_727" result="shape"/>
</filter>
<filter id="filter6_d_883_727" x="108.134" y="377.839" width="165.265" height="58.9873" filterUnits="userSpaceOnUse" color-interpolation-filters="sRGB">
<feFlood flood-opacity="0" result="BackgroundImageFix"/>
<feColorMatrix in="SourceAlpha" type="matrix" values="0 0 0 0 0 0 0 0 0 0 0 0 0 0 0 0 0 0 127 0" result="hardAlpha"/>
<feOffset dy="4"/>
<feGaussianBlur stdDeviation="2"/>
<feComposite in2="hardAlpha" operator="out"/>
<feColorMatrix type="matrix" values="0 0 0 0 0 0 0 0 0 0 0 0 0 0 0 0 0 0 0.25 0"/>
<feBlend mode="normal" in2="BackgroundImageFix" result="effect1_dropShadow_883_727"/>
<feBlend mode="normal" in="SourceGraphic" in2="effect1_dropShadow_883_727" result="shape"/>
</filter>
<filter id="filter7_d_883_727" x="108.134" y="349.623" width="165.265" height="59.0615" filterUnits="userSpaceOnUse" color-interpolation-filters="sRGB">
<feFlood flood-opacity="0" result="BackgroundImageFix"/>
<feColorMatrix in="SourceAlpha" type="matrix" values="0 0 0 0 0 0 0 0 0 0 0 0 0 0 0 0 0 0 127 0" result="hardAlpha"/>
<feOffset dy="4"/>
<feGaussianBlur stdDeviation="2"/>
<feComposite in2="hardAlpha" operator="out"/>
<feColorMatrix type="matrix" values="0 0 0 0 0 0 0 0 0 0 0 0 0 0 0 0 0 0 0.25 0"/>
<feBlend mode="normal" in2="BackgroundImageFix" result="effect1_dropShadow_883_727"/>
<feBlend mode="normal" in="SourceGraphic" in2="effect1_dropShadow_883_727" result="shape"/>
</filter>
<filter id="filter8_d_883_727" x="108.134" y="320.678" width="165.265" height="58.9873" filterUnits="userSpaceOnUse" color-interpolation-filters="sRGB">
<feFlood flood-opacity="0" result="BackgroundImageFix"/>
<feColorMatrix in="SourceAlpha" type="matrix" values="0 0 0 0 0 0 0 0 0 0 0 0 0 0 0 0 0 0 127 0" result="hardAlpha"/>
<feOffset dy="4"/>
<feGaussianBlur stdDeviation="2"/>
<feComposite in2="hardAlpha" operator="out"/>
<feColorMatrix type="matrix" values="0 0 0 0 0 0 0 0 0 0 0 0 0 0 0 0 0 0 0.25 0"/>
<feBlend mode="normal" in2="BackgroundImageFix" result="effect1_dropShadow_883_727"/>
<feBlend mode="normal" in="SourceGraphic" in2="effect1_dropShadow_883_727" result="shape"/>
</filter>
<filter id="filter9_d_883_727" x="108.134" y="291.659" width="165.265" height="58.9873" filterUnits="userSpaceOnUse" color-interpolation-filters="sRGB">
<feFlood flood-opacity="0" result="BackgroundImageFix"/>
<feColorMatrix in="SourceAlpha" type="matrix" values="0 0 0 0 0 0 0 0 0 0 0 0 0 0 0 0 0 0 127 0" result="hardAlpha"/>
<feOffset dy="4"/>
<feGaussianBlur stdDeviation="2"/>
<feComposite in2="hardAlpha" operator="out"/>
<feColorMatrix type="matrix" values="0 0 0 0 0 0 0 0 0 0 0 0 0 0 0 0 0 0 0.25 0"/>
<feBlend mode="normal" in2="BackgroundImageFix" result="effect1_dropShadow_883_727"/>
<feBlend mode="normal" in="SourceGraphic" in2="effect1_dropShadow_883_727" result="shape"/>
</filter>
<filter id="filter10_d_883_727" x="108.134" y="262.641" width="165.265" height="58.9873" filterUnits="userSpaceOnUse" color-interpolation-filters="sRGB">
<feFlood flood-opacity="0" result="BackgroundImageFix"/>
<feColorMatrix in="SourceAlpha" type="matrix" values="0 0 0 0 0 0 0 0 0 0 0 0 0 0 0 0 0 0 127 0" result="hardAlpha"/>
<feOffset dy="4"/>
<feGaussianBlur stdDeviation="2"/>
<feComposite in2="hardAlpha" operator="out"/>
<feColorMatrix type="matrix" values="0 0 0 0 0 0 0 0 0 0 0 0 0 0 0 0 0 0 0.25 0"/>
<feBlend mode="normal" in2="BackgroundImageFix" result="effect1_dropShadow_883_727"/>
<feBlend mode="normal" in="SourceGraphic" in2="effect1_dropShadow_883_727" result="shape"/>
</filter>
<filter id="filter11_d_883_727" x="36.484" y="338.398" width="85.2977" height="159.888" filterUnits="userSpaceOnUse" color-interpolation-filters="sRGB">
<feFlood flood-opacity="0" result="BackgroundImageFix"/>
<feColorMatrix in="SourceAlpha" type="matrix" values="0 0 0 0 0 0 0 0 0 0 0 0 0 0 0 0 0 0 127 0" result="hardAlpha"/>
<feOffset dy="4"/>
<feGaussianBlur stdDeviation="2"/>
<feComposite in2="hardAlpha" operator="out"/>
<feColorMatrix type="matrix" values="0 0 0 0 0 0 0 0 0 0 0 0 0 0 0 0 0 0 0.25 0"/>
<feBlend mode="normal" in2="BackgroundImageFix" result="effect1_dropShadow_883_727"/>
<feBlend mode="normal" in="SourceGraphic" in2="effect1_dropShadow_883_727" result="shape"/>
</filter>
<linearGradient id="paint0_linear_883_727" x1="276.596" y1="17.9414" x2="276.596" y2="461.99" gradientUnits="userSpaceOnUse">
<stop stop-color="#FF1F70"/>
<stop offset="1" stop-color="white"/>
</linearGradient>
<linearGradient id="paint1_linear_883_727" x1="132.888" y1="161.812" x2="148.568" y2="375.037" gradientUnits="userSpaceOnUse">
<stop stop-color="#FF1F70"/>
<stop offset="1" stop-color="white"/>
</linearGradient>
<linearGradient id="paint2_linear_883_727" x1="174.181" y1="64.29" x2="174.181" y2="180.909" gradientUnits="userSpaceOnUse">
<stop stop-color="#FF1F70"/>
<stop offset="1" stop-color="white"/>
</linearGradient>
<linearGradient id="paint3_linear_883_727" x1="402.933" y1="174.928" x2="402.933" y2="225.762" gradientUnits="userSpaceOnUse">
<stop stop-color="#FF1F70"/>
<stop offset="1" stop-color="white"/>
</linearGradient>
<linearGradient id="paint4_linear_883_727" x1="52.1915" y1="235.03" x2="59.9416" y2="285.269" gradientUnits="userSpaceOnUse">
<stop stop-color="#FF1F70"/>
<stop offset="1" stop-color="white"/>
</linearGradient>
</defs>
</svg>
