<svg width="46" height="1198" viewBox="0 0 46 1198" fill="none" xmlns="http://www.w3.org/2000/svg">
<mask id="path-1-outside-1_707_3" maskUnits="userSpaceOnUse" x="0" y="0" width="46" height="1198" fill="black">
<rect fill="white" width="46" height="1198"/>
<path d="M41 99C41 108.941 32.9411 117 23 117C13.0589 117 5 108.941 5 99C5 89.0589 13.0589 81 23 81C32.9411 81 41 89.0589 41 99Z"/>
<path d="M41 456C41 465.941 32.9411 474 23 474C13.0589 474 5 465.941 5 456C5 446.059 13.0589 438 23 438C32.9411 438 41 446.059 41 456Z"/>
<path d="M41 813C41 822.941 32.9411 831 23 831C13.0589 831 5 822.941 5 813C5 803.059 13.0589 795 23 795C32.9411 795 41 803.059 41 813Z"/>
<path d="M41 186C41 195.941 32.9411 204 23 204C13.0589 204 5 195.941 5 186C5 176.059 13.0589 168 23 168C32.9411 168 41 176.059 41 186Z"/>
<path d="M41 543C41 552.941 32.9411 561 23 561C13.0589 561 5 552.941 5 543C5 533.059 13.0589 525 23 525C32.9411 525 41 533.059 41 543Z"/>
<path d="M41 900C41 909.941 32.9411 918 23 918C13.0589 918 5 909.941 5 900C5 890.059 13.0589 882 23 882C32.9411 882 41 890.059 41 900Z"/>
<path d="M41 276C41 285.941 32.9411 294 23 294C13.0589 294 5 285.941 5 276C5 266.059 13.0589 258 23 258C32.9411 258 41 266.059 41 276Z"/>
<path d="M41 633C41 642.941 32.9411 651 23 651C13.0589 651 5 642.941 5 633C5 623.059 13.0589 615 23 615C32.9411 615 41 623.059 41 633Z"/>
<path d="M41 990C41 999.941 32.9411 1008 23 1008C13.0589 1008 5 999.941 5 990C5 980.059 13.0589 972 23 972C32.9411 972 41 980.059 41 990Z"/>
<path d="M41 364C41 373.941 32.9411 382 23 382C13.0589 382 5 373.941 5 364C5 354.059 13.0589 346 23 346C32.9411 346 41 354.059 41 364Z"/>
<path d="M41 721C41 730.941 32.9411 739 23 739C13.0589 739 5 730.941 5 721C5 711.059 13.0589 703 23 703C32.9411 703 41 711.059 41 721Z"/>
<path d="M41 1078C41 1087.94 32.9411 1096 23 1096C13.0589 1096 5 1087.94 5 1078C5 1068.06 13.0589 1060 23 1060C32.9411 1060 41 1068.06 41 1078Z"/>
</mask>
<path d="M41 99C41 108.941 32.9411 117 23 117C13.0589 117 5 108.941 5 99C5 89.0589 13.0589 81 23 81C32.9411 81 41 89.0589 41 99Z" fill="#FF1F70"/>
<path d="M41 456C41 465.941 32.9411 474 23 474C13.0589 474 5 465.941 5 456C5 446.059 13.0589 438 23 438C32.9411 438 41 446.059 41 456Z" fill="white"/>
<path d="M41 813C41 822.941 32.9411 831 23 831C13.0589 831 5 822.941 5 813C5 803.059 13.0589 795 23 795C32.9411 795 41 803.059 41 813Z" fill="white"/>
<path d="M41 186C41 195.941 32.9411 204 23 204C13.0589 204 5 195.941 5 186C5 176.059 13.0589 168 23 168C32.9411 168 41 176.059 41 186Z" fill="#FF1F70"/>
<path d="M41 543C41 552.941 32.9411 561 23 561C13.0589 561 5 552.941 5 543C5 533.059 13.0589 525 23 525C32.9411 525 41 533.059 41 543Z" fill="white"/>
<path d="M41 900C41 909.941 32.9411 918 23 918C13.0589 918 5 909.941 5 900C5 890.059 13.0589 882 23 882C32.9411 882 41 890.059 41 900Z" fill="white"/>
<path d="M41 276C41 285.941 32.9411 294 23 294C13.0589 294 5 285.941 5 276C5 266.059 13.0589 258 23 258C32.9411 258 41 266.059 41 276Z" fill="#FF1F70"/>
<path d="M41 633C41 642.941 32.9411 651 23 651C13.0589 651 5 642.941 5 633C5 623.059 13.0589 615 23 615C32.9411 615 41 623.059 41 633Z" fill="white"/>
<path d="M41 990C41 999.941 32.9411 1008 23 1008C13.0589 1008 5 999.941 5 990C5 980.059 13.0589 972 23 972C32.9411 972 41 980.059 41 990Z" fill="white"/>
<path d="M41 364C41 373.941 32.9411 382 23 382C13.0589 382 5 373.941 5 364C5 354.059 13.0589 346 23 346C32.9411 346 41 354.059 41 364Z" fill="#FF1F70"/>
<path d="M41 721C41 730.941 32.9411 739 23 739C13.0589 739 5 730.941 5 721C5 711.059 13.0589 703 23 703C32.9411 703 41 711.059 41 721Z" fill="white"/>
<path d="M41 1078C41 1087.94 32.9411 1096 23 1096C13.0589 1096 5 1087.94 5 1078C5 1068.06 13.0589 1060 23 1060C32.9411 1060 41 1068.06 41 1078Z" fill="white"/>
<path d="M23 0.566243L8.56624 15L23 29.4338L37.4338 15L23 0.566243ZM23.0001 1198L37.4338 1173H8.56629L23.0001 1198ZM20.5 15L20.5001 1175.5H25.5L25.5 15L20.5 15ZM36 99C36 106.18 30.1797 112 23 112V122C35.7025 122 46 111.703 46 99H36ZM23 112C15.8203 112 10 106.18 10 99H0C0 111.703 10.2975 122 23 122V112ZM10 99C10 91.8203 15.8203 86 23 86V76C10.2975 76 0 86.2974 0 99H10ZM23 86C30.1797 86 36 91.8203 36 99H46C46 86.2974 35.7025 76 23 76V86ZM36 456C36 463.18 30.1797 469 23 469V479C35.7025 479 46 468.703 46 456H36ZM23 469C15.8203 469 10 463.18 10 456H0C0 468.703 10.2975 479 23 479V469ZM10 456C10 448.82 15.8203 443 23 443V433C10.2975 433 0 443.297 0 456H10ZM23 443C30.1797 443 36 448.82 36 456H46C46 443.297 35.7025 433 23 433V443ZM36 813C36 820.18 30.1797 826 23 826V836C35.7025 836 46 825.703 46 813H36ZM23 826C15.8203 826 10 820.18 10 813H0C0 825.703 10.2975 836 23 836V826ZM10 813C10 805.82 15.8203 800 23 800V790C10.2975 790 0 800.297 0 813H10ZM23 800C30.1797 800 36 805.82 36 813H46C46 800.297 35.7025 790 23 790V800ZM36 186C36 193.18 30.1797 199 23 199V209C35.7025 209 46 198.703 46 186H36ZM23 199C15.8203 199 10 193.18 10 186H0C0 198.703 10.2975 209 23 209V199ZM10 186C10 178.82 15.8203 173 23 173V163C10.2975 163 0 173.297 0 186H10ZM23 173C30.1797 173 36 178.82 36 186H46C46 173.297 35.7025 163 23 163V173ZM36 543C36 550.18 30.1797 556 23 556V566C35.7025 566 46 555.703 46 543H36ZM23 556C15.8203 556 10 550.18 10 543H0C0 555.703 10.2975 566 23 566V556ZM10 543C10 535.82 15.8203 530 23 530V520C10.2975 520 0 530.297 0 543H10ZM23 530C30.1797 530 36 535.82 36 543H46C46 530.297 35.7025 520 23 520V530ZM36 900C36 907.18 30.1797 913 23 913V923C35.7025 923 46 912.703 46 900H36ZM23 913C15.8203 913 10 907.18 10 900H0C0 912.703 10.2975 923 23 923V913ZM10 900C10 892.82 15.8203 887 23 887V877C10.2975 877 0 887.297 0 900H10ZM23 887C30.1797 887 36 892.82 36 900H46C46 887.297 35.7025 877 23 877V887ZM36 276C36 283.18 30.1797 289 23 289V299C35.7025 299 46 288.703 46 276H36ZM23 289C15.8203 289 10 283.18 10 276H0C0 288.703 10.2975 299 23 299V289ZM10 276C10 268.82 15.8203 263 23 263V253C10.2975 253 0 263.297 0 276H10ZM23 263C30.1797 263 36 268.82 36 276H46C46 263.297 35.7025 253 23 253V263ZM36 633C36 640.18 30.1797 646 23 646V656C35.7025 656 46 645.703 46 633H36ZM23 646C15.8203 646 10 640.18 10 633H0C0 645.703 10.2975 656 23 656V646ZM10 633C10 625.82 15.8203 620 23 620V610C10.2975 610 0 620.297 0 633H10ZM23 620C30.1797 620 36 625.82 36 633H46C46 620.297 35.7025 610 23 610V620ZM36 990C36 997.18 30.1797 1003 23 1003V1013C35.7025 1013 46 1002.7 46 990H36ZM23 1003C15.8203 1003 10 997.18 10 990H0C0 1002.7 10.2975 1013 23 1013V1003ZM10 990C10 982.82 15.8203 977 23 977V967C10.2975 967 0 977.297 0 990H10ZM23 977C30.1797 977 36 982.82 36 990H46C46 977.297 35.7025 967 23 967V977ZM36 364C36 371.18 30.1797 377 23 377V387C35.7025 387 46 376.703 46 364H36ZM23 377C15.8203 377 10 371.18 10 364H0C0 376.703 10.2975 387 23 387V377ZM10 364C10 356.82 15.8203 351 23 351V341C10.2975 341 0 351.297 0 364H10ZM23 351C30.1797 351 36 356.82 36 364H46C46 351.297 35.7025 341 23 341V351ZM36 721C36 728.18 30.1797 734 23 734V744C35.7025 744 46 733.703 46 721H36ZM23 734C15.8203 734 10 728.18 10 721H0C0 733.703 10.2975 744 23 744V734ZM10 721C10 713.82 15.8203 708 23 708V698C10.2975 698 0 708.297 0 721H10ZM23 708C30.1797 708 36 713.82 36 721H46C46 708.297 35.7025 698 23 698V708ZM36 1078C36 1085.18 30.1797 1091 23 1091V1101C35.7025 1101 46 1090.7 46 1078H36ZM23 1091C15.8203 1091 10 1085.18 10 1078H0C0 1090.7 10.2975 1101 23 1101V1091ZM10 1078C10 1070.82 15.8203 1065 23 1065V1055C10.2975 1055 0 1065.3 0 1078H10ZM23 1065C30.1797 1065 36 1070.82 36 1078H46C46 1065.3 35.7025 1055 23 1055V1065Z" fill="url(#paint0_linear_707_3)" mask="url(#path-1-outside-1_707_3)"/>
<path d="M21.2496 104.934C21.0938 105.091 20.8813 105.178 20.6604 105.178C20.4396 105.178 20.2271 105.091 20.0713 104.934L15.3663 100.228C14.8779 99.74 14.8779 98.9483 15.3663 98.4608L15.9554 97.8716C16.4438 97.3833 17.2346 97.3833 17.7229 97.8716L20.6604 100.809L28.5979 92.8716C29.0863 92.3833 29.8779 92.3833 30.3654 92.8716L30.9546 93.4608C31.4429 93.9491 31.4429 94.7408 30.9546 95.2283L21.2496 104.934Z" fill="white"/>
<path d="M21.2496 192.429C21.0938 192.585 20.8813 192.673 20.6604 192.673C20.4396 192.673 20.2271 192.585 20.0713 192.429L15.3663 187.723C14.8779 187.235 14.8779 186.443 15.3663 185.955L15.9554 185.366C16.4438 184.878 17.2346 184.878 17.7229 185.366L20.6604 188.304L28.5979 180.366C29.0863 179.878 29.8779 179.878 30.3654 180.366L30.9546 180.955C31.4429 181.444 31.4429 182.235 30.9546 182.723L21.2496 192.429Z" fill="white"/>
<path d="M21.2496 282.429C21.0938 282.585 20.8813 282.673 20.6604 282.673C20.4396 282.673 20.2271 282.585 20.0713 282.429L15.3663 277.723C14.8779 277.235 14.8779 276.443 15.3663 275.955L15.9554 275.366C16.4438 274.878 17.2346 274.878 17.7229 275.366L20.6604 278.304L28.5979 270.366C29.0863 269.878 29.8779 269.878 30.3654 270.366L30.9546 270.955C31.4429 271.444 31.4429 272.235 30.9546 272.723L21.2496 282.429Z" fill="white"/>
<path d="M21.2496 370.429C21.0938 370.585 20.8813 370.673 20.6604 370.673C20.4396 370.673 20.2271 370.585 20.0713 370.429L15.3663 365.723C14.8779 365.235 14.8779 364.443 15.3663 363.955L15.9554 363.366C16.4438 362.878 17.2346 362.878 17.7229 363.366L20.6604 366.304L28.5979 358.366C29.0863 357.878 29.8779 357.878 30.3654 358.366L30.9546 358.955C31.4429 359.444 31.4429 360.235 30.9546 360.723L21.2496 370.429Z" fill="white"/>
<defs>
<linearGradient id="paint0_linear_707_3" x1="23" y1="15" x2="23" y2="1198" gradientUnits="userSpaceOnUse">
<stop stop-color="#FF1F70"/>
<stop offset="1" stop-color="#52C3FF"/>
</linearGradient>
</defs>
</svg>
