<svg viewBox="0 0 37 37" fill="currentColor" xmlns="http://www.w3.org/2000/svg">
  <g>
    <path
      d="M18.5 12.3335C15.0997 12.3335 12.3334 15.0999 12.3334 18.5001C12.3334 21.9004 15.0998 24.6668 18.5 24.6668C21.9002 24.6668 24.6666 21.9004 24.6666 18.5001C24.6666 15.0999 21.9003 12.3335 18.5 12.3335ZM18.5 23.4335C15.7799 23.4335 13.5666 21.2203 13.5666 18.5001C13.5666 15.78 15.7799 13.5668 18.5 13.5668C21.2202 13.5668 23.4334 15.78 23.4334 18.5001C23.4334 21.2203 21.2202 23.4335 18.5 23.4335Z"
      fill="#FF1F70" />
    <path
      d="M9.25 0C7.21009 0 5.55 1.65944 5.55 3.7C5.55 5.74056 7.21009 7.4 9.25 7.4C11.2899 7.4 12.95 5.74056 12.95 3.7C12.95 1.65944 11.2899 0 9.25 0ZM9.25 6.16664C7.8896 6.16664 6.78336 5.06033 6.78336 3.7C6.78336 2.33967 7.8896 1.23336 9.25 1.23336C10.6104 1.23336 11.7166 2.33967 11.7166 3.7C11.7166 5.06033 10.6104 6.16664 9.25 6.16664Z"
      fill="currentColor" />
    <path
      d="M26.5167 0C24.4767 0 22.8167 1.65944 22.8167 3.7C22.8167 5.74056 24.4767 7.4 26.5167 7.4C28.5566 7.4 30.2167 5.74056 30.2167 3.7C30.2167 1.65944 28.5566 0 26.5167 0ZM26.5167 6.16664C25.1563 6.16664 24.05 5.06033 24.05 3.7C24.05 2.33967 25.1563 1.23336 26.5167 1.23336C27.877 1.23336 28.9833 2.33967 28.9833 3.7C28.9833 5.06033 27.8771 6.16664 26.5167 6.16664Z"
      fill="currentColor" />
    <path
      d="M3.7 19.1167C1.66009 19.1167 0 20.7761 0 22.8167C0 24.8573 1.66009 26.5167 3.7 26.5167C5.73991 26.5167 7.4 24.8573 7.4 22.8167C7.4 20.7762 5.73991 19.1167 3.7 19.1167ZM3.7 25.2834C2.3396 25.2834 1.23336 24.1771 1.23336 22.8168C1.23336 21.4564 2.33967 20.3501 3.7 20.3501C5.06033 20.3501 6.16664 21.4564 6.16664 22.8168C6.16664 24.1771 5.0604 25.2834 3.7 25.2834Z"
      fill="currentColor" />
    <path
      d="M22.2 29.6001C20.1601 29.6001 18.5 31.2595 18.5 33.3001C18.5 35.3407 20.1601 37.0001 22.2 37.0001C24.2399 37.0001 25.9 35.3407 25.9 33.3001C25.9 31.2595 24.2399 29.6001 22.2 29.6001ZM22.2 35.7667C20.8396 35.7667 19.7334 34.6604 19.7334 33.3001C19.7334 31.9397 20.8397 30.8335 22.2 30.8335C23.5603 30.8335 24.6666 31.9398 24.6666 33.3001C24.6666 34.6605 23.5604 35.7667 22.2 35.7667Z"
      fill="currentColor" />
    <path
      d="M31.45 20.3501C30.0896 20.3501 28.9834 21.4564 28.9834 22.8167C28.9834 24.1771 30.0897 25.2834 31.45 25.2834C32.8104 25.2834 33.9166 24.1771 33.9166 22.8167C33.9166 21.4564 32.8104 20.3501 31.45 20.3501ZM31.45 24.0501C30.7698 24.0501 30.2166 23.497 30.2166 22.8167C30.2166 22.1366 30.7698 21.5834 31.45 21.5834C32.1302 21.5834 32.6834 22.1365 32.6834 22.8167C32.6834 23.497 32.1302 24.0501 31.45 24.0501Z"
      fill="currentColor" />
    <path
      d="M34.5334 6.7832C33.173 6.7832 32.0667 7.88952 32.0667 9.24985C32.0667 10.6102 33.173 11.7165 34.5334 11.7165C35.8937 11.7165 37 10.6102 37 9.24985C37 7.88945 35.8937 6.7832 34.5334 6.7832ZM34.5334 10.4832C33.8532 10.4832 33.3 9.93008 33.3 9.24985C33.3 8.56968 33.8531 8.01649 34.5334 8.01649C35.2136 8.01649 35.7667 8.56961 35.7667 9.24985C35.7667 9.93008 35.2135 10.4832 34.5334 10.4832Z"
      fill="currentColor" />
    <path
      d="M10.4834 28.3667C9.12295 28.3667 8.01671 29.473 8.01671 30.8333C8.01671 32.1937 9.12302 33.3 10.4834 33.3C11.8437 33.3 12.95 32.1937 12.95 30.8333C12.95 29.473 11.8437 28.3667 10.4834 28.3667ZM10.4834 32.0667C9.80319 32.0667 9.24999 31.5136 9.24999 30.8333C9.24999 30.1531 9.80311 29.6 10.4834 29.6C11.1635 29.6 11.7167 30.1531 11.7167 30.8333C11.7167 31.5136 11.1635 32.0667 10.4834 32.0667Z"
      fill="currentColor" />
    <path d="M21.5752 23.3243L20.3617 23.5449L21.5952 30.3285L22.8087 30.1078L21.5752 23.3243Z"
      fill="currentColor" />
    <path d="M12.497 30.855L12.1725 32.0449L18.9564 33.8949L19.2809 32.705L12.497 30.855Z"
      fill="currentColor" />
    <path d="M13.4054 20.3705L6.62195 22.2212L6.94659 23.4111L13.73 21.5603L13.4054 20.3705Z"
      fill="currentColor" />
    <path d="M11.6325 5.85214L10.5671 6.47363L14.884 13.8738L15.9494 13.2523L11.6325 5.85214Z"
      fill="currentColor" />
    <path d="M24.7402 6.48945L21.0422 13.2734L22.125 13.8637L25.823 7.0797L24.7402 6.48945Z"
      fill="currentColor" />
    <path d="M29.2867 5.01813L28.6749 6.08887L32.9899 8.55452L33.6017 7.48378L29.2867 5.01813Z"
      fill="currentColor" />
    <path d="M24.3466 17.9584L23.7477 19.0366L29.2983 22.1199L29.8972 21.0417L24.3466 17.9584Z"
      fill="currentColor" />
    <path
      d="M18.5 14.7998C16.4601 14.7998 14.8 16.4592 14.8 18.4998C14.8 18.8408 15.0763 19.1164 15.4166 19.1164C15.757 19.1164 16.0333 18.8408 16.0333 18.4998C16.0333 17.1394 17.1396 16.0332 18.4999 16.0332C18.8403 16.0332 19.1166 15.7575 19.1166 15.4165C19.1166 15.0754 18.8404 14.7998 18.5 14.7998Z"
      fill="#FF1F70" />
  </g>

</svg>
