<svg width="1240" height="500" viewBox="0 0 1240 500" fill="none" xmlns="http://www.w3.org/2000/svg">
<path d="M1240 474L1200 450.906L1200 497.094L1240 474ZM998 478L1204 478L1204 470L998 470L998 478Z" fill="#FF1F70"/>
<path d="M4.90599 26L28 49.094L51.094 26L28 2.90599L4.90599 26ZM28 30L1124 29.9999L1124 21.9999L28 22L28 30Z" fill="#FF1F70"/>
<line x1="998" y1="250" x2="1129" y2="250" stroke="#FF1F70" stroke-width="8"/>
<line x1="760" y1="250" x2="958" y2="250" stroke="#FF1F70" stroke-width="8"/>
<line x1="518" y1="250" x2="716" y2="250" stroke="#FF1F70" stroke-width="8"/>
<line x1="276" y1="250" x2="474" y2="250" stroke="#FF1F70" stroke-width="8"/>
<line x1="116" y1="250" x2="232" y2="250" stroke="#FF1F70" stroke-width="8"/>
<line x1="760" y1="474" x2="958" y2="474" stroke="#FF1F70" stroke-width="8"/>
<line x1="518" y1="474" x2="716" y2="474" stroke="#FF1F70" stroke-width="8"/>
<line x1="276" y1="474" x2="474" y2="474" stroke="#FF1F70" stroke-width="8"/>
<line x1="116" y1="474" x2="232" y2="474" stroke="#FF1F70" stroke-width="8"/>
<path d="M1124 26C1138.71 26 1153.27 28.897 1166.86 34.5255C1180.45 40.154 1192.8 48.4039 1203.2 58.804C1213.6 69.2042 1221.85 81.551 1227.47 95.1395C1233.1 108.728 1236 123.292 1236 138C1236 152.708 1233.1 167.272 1227.47 180.861C1221.85 194.449 1213.6 206.796 1203.2 217.196C1192.8 227.596 1180.45 235.846 1166.86 241.475C1153.27 247.103 1138.71 250 1124 250" stroke="#FF1F70" stroke-width="8"/>
<path d="M116 474C101.292 474 86.7279 471.103 73.1395 465.475C59.551 459.846 47.2042 451.596 36.804 441.196C26.4039 430.796 18.154 418.449 12.5255 404.861C6.89697 391.272 4 376.708 4 362C4 347.292 6.89697 332.728 12.5255 319.139C18.154 305.551 26.4039 293.204 36.804 282.804C47.2042 272.404 59.551 264.154 73.1395 258.525C86.7279 252.897 101.292 250 116 250" stroke="#FF1F70" stroke-width="8"/>
<circle cx="254" cy="250" r="22" stroke="#FF1F70" stroke-width="8"/>
<circle cx="496" cy="250" r="22" stroke="#FF1F70" stroke-width="8"/>
<circle cx="738" cy="250" r="22" stroke="#FF1F70" stroke-width="8"/>
<circle cx="980" cy="250" r="22" fill="#FF1F70" stroke="#FF1F70" stroke-width="8"/>
<path d="M978.25 256.429C978.094 256.585 977.881 256.673 977.66 256.673C977.44 256.673 977.227 256.585 977.071 256.429L972.366 251.723C971.878 251.235 971.878 250.443 972.366 249.955L972.955 249.366C973.444 248.878 974.235 248.878 974.723 249.366L977.66 252.304L985.598 244.366C986.086 243.878 986.878 243.878 987.365 244.366L987.955 244.955C988.443 245.444 988.443 246.235 987.955 246.723L978.25 256.429Z" fill="white"/>
<circle cx="254" cy="26" r="22" fill="#FF1F70" stroke="#FF1F70" stroke-width="8"/>
<path d="M252.25 32.4288C252.094 32.5854 251.881 32.6729 251.66 32.6729C251.44 32.6729 251.227 32.5854 251.071 32.4288L246.366 27.7229C245.878 27.2346 245.878 26.4429 246.366 25.9554L246.955 25.3663C247.444 24.8779 248.235 24.8779 248.723 25.3663L251.66 28.3037L259.598 20.3663C260.086 19.8779 260.878 19.8779 261.365 20.3663L261.955 20.9554C262.443 21.4438 262.443 22.2354 261.955 22.7229L252.25 32.4288Z" fill="white"/>
<circle cx="496" cy="26" r="22" fill="#FF1F70" stroke="#FF1F70" stroke-width="8"/>
<path d="M494.25 32.4288C494.094 32.5854 493.881 32.6729 493.66 32.6729C493.44 32.6729 493.227 32.5854 493.071 32.4288L488.366 27.7229C487.878 27.2346 487.878 26.4429 488.366 25.9554L488.955 25.3663C489.444 24.8779 490.235 24.8779 490.723 25.3663L493.66 28.3037L501.598 20.3663C502.086 19.8779 502.878 19.8779 503.365 20.3663L503.955 20.9554C504.443 21.4438 504.443 22.2354 503.955 22.7229L494.25 32.4288Z" fill="white"/>
<circle cx="738" cy="26" r="22" fill="#FF1F70" stroke="#FF1F70" stroke-width="8"/>
<path d="M736.25 32.4288C736.094 32.5854 735.881 32.6729 735.66 32.6729C735.44 32.6729 735.227 32.5854 735.071 32.4288L730.366 27.7229C729.878 27.2346 729.878 26.4429 730.366 25.9554L730.955 25.3663C731.444 24.8779 732.235 24.8779 732.723 25.3663L735.66 28.3037L743.598 20.3663C744.086 19.8779 744.878 19.8779 745.365 20.3663L745.955 20.9554C746.443 21.4438 746.443 22.2354 745.955 22.7229L736.25 32.4288Z" fill="white"/>
<circle cx="980" cy="26" r="22" fill="#FF1F70" stroke="#FF1F70" stroke-width="8"/>
<path d="M978.25 32.4288C978.094 32.5854 977.881 32.6729 977.66 32.6729C977.44 32.6729 977.227 32.5854 977.071 32.4288L972.366 27.7229C971.878 27.2346 971.878 26.4429 972.366 25.9554L972.955 25.3663C973.444 24.8779 974.235 24.8779 974.723 25.3663L977.66 28.3037L985.598 20.3663C986.086 19.8779 986.878 19.8779 987.365 20.3663L987.955 20.9554C988.443 21.4438 988.443 22.2354 987.955 22.7229L978.25 32.4288Z" fill="white"/>
<circle cx="254" cy="474" r="22" stroke="#FF1F70" stroke-width="8"/>
<circle cx="496" cy="474" r="22" stroke="#FF1F70" stroke-width="8"/>
<circle cx="738" cy="474" r="22" stroke="#FF1F70" stroke-width="8"/>
<circle cx="980" cy="474" r="22" stroke="#FF1F70" stroke-width="8"/>
</svg>
