<svg width="438" height="111" viewBox="0 0 438 111" fill="none" xmlns="http://www.w3.org/2000/svg">
<path d="M292.44 12.2906V36.9958L287.679 42.5825C287.679 42.5825 279.778 40.4718 279.778 38.2372C279.778 36.0025 275.929 14.4008 275.929 14.4008L292.44 12.2906Z" fill="#97D6E9"/>
<path d="M70.9072 28.3056V56.8593L91.1664 51.6451L87.5195 36.0024L70.9072 28.3056Z" fill="#97D6E9"/>
<path d="M11.9521 71.8811L81.8456 42.831L70.9057 28.3057L125.301 30.5403L152.043 19.367L166.022 28.3057C166.022 28.3057 195.499 4.46931 196.41 4.46931C197.322 4.46931 259.618 0 259.618 0L292.438 12.2906L286.664 19.367L287.575 30.9128L297.907 19.367L307.935 18.2497L328.903 35.9405L377.626 38.7337L407.002 51.8931L437.998 87.1508L390.592 85.1646L360.204 74.2398L313.406 76.226L259.112 68.7771L226.697 82.1851L178.481 82.4335L143.028 72.75L110.411 84.6682L11.9521 71.8811Z" fill="#FFFFFD"/>
<path d="M11.9527 71.8814L0 101.801L110.209 109.498L110.412 84.6685L11.9527 71.8814Z" fill="#BDE3EC"/>
<path d="M110.412 84.6681L143.029 72.7499L144.447 97.0827L110.412 110.739V84.6681Z" fill="#95D7E7"/>
<path d="M143.029 72.7502L178.482 82.4337V109.498L144.448 97.083L143.029 72.7502Z" fill="#DAF2FC"/>
<path d="M178.481 82.4336L226.698 82.1852V108.256L178.481 109.498V82.4336Z" fill="#BEE4ED"/>
<path d="M226.699 82.1851C227.9 82.1851 259.114 68.7771 259.114 68.7771V94.1033L226.699 108.256V82.1851Z" fill="#95D7E7"/>
<path d="M259.113 68.7777L313.408 76.2261V101.056L259.113 94.1034V68.7777Z" fill="#BEE4ED"/>
<path d="M313.406 76.2259L360.204 74.2397V98.324L313.406 101.056V76.2259Z" fill="#95D7E7"/>
<path d="M360.205 74.2399L390.594 85.1648V102.297L360.205 98.3243V74.2399Z" fill="#DAF2FC"/>
<path d="M438 87.1514L437.189 97.3313L390.594 102.297V85.1647L438 87.1514Z" fill="#BEE4ED"/>
</svg>
