<svg width="741" height="188" viewBox="0 0 741 188" fill="none" xmlns="http://www.w3.org/2000/svg">
<path d="M494.394 21.1714V62.9377L486.345 72.3824C486.345 72.3824 472.988 68.8142 472.988 65.0363C472.988 61.2584 466.48 24.7388 466.48 24.7388L494.394 21.1714Z" fill="#97D6E9"/>
<path d="M119.875 48.2461V96.5184L154.125 87.7034L147.959 61.2582L119.875 48.2461Z" fill="#97D6E9"/>
<path d="M20.207 121.914L138.368 72.8025L119.873 48.2462L211.832 52.0241L257.042 33.1347L280.674 48.2462C280.674 48.2462 330.508 7.9488 332.049 7.9488C333.59 7.9488 438.907 0.393066 438.907 0.393066L494.391 21.1714L484.63 33.1347L486.171 52.6538L503.638 33.1347L520.591 31.2457L556.04 61.1535L638.41 65.8756L688.072 88.1227L740.473 147.729L660.33 144.371L608.956 125.902L529.839 129.259L438.051 116.666L383.252 139.334L301.738 139.754L241.801 123.383L186.659 143.532L20.207 121.914Z" fill="#FFFFFD"/>
<path d="M20.2071 121.915L0 172.496L186.318 185.508L186.66 143.532L20.2071 121.915Z" fill="#BDE3EC"/>
<path d="M186.66 143.532L241.802 123.383L244.2 164.519L186.66 187.607V143.532Z" fill="#95D7E7"/>
<path d="M241.803 123.383L301.739 139.754V185.508L244.201 164.52L241.803 123.383Z" fill="#DAF2FC"/>
<path d="M301.738 139.754L383.252 139.334V183.409L301.738 185.508V139.754Z" fill="#BEE4ED"/>
<path d="M383.254 139.334C385.284 139.334 438.053 116.667 438.053 116.667V159.483L383.254 183.409V139.334Z" fill="#95D7E7"/>
<path d="M438.053 116.667L529.842 129.26V171.236L438.053 159.483V116.667Z" fill="#BEE4ED"/>
<path d="M529.84 129.259L608.956 125.901V166.618L529.84 171.236V129.259Z" fill="#95D7E7"/>
<path d="M608.957 125.902L660.331 144.371V173.335L608.957 166.618V125.902Z" fill="#DAF2FC"/>
<path d="M740.476 147.73L739.106 164.94L660.332 173.335V144.371L740.476 147.73Z" fill="#BEE4ED"/>
</svg>
