<svg width="26" height="26" viewBox="0 0 26 26" fill="none" xmlns="http://www.w3.org/2000/svg">
<path d="M8.66664 18.6334H7.79997C7.56066 18.6334 7.36664 18.8274 7.36664 19.0667C7.36664 19.306 7.56066 19.5 7.79997 19.5H8.66664C8.90595 19.5 9.09997 19.306 9.09997 19.0667C9.09997 18.8274 8.90595 18.6334 8.66664 18.6334Z" fill="#FF1F70"/>
<path d="M20.8 18.6334H10.4C10.1607 18.6334 9.96667 18.8274 9.96667 19.0667C9.96667 19.306 10.1607 19.5 10.4 19.5H20.8C21.0393 19.5 21.2333 19.306 21.2333 19.0667C21.2333 18.8274 21.0393 18.6334 20.8 18.6334Z" fill="#FF1F70"/>
<path d="M8.66664 16.0333H7.79997C7.56066 16.0333 7.36664 16.2274 7.36664 16.4667C7.36664 16.706 7.56066 16.9 7.79997 16.9H8.66664C8.90595 16.9 9.09997 16.706 9.09997 16.4667C9.09997 16.2274 8.90595 16.0333 8.66664 16.0333Z" fill="#FF1F70"/>
<path d="M20.8 16.0333H10.4C10.1607 16.0333 9.96667 16.2274 9.96667 16.4667C9.96667 16.706 10.1607 16.9 10.4 16.9H20.8C21.0393 16.9 21.2333 16.706 21.2333 16.4667C21.2333 16.2274 21.0393 16.0333 20.8 16.0333Z" fill="#FF1F70"/>
<path d="M8.66664 13.4333H7.79997C7.56066 13.4333 7.36664 13.6274 7.36664 13.8667C7.36664 14.106 7.56066 14.3 7.79997 14.3H8.66664C8.90595 14.3 9.09997 14.106 9.09997 13.8667C9.09997 13.6274 8.90595 13.4333 8.66664 13.4333Z" fill="#FF1F70"/>
<path d="M20.8 13.4333H10.4C10.1607 13.4333 9.96667 13.6274 9.96667 13.8667C9.96667 14.106 10.1607 14.3 10.4 14.3H20.8C21.0393 14.3 21.2333 14.106 21.2333 13.8667C21.2333 13.6274 21.0393 13.4333 20.8 13.4333Z" fill="#FF1F70"/>
<path d="M8.66664 10.8333H7.79997C7.56066 10.8333 7.36664 11.0273 7.36664 11.2666C7.36664 11.506 7.56066 11.7 7.79997 11.7H8.66664C8.90595 11.7 9.09997 11.506 9.09997 11.2666C9.09997 11.0273 8.90595 10.8333 8.66664 10.8333Z" fill="#FF1F70"/>
<path d="M20.8 10.8333H10.4C10.1607 10.8333 9.96667 11.0273 9.96667 11.2666C9.96667 11.506 10.1607 11.7 10.4 11.7H20.8C21.0393 11.7 21.2333 11.506 21.2333 11.2666C21.2333 11.0273 21.0393 10.8333 20.8 10.8333Z" fill="#FF1F70"/>
<path d="M8.66664 8.23334H7.79997C7.56066 8.23334 7.36664 8.42736 7.36664 8.66667C7.36664 8.90598 7.56066 9.1 7.79997 9.1H8.66664C8.90595 9.1 9.09997 8.90598 9.09997 8.66667C9.09997 8.42736 8.90595 8.23334 8.66664 8.23334Z" fill="#FF1F70"/>
<path d="M20.8 8.23334H10.4C10.1607 8.23334 9.96667 8.42736 9.96667 8.66667C9.96667 8.90598 10.1607 9.1 10.4 9.1H20.8C21.0393 9.1 21.2333 8.90598 21.2333 8.66667C21.2333 8.42736 21.0393 8.23334 20.8 8.23334Z" fill="#FF1F70"/>
<path d="M23.8277 6.4727C23.8256 6.43473 23.8181 6.39725 23.8056 6.36133C23.8009 6.34747 23.7974 6.33403 23.7913 6.3206C23.7702 6.27348 23.7409 6.23047 23.7047 6.19363L17.638 0.126967C17.6012 0.0907292 17.5581 0.0613708 17.511 0.0403C17.4976 0.0342333 17.4842 0.0307667 17.4707 0.026C17.4345 0.0135417 17.3967 0.00595833 17.3585 0.00346667C17.3511 0.00476667 17.3429 0 17.3334 0H5.20002C4.96071 0 4.76669 0.194025 4.76669 0.433333V1.73333H2.60002C2.36071 1.73333 2.16669 1.92736 2.16669 2.16667V25.5667C2.16669 25.806 2.36071 26 2.60002 26H20.8C21.0393 26 21.2334 25.806 21.2334 25.5667V23.4H23.4C23.6393 23.4 23.8334 23.206 23.8334 22.9667V6.5C23.8334 6.49047 23.8286 6.48223 23.8277 6.4727ZM17.7667 1.4794L22.354 6.06667H17.7667V1.4794ZM20.3667 25.1333H3.03335V2.6H4.76669V22.9667C4.76669 23.206 4.96071 23.4 5.20002 23.4H20.3667V25.1333ZM22.9667 22.5333H5.63335V0.866667H16.9V6.5C16.9 6.73931 17.094 6.93333 17.3334 6.93333H22.9667V22.5333Z" fill="#FF1F70"/>
<path d="M10.4 3.90002H7.79997C7.56066 3.90002 7.36664 4.09405 7.36664 4.33336V6.93336C7.36664 7.17267 7.56066 7.36669 7.79997 7.36669H10.4C10.6393 7.36669 10.8333 7.17267 10.8333 6.93336V4.33336C10.8333 4.09405 10.6393 3.90002 10.4 3.90002ZM9.96664 6.50002H8.2333V4.76669H9.96664V6.50002Z" fill="#FF1F70"/>
</svg>
