<svg width="679" height="395" viewBox="0 0 679 395" fill="none" xmlns="http://www.w3.org/2000/svg">
  <path d="M612.814 188.333C612.814 182.873 608.252 178.406 602.614 178.406H280.341C274.652 178.406 270.089 182.873 270.089 188.333C270.089 193.844 274.652 198.261 280.341 198.261H517.419C523.058 198.261 527.671 202.679 527.671 208.189C527.671 213.65 523.058 218.117 517.419 218.117H361.589C355.95 218.117 351.337 222.535 351.337 228.045C351.337 233.506 355.95 237.924 361.589 237.924H447.296C452.934 237.924 457.548 242.391 457.548 247.852C457.548 253.362 452.934 257.78 447.296 257.78H415.976C410.286 257.78 405.724 262.247 405.724 267.708C405.724 273.218 410.286 277.636 415.976 277.636H585.852C591.49 277.636 596.104 273.218 596.104 267.708C596.104 262.247 591.49 257.78 585.852 257.78H530.132C524.493 257.78 519.88 253.362 519.88 247.852C519.88 242.391 524.493 237.924 530.132 237.924H668.534C674.224 237.924 678.786 233.506 678.786 228.045C678.786 222.535 674.224 218.117 668.534 218.117H570.012C564.374 218.117 559.76 213.65 559.76 208.189C559.76 202.679 564.374 198.261 570.012 198.261H602.614C608.252 198.261 612.814 193.844 612.814 188.333Z" fill="#52C3FF" fill-opacity="0.15" />
  <path d="M57.7701 284.089C57.7701 278.579 62.3323 274.161 67.9709 274.161H340.008C345.698 274.161 350.26 278.579 350.26 284.089C350.26 289.549 345.698 294.017 340.008 294.017H208.526C202.888 294.017 198.274 298.435 198.274 303.895C198.274 309.405 202.888 313.823 208.526 313.823H364.357C369.995 313.823 374.609 318.291 374.609 323.751C374.609 329.261 369.995 333.679 364.357 333.679H278.65C273.011 333.679 268.398 338.146 268.398 343.607C268.398 349.067 273.011 353.535 278.65 353.535H309.97C315.66 353.535 320.222 357.953 320.222 363.463C320.222 368.923 315.66 373.391 309.97 373.391H140.094C134.455 373.391 129.842 368.923 129.842 363.463C129.842 357.953 134.455 353.535 140.094 353.535H195.814C201.452 353.535 206.066 349.067 206.066 343.607C206.066 338.146 201.452 333.679 195.814 333.679H10.252C4.56215 333.679 0 329.261 0 323.751C0 318.291 4.56215 313.823 10.252 313.823H100.572C106.211 313.823 110.824 309.405 110.824 303.895C110.824 298.435 106.211 294.017 100.572 294.017H67.9709C62.3323 294.017 57.7701 289.549 57.7701 284.089Z" fill="#52C3FF" fill-opacity="0.15" />
  <path d="M547.407 71.9281C547.407 66.7159 542.998 62.4469 537.616 62.4469H467.236C461.854 62.4469 457.445 66.7159 457.445 71.9281V196.921L547.407 109.853V71.9281Z" fill="url(#paint0_linear_809_3998)" />
  <path d="M457.445 196.921V207.991C457.445 213.203 461.854 217.423 467.236 217.423H537.616C542.998 217.423 547.407 213.203 547.407 207.991V109.853L457.445 196.921Z" fill="#FF1F70" />
  <path style="mix-blend-mode:multiply" opacity="0.4" d="M457.445 196.921V207.991C457.445 213.203 461.854 217.423 467.236 217.423H537.616C542.998 217.423 547.407 213.203 547.407 207.991V109.853L457.445 196.921Z" fill="#3949AB" />
  <path d="M463.391 191.163V199.602C463.391 201.538 465.032 203.126 467.082 203.126H537.77C539.82 203.126 541.46 201.538 541.46 199.602V115.611L463.391 191.163Z" fill="url(#paint1_linear_809_3998)" />
  <path style="mix-blend-mode:multiply" opacity="0.4" d="M463.391 191.163V199.602C463.391 201.538 465.032 203.126 467.082 203.126H537.77C539.82 203.126 541.46 201.538 541.46 199.602V115.611L463.391 191.163Z" fill="url(#paint2_linear_809_3998)" />
  <path d="M541.46 72.1763C541.46 70.2403 539.82 68.6519 537.77 68.6519H467.082C465.032 68.6519 463.391 70.2403 463.391 72.1763V191.163L541.46 115.611V72.1763Z" fill="url(#paint3_linear_809_3998)" />
  <path d="M525.621 176.718H479.231V168.031C479.231 164.457 480.307 160.932 482.358 157.954L493.533 141.523C495.839 138.098 495.839 133.63 493.533 130.205L482.358 113.824C480.307 110.796 479.231 107.321 479.231 103.698V95.0603H525.621V103.698C525.621 107.321 524.545 110.796 522.494 113.824L511.32 130.205C509.013 133.63 509.013 138.098 511.32 141.523L522.494 157.954C524.545 160.932 525.621 164.457 525.621 168.031V176.718Z" fill="#D9D9D9" />
  <path d="M526.339 182.278H478.513C476.924 182.278 475.643 181.037 475.643 179.498C475.643 177.959 476.924 176.718 478.513 176.718H526.339C527.928 176.718 529.21 177.959 529.21 179.498C529.21 181.037 527.928 182.278 526.339 182.278Z" fill="url(#paint4_linear_809_3998)" />
  <path d="M526.339 95.0603H478.513C476.924 95.0603 475.643 93.7697 475.643 92.2309C475.643 90.692 476.924 89.451 478.513 89.451H526.339C527.928 89.451 529.21 90.692 529.21 92.2309C529.21 93.7697 527.928 95.0603 526.339 95.0603Z" fill="url(#paint5_linear_809_3998)" />
  <path d="M511.217 125.589H493.635L484.613 112.385C482.87 109.803 481.948 106.825 481.948 103.698V97.6913H522.905V103.698C522.905 106.775 521.982 109.803 520.239 112.385L511.217 125.589Z" fill="black" fill-opacity="0.1" />
  <path style="mix-blend-mode:multiply" opacity="0.2" d="M511.32 130.205C509.013 133.63 509.013 138.098 511.32 141.523L522.495 157.954C524.545 160.932 525.621 164.457 525.621 168.031V176.718H519.009V168.031C519.009 162.968 518.137 159.046 516.087 156.018L508.603 142.218C506.296 138.793 509.013 133.63 511.32 130.205Z" fill="black" />
  <path d="M375.07 86.3237C364.306 86.3237 354.156 88.6568 344.981 92.7273C340.982 52.5687 306.074 21.1963 263.58 21.1963C224.776 21.1963 192.328 47.3565 183.87 82.4518C175.31 77.885 165.416 75.3037 154.908 75.3037C121.538 75.3037 94.4725 101.514 94.4725 133.829H91.6019C65.4592 133.829 44.2888 154.33 44.2888 179.696C44.2888 205.013 65.4592 225.514 91.6019 225.514H375.07C414.746 225.514 446.937 194.34 446.937 155.919C446.937 117.498 414.746 86.3237 375.07 86.3237Z" fill="#52C3FF" fill-opacity="0.15" />
  <path d="M503.118 344.947H175.668V166.889C175.668 160.585 180.948 155.472 187.458 155.472H491.328C497.838 155.472 503.118 160.585 503.118 166.889V344.947Z" fill="url(#paint6_linear_809_3998)" />
  <path style="mix-blend-mode:multiply" opacity="0.4" d="M503.118 344.947H175.668V338.296H503.118V344.947Z" fill="url(#paint7_linear_809_3998)" />
  <path d="M379.325 344.947V351.996H299.462V344.947H151.884C156.343 354.825 166.442 361.229 177.565 361.229H501.221C512.345 361.229 522.443 354.825 526.903 344.947H379.325Z" fill="url(#paint8_linear_809_3998)" />
  <path d="M494.353 329.708H184.434V170.215C184.434 166.79 187.253 164.06 190.79 164.06H487.996C491.533 164.06 494.353 166.79 494.353 170.215V329.708Z" fill="url(#paint9_linear_809_3998)" />
  <g style="mix-blend-mode:multiply" opacity="0.4">
    <path d="M487.996 164.06H457.496L286.441 329.708H494.352V170.215C494.352 166.79 491.533 164.06 487.996 164.06Z" fill="black" fill-opacity="0.2" />
  </g>
  <path d="M245.638 125.589V243.98C245.638 251.922 252.251 258.326 260.453 258.326H422.332C429.816 258.326 435.916 252.419 435.916 245.121V153.139C435.916 145.842 429.816 139.935 422.332 139.935L268.295 135.12C260.145 135.12 245.638 133.531 245.638 125.589Z" fill="url(#paint10_linear_809_3998)" />
  <g style="mix-blend-mode:multiply" opacity="0.2">
    <path d="M422.332 139.935L420.538 139.885L298.282 258.326H422.332C429.816 258.326 435.916 252.419 435.916 245.121V153.139C435.916 145.842 429.816 139.935 422.332 139.935Z" fill="url(#paint11_linear_809_3998)" />
  </g>
  <path d="M422.588 139.935H260.453C252.251 139.935 245.638 133.531 245.638 125.589C245.638 117.646 252.251 111.243 260.453 111.243H409.004C416.54 111.243 422.588 117.15 422.588 124.447V139.935Z" fill="#AC0C46" />
  <path d="M259.684 133.928C253.276 133.928 247.791 130.007 245.69 124.546C245.656 124.877 245.638 125.225 245.638 125.589C245.638 133.531 252.251 139.935 260.453 139.935H422.588V133.928H259.684Z" fill="#FF4F8E" />
  <path d="M406.288 217.323H435.096C438.581 217.323 441.35 214.593 441.35 211.218V187.639C441.35 184.313 438.581 181.583 435.096 181.583H406.288C396.087 181.583 387.834 189.575 387.834 199.453C387.834 209.331 396.087 217.323 406.288 217.323Z" fill="white" />
  <path d="M421.661 200.861C421.661 208.108 415.561 213.966 408.077 213.966C400.593 213.966 394.544 208.108 394.544 200.861C394.544 193.613 400.593 187.706 408.077 187.706C415.561 187.706 421.661 193.613 421.661 200.861Z" fill="black" fill-opacity="0.25" />
  <path d="M416.709 201.135C416.709 205.603 412.967 209.226 408.353 209.226C403.74 209.226 400.049 205.603 400.049 201.135C400.049 196.668 403.74 193.044 408.353 193.044C412.967 193.044 416.709 196.668 416.709 201.135Z" fill="url(#paint12_linear_809_3998)" />
  <path d="M383.99 102.655C383.99 78.8281 363.998 59.5182 339.393 59.5182C314.789 59.5182 294.797 78.8281 294.797 102.655C294.797 114.966 300.128 126.085 308.689 133.928H370.098C378.659 126.085 383.99 114.966 383.99 102.655Z" fill="#FF4F8E" />
  <path d="M377.428 102.655C377.428 82.3525 360.41 65.8224 339.393 65.8224C318.377 65.8224 301.358 82.3525 301.358 102.655C301.358 115.859 308.535 127.425 319.299 133.928H359.487C370.252 127.425 377.428 115.859 377.428 102.655Z" fill="#FF1F70" />
  <g filter="url(#filter0_d_809_3998)">
    <path d="M551.405 362.718C544.434 356.861 524.75 352.641 501.529 352.641C478.308 352.641 458.624 356.861 451.653 362.718H448.936V372.051C448.936 380.191 472.516 386.794 501.529 386.794C530.593 386.794 554.122 380.191 554.122 372.051V362.718H551.405Z" fill="#FF4F8E" />
  </g>
  <path opacity="0.3" d="M456.676 379.745C459.547 381.085 463.186 382.276 467.39 383.269V356.215C463.186 357.208 459.547 358.4 456.676 359.74V379.745Z" fill="white" />
  <path opacity="0.3" d="M534.899 383.468C539.051 382.525 542.64 381.383 545.613 380.092V359.343C542.64 358.102 539.051 356.96 534.899 356.017V383.468Z" fill="white" />
  <path opacity="0.3" d="M473.131 384.461C475.01 384.792 476.992 385.106 479.077 385.404V354.081C476.992 354.346 475.01 354.66 473.131 355.024V384.461Z" fill="white" />
  <path opacity="0.3" d="M526.646 385.007C528.697 384.709 530.679 384.361 532.593 383.964V355.521C530.679 355.123 528.697 354.759 526.646 354.428V385.007Z" fill="white" />
  <path opacity="0.3" d="M482.05 385.751C483.212 385.884 484.391 386 485.587 386.099V354.081H482.05V385.751Z" fill="white" />
  <path d="M554.122 362.718C554.122 370.859 530.593 377.461 501.529 377.461C472.516 377.461 448.936 370.859 448.936 362.718C448.936 354.577 472.516 347.975 501.529 347.975C530.593 347.975 554.122 354.577 554.122 362.718Z" fill="#FF1F70" />
  <g filter="url(#filter1_d_809_3998)">
    <path d="M551.405 343.309C544.434 337.451 524.75 333.282 501.529 333.282C478.308 333.282 458.624 337.451 451.653 343.309H448.936V352.641C448.936 360.782 472.516 367.384 501.529 367.384C530.593 367.384 554.122 360.782 554.122 352.641V343.309H551.405Z" fill="#FF4F8E" />
  </g>
  <path opacity="0.3" d="M456.676 360.336C459.547 361.676 463.186 362.867 467.39 363.86V336.806C463.186 337.799 459.547 338.99 456.676 340.331V360.336Z" fill="white" />
  <path opacity="0.3" d="M534.899 364.058C539.051 363.115 542.64 361.973 545.613 360.732V339.933C542.64 338.692 539.051 337.551 534.899 336.608V364.058Z" fill="white" />
  <path opacity="0.3" d="M473.131 365.051C475.01 365.382 476.992 365.696 479.077 365.994V334.672C476.992 334.936 475.01 335.251 473.131 335.615V365.051Z" fill="white" />
  <path opacity="0.3" d="M526.646 365.597C528.697 365.3 530.679 364.952 532.593 364.555V336.111C530.679 335.714 528.697 335.367 526.646 335.069V365.597Z" fill="white" />
  <path opacity="0.3" d="M482.05 366.342C483.212 366.474 484.391 366.59 485.587 366.689V334.672H482.05V366.342Z" fill="white" />
  <path d="M554.122 343.309C554.122 351.45 530.593 358.052 501.529 358.052C472.516 358.052 448.936 351.45 448.936 343.309C448.936 335.168 472.516 328.566 501.529 328.566C530.593 328.566 554.122 335.168 554.122 343.309Z" fill="#FF1F70" />
  <g filter="url(#filter2_d_809_3998)">
    <path d="M551.405 323.9C544.434 318.043 524.75 313.873 501.529 313.873C478.308 313.873 458.624 318.043 451.653 323.9H448.936V333.282C448.936 341.373 472.516 347.975 501.529 347.975C530.593 347.975 554.122 341.373 554.122 333.282V323.9H551.405Z" fill="#FF4F8E" />
  </g>
  <path opacity="0.3" d="M456.676 340.926C459.547 342.267 463.186 343.458 467.39 344.451V317.397C463.186 318.39 459.547 319.581 456.676 320.922V340.926Z" fill="white" />
  <path opacity="0.3" d="M534.899 344.649C539.051 343.706 542.64 342.565 545.613 341.324V320.524C542.64 319.283 539.051 318.142 534.899 317.199V344.649Z" fill="white" />
  <path opacity="0.3" d="M473.131 345.642C475.01 346.006 476.992 346.321 479.077 346.585V315.263C476.992 315.527 475.01 315.842 473.131 316.206V345.642Z" fill="white" />
  <path opacity="0.3" d="M526.646 346.188C528.697 345.89 530.679 345.543 532.593 345.146V316.702C530.679 316.305 528.697 315.958 526.646 315.66V346.188Z" fill="white" />
  <path opacity="0.3" d="M482.05 346.933C483.212 347.065 484.391 347.181 485.587 347.28V315.263H482.05V346.933Z" fill="white" />
  <path d="M554.122 323.9C554.122 332.041 530.593 338.643 501.529 338.643C472.516 338.643 448.936 332.041 448.936 323.9C448.936 315.759 472.516 309.157 501.529 309.157C530.593 309.157 554.122 315.759 554.122 323.9Z" fill="#FF1F70" />
  <g filter="url(#filter3_d_809_3998)">
    <path d="M551.405 304.491C544.434 298.683 524.75 294.464 501.529 294.464C478.308 294.464 458.624 298.683 451.653 304.491H448.936V313.873C448.936 322.014 472.516 328.566 501.529 328.566C530.593 328.566 554.122 322.014 554.122 313.873V304.491H551.405Z" fill="#FF4F8E" />
  </g>
  <path opacity="0.3" d="M456.676 321.517C459.547 322.858 463.186 324.049 467.39 325.042V297.988C463.186 298.981 459.547 300.172 456.676 301.513V321.517Z" fill="white" />
  <path opacity="0.3" d="M534.899 325.24C539.051 324.297 542.64 323.156 545.613 321.915V301.116C542.64 299.875 539.051 298.733 534.899 297.79V325.24Z" fill="white" />
  <path opacity="0.3" d="M473.131 326.233C475.01 326.597 476.992 326.912 479.077 327.176V295.854C476.992 296.118 475.01 296.433 473.131 296.797V326.233Z" fill="white" />
  <path opacity="0.3" d="M526.646 326.779C528.697 326.481 530.679 326.134 532.593 325.737V297.293C530.679 296.896 528.697 296.548 526.646 296.251V326.779Z" fill="white" />
  <path opacity="0.3" d="M482.05 327.524C483.212 327.656 484.391 327.772 485.587 327.871V295.854H482.05V327.524Z" fill="white" />
  <path d="M554.122 304.491C554.122 312.632 530.593 319.234 501.529 319.234C472.516 319.234 448.936 312.632 448.936 304.491C448.936 296.35 472.516 289.797 501.529 289.797C530.593 289.797 554.122 296.35 554.122 304.491Z" fill="#FF1F70" />
  <path d="M288.748 35.5918C288.748 55.2491 272.242 71.1835 251.943 71.1835C231.644 71.1835 215.19 55.2491 215.19 35.5918C215.19 15.9344 231.644 0 251.943 0C272.242 0 288.748 15.9344 288.748 35.5918Z" fill="#FF4F8E" />
  <path d="M283.315 35.5917C283.315 52.37 269.269 65.9713 251.943 65.9713C234.618 65.9713 220.572 52.37 220.572 35.5917C220.572 18.8135 234.618 5.21216 251.943 5.21216C269.269 5.21216 283.315 18.8135 283.315 35.5917Z" fill="#FF1F70" />
  <path d="M326.292 105.948C325.068 106.114 322.906 106.6 321.146 108.2C320.065 109.174 318.229 111.399 319.051 112.703C319.386 113.242 320.132 113.555 320.764 113.572C321.586 113.59 321.978 113.094 323.432 112.19C325.135 111.121 325.403 111.303 325.91 110.808C326.407 110.321 327.239 109.095 326.292 105.957V105.948Z" fill="white" />
  <path d="M342.403 105.683C342.356 105.103 342.394 104.602 342.44 104.197C341.985 103.819 341.436 103.3 340.86 102.641C339.299 100.829 338.528 98.9557 337.896 97.3815C337.023 95.2005 337.274 95.0597 336.605 94.0572C335.452 92.3423 333.835 91.4716 333.092 91.0759C332.061 90.5394 330.63 89.7919 328.836 89.8534C327.052 89.915 326.179 90.7417 323.651 92.1312C322.369 92.8347 320.445 93.8109 317.918 94.7607C318.605 95.262 319.739 95.948 321.254 96.159C323.168 96.4317 323.939 95.7193 324.952 96.335C326.262 97.1264 325.983 98.9293 327.359 99.3163C327.498 99.3514 327.888 99.4658 328.288 99.3163C329.18 98.982 328.985 97.7948 329.765 97.0385C330.537 96.291 331.977 96.2382 332.916 96.5108C334.551 96.9945 334.681 98.4984 336.614 100.89C338.593 103.327 339.058 102.509 340.126 104.215C341.836 106.932 340.842 109.289 343.091 111.576C343.286 111.778 343.918 112.42 344.196 112.279C344.577 112.086 344.113 110.556 343.592 109.131C342.533 107.275 342.412 105.683 342.412 105.683H342.403Z" fill="white" />
  <path d="M361.769 106.075C356.887 100.453 344.092 104.139 342.874 104.5C342.642 104.315 342.344 104.078 342.019 103.788C342.158 103.911 342.288 104.025 342.409 104.131C342.363 104.535 342.326 105.037 342.372 105.617C342.372 105.617 342.502 107.21 343.553 109.066C343.748 109.585 343.925 110.122 344.064 110.606C343.897 110.016 343.655 109.339 343.423 108.714C343.925 108.494 344.762 108.142 345.831 107.834C349.104 106.893 351.605 107.157 359.909 107.658C361.304 107.746 362.41 107.808 362.875 107.834C362.568 107.148 362.187 106.568 361.769 106.084V106.075Z" fill="white" />
  <path d="M499.819 298.482C499.649 298.111 499.147 297.455 497.497 296.921C496.493 296.593 494.197 296.036 492.852 296.285C492.296 296.387 491.974 296.613 491.956 296.805C491.938 297.054 492.449 297.173 493.381 297.614C494.484 298.131 494.296 298.212 494.807 298.366C495.309 298.517 496.573 298.769 499.81 298.482L499.819 298.482Z" fill="white" />
  <path d="M500.092 303.37C500.691 303.356 501.208 303.367 501.625 303.381C502.015 303.243 502.55 303.077 503.231 302.902C505.099 302.428 507.031 302.194 508.655 302.003C510.904 301.738 511.05 301.814 512.084 301.611C513.852 301.261 514.75 300.771 515.159 300.545C515.712 300.232 516.483 299.798 516.419 299.254C516.356 298.713 515.503 298.447 514.07 297.681C513.344 297.292 512.338 296.708 511.358 295.941C510.841 296.15 510.133 296.494 509.916 296.953C509.635 297.534 510.369 297.768 509.734 298.075C508.918 298.473 507.058 298.388 506.659 298.806C506.623 298.848 506.505 298.966 506.659 299.087C507.004 299.358 508.229 299.299 509.009 299.536C509.78 299.77 509.834 300.207 509.553 300.492C509.054 300.988 507.503 301.027 505.036 301.614C502.523 302.214 503.367 302.355 501.607 302.679C498.804 303.198 496.373 302.896 494.015 303.579C493.806 303.638 493.144 303.83 493.289 303.914C493.489 304.03 495.067 303.889 496.536 303.731C498.45 303.41 500.092 303.373 500.092 303.373L500.092 303.37Z" fill="white" />
  <path d="M499.689 309.246C505.487 307.765 501.685 303.883 501.313 303.513C501.503 303.443 501.748 303.352 502.048 303.254C501.921 303.296 501.803 303.335 501.694 303.372C501.276 303.358 500.759 303.347 500.16 303.361C500.16 303.361 498.518 303.4 496.604 303.719C496.068 303.778 495.515 303.832 495.016 303.874C495.624 303.824 496.322 303.75 496.966 303.68C497.193 303.832 497.556 304.086 497.874 304.41C498.845 305.403 498.573 306.162 498.055 308.682C497.965 309.105 497.901 309.441 497.874 309.582C498.582 309.489 499.18 309.373 499.679 309.246L499.689 309.246Z" fill="white" />
  <path d="M242.074 39.6067C241.024 39.7484 239.17 40.1659 237.66 41.5379C236.733 42.373 235.158 44.2818 235.863 45.4004C236.151 45.8626 236.79 46.1311 237.332 46.146C238.038 46.1609 238.374 45.7359 239.621 44.9604C241.081 44.0433 241.311 44.1999 241.746 43.7748C242.173 43.3573 242.886 42.3059 242.074 39.6141V39.6067Z" fill="white" />
  <path d="M255.893 39.3795C255.853 38.8817 255.885 38.4517 255.925 38.1047C255.534 37.7803 255.064 37.3352 254.57 36.7695C253.231 35.2156 252.569 33.6089 252.027 32.2586C251.278 30.3879 251.493 30.2672 250.919 29.4072C249.931 27.9363 248.544 27.1895 247.907 26.85C247.022 26.3899 245.795 25.7487 244.256 25.8015C242.726 25.8543 241.977 26.5634 239.809 27.7552C238.709 28.3587 237.059 29.196 234.891 30.0107C235.481 30.4407 236.453 31.029 237.752 31.2101C239.394 31.4439 240.056 30.8329 240.925 31.361C242.048 32.0398 241.809 33.5862 242.989 33.9181C243.108 33.9483 243.443 34.0464 243.786 33.9181C244.551 33.6315 244.384 32.6131 245.053 31.9644C245.715 31.3233 246.95 31.278 247.755 31.5118C249.158 31.9267 249.27 33.2166 250.927 35.2684C252.625 37.3579 253.024 36.6563 253.94 38.1197C255.407 40.4507 254.554 42.4722 256.483 44.4335C256.65 44.607 257.192 45.1577 257.431 45.037C257.758 44.871 257.359 43.5585 256.913 42.3365C256.005 40.7448 255.901 39.3795 255.901 39.3795H255.893Z" fill="white" />
  <path d="M272.504 39.7152C268.317 34.8934 257.342 38.0551 256.297 38.3645C256.098 38.206 255.843 38.0023 255.563 37.7533C255.683 37.8589 255.795 37.957 255.898 38.0476C255.859 38.3947 255.827 38.8248 255.867 39.3228C255.867 39.3228 255.978 40.6886 256.879 42.2808C257.047 42.7259 257.198 43.1862 257.318 43.6013C257.175 43.0957 256.967 42.5147 256.768 41.9789C257.198 41.7903 257.916 41.4884 258.833 41.2243C261.641 40.417 263.786 40.6433 270.909 41.0734C272.105 41.1489 273.054 41.2017 273.453 41.2243C273.19 40.6358 272.863 40.1378 272.504 39.7228V39.7152Z" fill="white" />
  <defs>
    <filter id="filter0_d_809_3998" x="444.936" y="352.641" width="113.186" height="42.1522" filterUnits="userSpaceOnUse" color-interpolation-filters="sRGB">
      <feFlood flood-opacity="0" result="BackgroundImageFix" />
      <feColorMatrix in="SourceAlpha" type="matrix" values="0 0 0 0 0 0 0 0 0 0 0 0 0 0 0 0 0 0 127 0" result="hardAlpha" />
      <feOffset dy="4" />
      <feGaussianBlur stdDeviation="2" />
      <feComposite in2="hardAlpha" operator="out" />
      <feColorMatrix type="matrix" values="0 0 0 0 0 0 0 0 0 0 0 0 0 0 0 0 0 0 0.25 0" />
      <feBlend mode="normal" in2="BackgroundImageFix" result="effect1_dropShadow_809_3998" />
      <feBlend mode="normal" in="SourceGraphic" in2="effect1_dropShadow_809_3998" result="shape" />
    </filter>
    <filter id="filter1_d_809_3998" x="444.936" y="333.282" width="113.186" height="42.1025" filterUnits="userSpaceOnUse" color-interpolation-filters="sRGB">
      <feFlood flood-opacity="0" result="BackgroundImageFix" />
      <feColorMatrix in="SourceAlpha" type="matrix" values="0 0 0 0 0 0 0 0 0 0 0 0 0 0 0 0 0 0 127 0" result="hardAlpha" />
      <feOffset dy="4" />
      <feGaussianBlur stdDeviation="2" />
      <feComposite in2="hardAlpha" operator="out" />
      <feColorMatrix type="matrix" values="0 0 0 0 0 0 0 0 0 0 0 0 0 0 0 0 0 0 0.25 0" />
      <feBlend mode="normal" in2="BackgroundImageFix" result="effect1_dropShadow_809_3998" />
      <feBlend mode="normal" in="SourceGraphic" in2="effect1_dropShadow_809_3998" result="shape" />
    </filter>
    <filter id="filter2_d_809_3998" x="444.936" y="313.873" width="113.186" height="42.1025" filterUnits="userSpaceOnUse" color-interpolation-filters="sRGB">
      <feFlood flood-opacity="0" result="BackgroundImageFix" />
      <feColorMatrix in="SourceAlpha" type="matrix" values="0 0 0 0 0 0 0 0 0 0 0 0 0 0 0 0 0 0 127 0" result="hardAlpha" />
      <feOffset dy="4" />
      <feGaussianBlur stdDeviation="2" />
      <feComposite in2="hardAlpha" operator="out" />
      <feColorMatrix type="matrix" values="0 0 0 0 0 0 0 0 0 0 0 0 0 0 0 0 0 0 0.25 0" />
      <feBlend mode="normal" in2="BackgroundImageFix" result="effect1_dropShadow_809_3998" />
      <feBlend mode="normal" in="SourceGraphic" in2="effect1_dropShadow_809_3998" result="shape" />
    </filter>
    <filter id="filter3_d_809_3998" x="444.936" y="294.464" width="113.186" height="42.1025" filterUnits="userSpaceOnUse" color-interpolation-filters="sRGB">
      <feFlood flood-opacity="0" result="BackgroundImageFix" />
      <feColorMatrix in="SourceAlpha" type="matrix" values="0 0 0 0 0 0 0 0 0 0 0 0 0 0 0 0 0 0 127 0" result="hardAlpha" />
      <feOffset dy="4" />
      <feGaussianBlur stdDeviation="2" />
      <feComposite in2="hardAlpha" operator="out" />
      <feColorMatrix type="matrix" values="0 0 0 0 0 0 0 0 0 0 0 0 0 0 0 0 0 0 0.25 0" />
      <feBlend mode="normal" in2="BackgroundImageFix" result="effect1_dropShadow_809_3998" />
      <feBlend mode="normal" in="SourceGraphic" in2="effect1_dropShadow_809_3998" result="shape" />
    </filter>
    <linearGradient id="paint0_linear_809_3998" x1="395.261" y1="217.441" x2="395.261" y2="62.4687" gradientUnits="userSpaceOnUse">
      <stop stop-color="#FF1F70" />
    </linearGradient>
    <linearGradient id="paint1_linear_809_3998" x1="450.081" y1="203.111" x2="450.081" y2="68.6359" gradientUnits="userSpaceOnUse">
      <stop stop-color="#F0F0F0" />
      <stop offset="1" stop-color="white" />
    </linearGradient>
    <linearGradient id="paint2_linear_809_3998" x1="450.081" y1="203.111" x2="450.081" y2="68.6359" gradientUnits="userSpaceOnUse">
      <stop stop-color="#F0F0F0" />
      <stop offset="1" stop-color="white" />
    </linearGradient>
    <linearGradient id="paint3_linear_809_3998" x1="399.864" y1="203.111" x2="399.864" y2="68.6355" gradientUnits="userSpaceOnUse">
      <stop stop-color="#F0F0F0" />
      <stop offset="1" stop-color="white" />
    </linearGradient>
    <linearGradient id="paint4_linear_809_3998" x1="475.656" y1="182.293" x2="529.2" y2="182.293" gradientUnits="userSpaceOnUse">
      <stop offset="1" stop-color="#FF1F70" />
    </linearGradient>
    <linearGradient id="paint5_linear_809_3998" x1="475.656" y1="95.0355" x2="529.2" y2="95.0355" gradientUnits="userSpaceOnUse">
      <stop offset="1" stop-color="#FF1F70" />
    </linearGradient>
    <linearGradient id="paint6_linear_809_3998" x1="280.924" y1="344.952" x2="280.924" y2="155.457" gradientUnits="userSpaceOnUse">
      <stop stop-color="#E10F5B" />
    </linearGradient>
    <linearGradient id="paint7_linear_809_3998" x1="175.671" y1="338.287" x2="503.116" y2="338.287" gradientUnits="userSpaceOnUse">
      <stop stop-color="#3949AB" />
      <stop offset="1" stop-color="#5C6BC0" />
    </linearGradient>
    <linearGradient id="paint8_linear_809_3998" x1="151.893" y1="344.952" x2="526.894" y2="344.952" gradientUnits="userSpaceOnUse">
      <stop stop-color="#FF1F70" />
    </linearGradient>
    <linearGradient id="paint9_linear_809_3998" x1="292.173" y1="329.717" x2="292.173" y2="164.038" gradientUnits="userSpaceOnUse">
      <stop stop-color="#D9D9D9" />
      <stop offset="1" stop-color="white" />
    </linearGradient>
    <linearGradient id="paint10_linear_809_3998" x1="245.615" y1="125.598" x2="435.926" y2="125.598" gradientUnits="userSpaceOnUse">
      <stop offset="1" stop-color="#FF1F70" />
    </linearGradient>
    <linearGradient id="paint11_linear_809_3998" x1="245.615" y1="139.9" x2="435.926" y2="139.9" gradientUnits="userSpaceOnUse">
      <stop stop-color="#3949AB" />
      <stop offset="1" stop-color="#5C6BC0" />
    </linearGradient>
    <linearGradient id="paint12_linear_809_3998" x1="408.368" y1="184.98" x2="424.51" y2="201.649" gradientUnits="userSpaceOnUse">
      <stop offset="1" stop-color="#FF1F70" />
    </linearGradient>
  </defs>
</svg>