<svg width="425" height="425" viewBox="0 0 425 425" fill="none" xmlns="http://www.w3.org/2000/svg">
<circle cx="212.5" cy="212.5" r="212.5" fill="#E64680"/>
<circle cx="212.5" cy="212.5" r="183.5" fill="#E71D66"/>
<path d="M153.046 233.393C147.191 234.208 136.853 236.609 128.436 244.499C123.267 249.301 114.484 260.278 118.418 266.711C120.019 269.369 123.587 270.912 126.606 270.998C130.54 271.084 132.415 268.64 139.369 264.181C147.511 258.906 148.792 259.807 151.216 257.363C153.595 254.962 157.575 248.916 153.046 233.436V233.393Z" fill="white"/>
<path d="M230.096 232.099C229.874 229.237 230.052 226.764 230.274 224.769C228.096 222.903 225.474 220.344 222.719 217.091C215.253 208.154 211.565 198.915 208.543 191.15C204.366 180.392 205.566 179.698 202.366 174.753C196.856 166.294 189.124 161.999 185.568 160.047C180.636 157.401 173.792 153.714 165.215 154.018C156.683 154.321 152.506 158.399 140.419 165.253C134.286 168.723 125.087 173.538 113 178.223C116.288 180.696 121.71 184.079 128.953 185.12C138.108 186.465 141.796 182.951 146.64 185.988C152.906 189.892 151.573 198.785 158.15 200.693C158.816 200.867 160.683 201.431 162.594 200.693C166.86 199.045 165.927 193.189 169.659 189.458C173.348 185.771 180.236 185.511 184.724 186.855C192.545 189.241 193.167 196.659 202.411 208.458C211.876 220.474 214.098 216.44 219.208 224.855C227.385 238.259 222.63 249.885 233.384 261.163C234.318 262.161 237.339 265.328 238.672 264.634C240.495 263.679 238.273 256.131 235.784 249.104C230.718 239.951 230.14 232.099 230.14 232.099H230.096Z" fill="white"/>
<path d="M322.708 234.027C299.363 206.299 238.174 224.481 232.349 226.26C231.237 225.348 229.814 224.177 228.258 222.745C228.925 223.352 229.547 223.916 230.125 224.437C229.903 226.433 229.725 228.907 229.947 231.77C229.947 231.77 230.57 239.625 235.595 248.781C236.529 251.341 237.374 253.988 238.041 256.375C237.24 253.467 236.084 250.126 234.972 247.045C237.374 245.96 241.376 244.224 246.49 242.705C262.142 238.063 274.104 239.364 313.815 241.838C320.485 242.272 325.777 242.576 328 242.705C326.533 239.321 324.71 236.457 322.708 234.071V234.027Z" fill="white"/>
</svg>
