<svg xmlns:xlink="http://www.w3.org/1999/xlink"   viewBox="0 0 68 24" fill="none" xmlns="http://www.w3.org/2000/svg" class="hel-mb-10 hel-h-[24px] lg:hel-block xl:hel-ml-6 hel-hidden pointer-events-none" style="width: 67px;" width="1"  height="1" ><path d="M10.805 23.454v-9.736c0-2.22-1.158-2.916-2.975-2.916a4.635 4.635 0 0 0-3.632 1.89v10.762H0V1.364h4.198v8.18a7.382 7.382 0 0 1 5.615-2.486C13.314 7.058 15 8.98 15 12.095v11.36h-4.195ZM25.848 23.727c-4.861 0-8.393-3.364-8.393-8.592 0-5.227 3.442-8.59 8.393-8.59 4.83 0 8.242 3.275 8.242 8.23a9.772 9.772 0 0 1-.12 1.622H21.742c.211 2.463 1.902 3.845 4.025 3.845 1.812 0 2.808-.901 3.352-2.003h4.559c-.906 3.055-3.684 5.488-7.83 5.488Zm-4.076-10.152h7.95c-.06-2.193-1.81-3.575-3.985-3.575-2.023 0-3.623 1.292-3.955 3.575h-.01ZM36.273 1.364h4.09v22.09h-4.09V1.364ZM43.09 2.453C43.09 1.077 44.179 0 45.688 0c1.51 0 2.586 1.067 2.586 2.453 0 1.387-1.117 2.454-2.596 2.454-1.48 0-2.586-1.087-2.586-2.454Zm.454 4.429h4.226v16.572h-4.226V6.882Z" fill="#FFFFFF"></path><path d="M63.854 14.727a4.96 4.96 0 0 0-9.902 0h-3.77a8.727 8.727 0 0 1 17.454 0h-3.782ZM59.093 24a8.629 8.629 0 0 1-4.621-1.342 8.707 8.707 0 0 1-3.2-3.613l3.392-1.59a4.945 4.945 0 0 0 1.77 2.004 4.903 4.903 0 0 0 6.988-1.813l3.396 1.593a8.744 8.744 0 0 1-3.2 3.471A8.67 8.67 0 0 1 59.093 24Z" fill="#E17231"></path></svg>