<svg viewBox="0 0 302 57" fill="currentColor"
  xmlns="http://www.w3.org/2000/svg">
  <g>
    <path
      d="M46.9226 0.293945L28.5585 10.4448V42.126L18.426 47.7788L8.23156 42.1214V30.8105L18.426 25.2079L24.9809 28.8666V19.7153L18.3688 16.1024L0.00933838 26.3678V46.674L18.4307 56.8844L36.7901 46.674V14.9975L46.9848 9.3398L57.1743 14.9975V26.2578L46.9848 31.9659L40.3725 28.2751V37.3806L46.9226 41.0162L65.4632 30.8656V10.4448L46.9226 0.293945Z"
      fill="#6C00F6" />
    <path fill-rule="evenodd" clip-rule="evenodd"
      d="M155.089 44.2766H163.321V0.849121H155.089V44.2766ZM102.168 13.407C106.07 13.407 109.305 14.9153 111.863 17.9276C114.425 20.9398 115.702 24.6765 115.702 29.1375C115.702 33.5985 114.421 37.3352 111.863 40.3474C109.3 43.3596 106.07 44.868 102.168 44.868C99.4054 44.868 97.0046 44.0472 94.9752 42.4016C92.9839 40.7187 91.5212 38.4492 90.5828 35.5929V56.0137H82.3513V13.9938H90.5828V22.6775C91.5165 19.8211 92.9839 17.57 94.9752 15.9286C97.0093 14.246 99.4054 13.407 102.168 13.407ZM99.1769 37.647C101.411 37.647 103.302 36.8444 104.846 35.24C106.389 33.5985 107.161 31.5629 107.161 29.1375C107.161 26.7121 106.389 24.7544 104.846 23.1497C103.302 21.5083 101.411 20.6831 99.1769 20.6831C96.6949 20.6831 94.6466 21.4854 93.0172 23.0901C91.3929 24.6948 90.578 26.7075 90.578 29.1329C90.578 31.5583 91.3929 33.5939 93.0172 35.2354C94.6415 36.8398 96.6949 37.6424 99.1769 37.6424V37.647ZM117.889 29.1375C117.889 33.5985 119.494 37.3352 122.705 40.3474C125.916 43.3596 129.922 44.868 134.719 44.868C139.516 44.868 143.522 43.3596 146.733 40.3474C149.944 37.3352 151.549 33.5985 151.549 29.1375C151.549 24.6765 149.944 20.9398 146.733 17.9276C143.522 14.9153 139.516 13.407 134.719 13.407C129.922 13.407 125.916 14.9153 122.705 17.9276C119.494 20.9398 117.889 24.6765 117.889 29.1375ZM128.803 35.24C127.216 33.5985 126.425 31.5629 126.425 29.1375C126.425 26.7121 127.216 24.7544 128.803 23.1497C130.389 21.5083 132.361 20.6831 134.719 20.6831C137.077 20.6831 139.049 21.4854 140.635 23.0901C142.222 24.6948 143.013 26.7075 143.013 29.1329C143.013 31.5583 142.222 33.5939 140.635 35.2354C139.049 36.8398 137.077 37.6424 134.719 37.6424C132.361 37.6424 130.389 36.8398 128.803 35.2354V35.24ZM239.369 40.3474C236.158 37.3352 234.553 33.5985 234.553 29.1375C234.553 24.6765 236.158 20.9398 239.369 17.9276C242.58 14.9153 246.586 13.407 251.383 13.407C256.181 13.407 260.187 14.9153 263.397 17.9276C266.608 20.9398 268.214 24.6765 268.214 29.1375C268.214 33.5985 266.608 37.3352 263.397 40.3474C260.187 43.3596 256.181 44.868 251.383 44.868C246.586 44.868 242.585 43.3596 239.369 40.3474ZM243.085 29.1375C243.085 31.5629 243.876 33.5985 245.462 35.24C247.048 36.8444 249.021 37.647 251.379 37.647C253.737 37.647 255.709 36.8444 257.295 35.24C258.881 33.5985 259.672 31.5629 259.672 29.1375C259.672 26.7121 258.881 24.6948 257.295 23.0947C255.709 21.49 253.737 20.6877 251.379 20.6877C249.021 20.6877 247.048 21.5083 245.462 23.1543C243.876 24.759 243.085 26.7534 243.085 29.1421V29.1375ZM290.122 13.407C293.619 13.407 296.425 14.5807 298.535 16.9281C300.688 19.2755 301.765 22.2694 301.765 25.9052V44.272H293.533V27.3127C293.533 25.355 292.885 23.7503 291.58 22.4987C290.279 21.247 288.655 20.6189 286.702 20.6189C284.506 20.6189 282.719 21.247 281.338 22.4987C279.956 23.7503 279.266 25.355 279.266 27.3127V44.272H271.034V13.9938H279.266V21.7422C280.08 19.1609 281.443 17.1253 283.353 15.6398C285.306 14.1543 287.559 13.4115 290.122 13.4115V13.407ZM183.095 36.2026L191.508 14.0213H199.863L182.547 56.0411H174.192L178.584 45.3585L165.717 14.0213H174.62L183.095 36.2026ZM223.273 13.9938V21.5817C221.557 16.6301 217.322 13.9938 211.687 13.9938C203.179 13.9938 198.148 21.1462 198.148 28.6653C198.148 36.1843 203.141 43.9237 211.687 43.9237C217.322 43.9237 221.557 40.0128 223.273 35.0611V40.8699C223.273 43.3368 222.439 45.3677 220.771 46.9725C219.104 48.5773 217.075 49.3795 214.674 49.3795C211.42 49.3795 209.005 47.8162 207.419 44.6847L200.039 48.4397C201.421 50.9062 203.393 52.8776 205.956 54.3677C208.519 55.8532 211.425 56.596 214.674 56.596C219.471 56.596 223.477 55.0922 226.688 52.0754C229.899 49.0632 231.504 45.3265 231.504 40.8654V13.9938H223.273ZM220.895 34.4192C219.309 35.9458 217.318 36.7072 214.922 36.7072C212.526 36.7072 210.653 35.9458 209.067 34.4192C207.48 32.8558 206.69 30.9393 206.69 28.6698C206.69 26.4004 207.48 24.5022 209.067 22.9755C210.653 21.4487 212.602 20.6877 214.922 20.6877C217.242 20.6877 219.314 21.4487 220.895 22.9755C222.481 24.461 223.273 26.3591 223.273 28.6698C223.273 30.9806 222.481 32.8971 220.895 34.4192Z"
      fill="currentCollor" />
  </g>
</svg>
