<svg viewBox="0 0 112 112" fill="currentColor" xmlns="http://www.w3.org/2000/svg">
  <path
    d="M98.4704 48.9552L76.9104 40.1856C77.0628 39.1998 77.1414 38.2039 77.1456 37.2064C77.1456 31.5982 74.9178 26.2198 70.9522 22.2542C66.9866 18.2886 61.6082 16.0608 56 16.0608C50.3918 16.0608 45.0134 18.2886 41.0478 22.2542C37.0822 26.2198 34.8544 31.5982 34.8544 37.2064C34.8586 38.2039 34.9372 39.1998 35.0896 40.1856L13.5296 48.9552C13.2519 49.0667 13.009 49.2505 12.8261 49.4873C12.6432 49.7242 12.5269 50.0057 12.4892 50.3026C12.4515 50.5995 12.4938 50.9011 12.6117 51.1761C12.7297 51.4512 12.919 51.6898 13.16 51.8672L22.4672 58.6768L16.6992 72.2512C16.6108 72.4583 16.5652 72.6812 16.5652 72.9064C16.5652 73.1316 16.6108 73.3545 16.6992 73.5616C16.7862 73.7701 16.9144 73.9588 17.076 74.1166C17.2377 74.2744 17.4295 74.398 17.64 74.48L25.0544 77.336L27.2048 96.0512C27.2399 96.3573 27.3574 96.6481 27.5448 96.8927C27.7321 97.1373 27.9824 97.3264 28.2688 97.44L55.3952 107.968C55.5758 108.029 55.7645 108.063 55.9552 108.069C56.1458 108.062 56.3344 108.028 56.5152 107.968L83.7312 97.44C84.0161 97.3273 84.2653 97.1399 84.4526 96.8975C84.6398 96.655 84.7582 96.3665 84.7952 96.0624L86.9456 77.3472L94.36 74.4912C94.5705 74.4092 94.7623 74.2856 94.924 74.1278C95.0856 73.97 95.2138 73.7813 95.3008 73.5728C95.3892 73.3657 95.4348 73.1428 95.4348 72.9176C95.4348 72.6924 95.3892 72.4695 95.3008 72.2624L89.5328 58.6768L98.84 51.8672C99.081 51.6898 99.2703 51.4512 99.3883 51.1761C99.5062 50.9011 99.5485 50.5995 99.5108 50.3026C99.4731 50.0057 99.3568 49.7242 99.1739 49.4873C98.991 49.2505 98.7481 49.0667 98.4704 48.9552ZM56 19.4208C59.5208 19.4186 62.9632 20.4607 65.8916 22.4154C68.82 24.3701 71.1028 27.1495 72.4512 30.4019C73.7995 33.6543 74.1529 37.2335 73.4666 40.6868C72.7803 44.1401 71.085 47.3122 68.5954 49.8018C66.1058 52.2914 62.9337 53.9866 59.4804 54.673C56.0272 55.3593 52.4479 55.0059 49.1955 53.6575C45.9431 52.3092 43.1637 50.0264 41.209 47.098C39.2544 44.1696 38.2122 40.7272 38.2144 37.2064C38.2203 32.4912 40.0961 27.9708 43.4302 24.6366C46.7644 21.3025 51.2848 19.4267 56 19.4208ZM57.68 58.24C62.2796 57.8769 66.6322 56.0115 70.0672 52.9312L82.936 58.072L57.68 68.152V58.24ZM54.32 68.1744L29.12 58.1056L41.9888 52.9648C45.4134 56.0217 49.7441 57.8743 54.32 58.24V68.1744ZM17.584 50.9376L35.84 43.5232C36.6186 45.9977 37.849 48.3065 39.4688 50.3328L24.7968 56.2016L17.584 50.9376ZM20.4736 71.9712L25.4464 60.2784L53.2112 71.3888L44.8 81.3456L20.4736 71.9712ZM28.5936 78.6912L44.6992 84.896C44.8918 84.9718 45.0971 85.0098 45.304 85.008C45.5475 85.0096 45.7883 84.9572 46.0091 84.8546C46.2298 84.7519 46.4251 84.6016 46.5808 84.4144L54.32 75.2752V103.947L30.4304 94.6624L28.5936 78.6912ZM81.5696 94.6512L57.68 103.947V75.2864L65.4192 84.4256C65.5749 84.6128 65.7702 84.7631 65.9909 84.8658C66.2117 84.9684 66.4525 85.0208 66.696 85.0192C66.9029 85.021 67.1083 84.983 67.3008 84.9072L83.4064 78.7024L81.5696 94.6512ZM91.5264 71.96L67.2 81.3456L58.7776 71.3888L86.5424 60.2784L91.5264 71.96ZM87.2256 56.2016L72.5536 50.3328C74.1655 48.3048 75.3882 45.9961 76.16 43.5232L94.416 50.9376L87.2256 56.2016Z"
    fill="currentColor" />
  <path
    d="M48.9664 39.5024V44.5984C48.9681 44.8557 49.0298 45.1091 49.1464 45.3385C49.263 45.5679 49.4315 45.767 49.6384 45.92C49.8542 46.0753 50.1036 46.1775 50.3663 46.2184C50.629 46.2592 50.8976 46.2376 51.1504 46.1552L56 44.6096L60.8496 46.2C61.0161 46.2533 61.19 46.2798 61.3648 46.2784C61.5862 46.2814 61.8061 46.24 62.0112 46.1566C62.2164 46.0733 62.4028 45.9496 62.5594 45.793C62.7161 45.6364 62.8397 45.45 62.9231 45.2448C63.0064 45.0396 63.0478 44.8198 63.0448 44.5984V39.5024L66.08 35.3808C66.2348 35.1648 66.3375 34.9159 66.3803 34.6536C66.423 34.3913 66.4046 34.1227 66.3264 33.8688C66.248 33.6034 66.1045 33.362 65.9088 33.1663C65.7132 32.9707 65.4717 32.8272 65.2064 32.7488L60.3456 31.1808L57.3664 27.048C57.2027 26.8426 56.9949 26.6768 56.7584 26.5628C56.5218 26.4488 56.2626 26.3896 56 26.3896C55.7374 26.3896 55.4782 26.4488 55.2416 26.5628C55.0051 26.6768 54.7972 26.8426 54.6336 27.048L51.6544 31.1808L46.7936 32.7488C46.5283 32.8272 46.2868 32.9707 46.0912 33.1663C45.8955 33.362 45.752 33.6034 45.6736 33.8688C45.5954 34.1227 45.577 34.3913 45.6197 34.6536C45.6625 34.9159 45.7652 35.1648 45.92 35.3808L48.9664 39.5024ZM53.2 34.2496C53.5423 34.1405 53.8406 33.9246 54.0512 33.6336L56 30.9456L57.9488 33.6C58.1594 33.891 58.4577 34.1069 58.8 34.216L61.9584 35.2352L59.9984 37.9232C59.7866 38.2123 59.6728 38.5616 59.6736 38.92V42.28L56.5152 41.2496C56.1744 41.13 55.8032 41.13 55.4624 41.2496L52.304 42.28V38.92C52.3048 38.5616 52.191 38.2123 51.9792 37.9232L50.0192 35.2352L53.2 34.2496Z"
    fill="#FF1F70" />
  <path
    d="M24.1472 38.8864H29.96C30.4056 38.8864 30.8329 38.7094 31.1479 38.3943C31.463 38.0792 31.64 37.6519 31.64 37.2064C31.64 36.7608 31.463 36.3335 31.1479 36.0184C30.8329 35.7034 30.4056 35.5264 29.96 35.5264H24.1472C23.7016 35.5264 23.2743 35.7034 22.9593 36.0184C22.6442 36.3335 22.4672 36.7608 22.4672 37.2064C22.4672 37.6519 22.6442 38.0792 22.9593 38.3943C23.2743 38.7094 23.7016 38.8864 24.1472 38.8864Z"
    fill="currentColor" />
  <path
    d="M82.04 38.8864H87.8528C88.2984 38.8864 88.7257 38.7094 89.0407 38.3943C89.3558 38.0792 89.5328 37.6519 89.5328 37.2064C89.5328 36.7608 89.3558 36.3335 89.0407 36.0184C88.7257 35.7034 88.2984 35.5264 87.8528 35.5264H82.04C81.5944 35.5264 81.1671 35.7034 80.852 36.0184C80.537 36.3335 80.36 36.7608 80.36 37.2064C80.36 37.6519 80.537 38.0792 80.852 38.3943C81.1671 38.7094 81.5944 38.8864 82.04 38.8864Z"
    fill="currentColor" />
  <path
    d="M36.4 19.9808C36.715 20.2954 37.142 20.4721 37.5872 20.4721C38.0324 20.4721 38.4594 20.2954 38.7744 19.9808C38.9315 19.8256 39.0563 19.6407 39.1414 19.4369C39.2266 19.2331 39.2704 19.0144 39.2704 18.7936C39.2704 18.5727 39.2266 18.354 39.1414 18.1503C39.0563 17.9465 38.9315 17.7616 38.7744 17.6064L34.72 13.496C34.4037 13.1811 33.9752 13.0048 33.5288 13.0059C33.0825 13.0069 32.6549 13.1852 32.34 13.5016C32.0251 13.8179 31.8488 14.2464 31.8499 14.6927C31.8509 15.1391 32.0293 15.5667 32.3456 15.8816L36.4 19.9808Z"
    fill="currentColor" />
  <path
    d="M56 12.8464C56.4398 12.8465 56.8621 12.6741 57.1762 12.3663C57.4903 12.0585 57.6712 11.6397 57.68 11.2V5.36481C57.68 4.91925 57.503 4.49194 57.1879 4.17688C56.8729 3.86181 56.4456 3.68481 56 3.68481C55.5544 3.68481 55.1271 3.86181 54.8121 4.17688C54.497 4.49194 54.32 4.91925 54.32 5.36481V11.2C54.3288 11.6397 54.5097 12.0585 54.8238 12.3663C55.1379 12.6741 55.5602 12.8465 56 12.8464Z"
    fill="currentColor" />
  <path
    d="M74.4128 20.4736C74.6336 20.4753 74.8525 20.4325 75.0565 20.3478C75.2605 20.2632 75.4453 20.1383 75.6 19.9808L79.7104 15.8816C80.0268 15.5667 80.2051 15.1391 80.2061 14.6927C80.2072 14.2464 80.0309 13.8179 79.716 13.5016C79.4012 13.1852 78.9735 13.0069 78.5272 13.0059C78.0808 13.0048 77.6524 13.1811 77.336 13.496L73.2256 17.6064C73.0685 17.7616 72.9437 17.9465 72.8586 18.1503C72.7735 18.354 72.7296 18.5727 72.7296 18.7936C72.7296 19.0144 72.7735 19.2331 72.8586 19.4369C72.9437 19.6407 73.0685 19.8256 73.2256 19.9808C73.3803 20.1383 73.5652 20.2632 73.7691 20.3478C73.9731 20.4325 74.192 20.4753 74.4128 20.4736Z"
    fill="currentColor" />
</svg>
