<svg width="1920" height="230" viewBox="0 0 1920 230" fill="none" xmlns="http://www.w3.org/2000/svg">
<path d="M339.523 20.7087C376.082 17.8199 411.732 34.1975 448.355 33.8232C455.647 33.7145 462.86 32.9348 470.073 32.1552C483.157 30.6688 496.243 29.0148 509.007 25.766C520.763 22.7605 532.033 17.6561 543.793 14.2316C568.655 7.14207 594.253 2.23728 620.069 1.4404C648.904 0.500321 677.698 4.50404 706.062 9.92887C717.022 12.1124 724.334 9.48999 734.174 5.12819C748.892 -1.54052 766.57 -1.0624 781.008 6.26102C787.434 9.49733 793.263 14.1534 799.943 17.0565C811.799 22.4317 822.149 17.1523 833.981 15.0692C846.065 12.9881 858.55 13.1728 870.596 15.7003C878.376 17.3554 885.981 20.0147 893.933 21.0007C899.625 21.8009 905.661 21.5983 911.124 19.5475C919.781 16.3493 926.933 12.72 936.488 12.5459C941.013 12.4987 945.704 12.788 949.879 14.6653C955.724 17.2265 960.285 23.1293 965.112 27.2745C967.441 29.3883 969.854 31.5028 972.692 32.8665C975.864 34.4005 979.379 35.0155 982.297 36.7989C986.467 39.3466 989.194 44.0613 989.407 48.8396C989.703 53.7023 987.652 58.6299 984.105 61.9531C982.247 63.6979 980.142 65.0216 978.202 66.5981C965.885 76.8058 967.076 95.335 968.384 109.675C968.535 111.771 968.769 113.868 968.417 115.96C967.976 118.722 966.53 121.392 966.675 124.159C966.819 127.093 968.725 129.706 969.204 132.643C969.921 137.257 967.119 141.76 967.25 146.37C967.387 150.142 966.686 153.823 966.992 157.513C967.377 161.706 968.768 165.823 967.729 170.005C967.381 171.594 966.615 173.097 966.602 174.689C966.51 175.61 966.754 176.617 966.412 177.452C966.07 178.288 964.975 178.949 964.225 178.44C963.975 178.271 963.81 177.934 963.728 177.682C962.659 175.16 963.605 172.234 963.04 169.548C962.717 167.953 961.892 166.438 961.234 164.925C959.263 159.965 961.402 154.451 961.192 149.338C961.049 146.236 959.645 143.711 958.998 140.856C957.868 135.568 960.594 129.975 959.212 124.769C958.724 122.921 957.732 121.237 957.16 119.389C954.712 111.241 961.115 96.6276 950.758 92.4377C948.253 91.4119 945.491 90.8868 943.495 89.0271C938.837 84.7995 940.67 75.6802 935.249 72.452C931.664 70.2443 927.123 72.1349 923.092 73.2755C917.885 74.7418 912.018 74.862 907.262 72.2258C905.344 71.1209 903.597 69.5146 901.679 68.4097C899.76 67.3048 897.336 66.531 895.235 67.2682C893.134 68.0054 893.021 71.6916 893.003 73.8703C893.142 77.3909 892.696 80.8231 891.831 84.1681C891.742 84.7539 891.569 85.4229 891.147 85.8385C890.217 86.8366 888.543 86.5716 887.544 85.7256C886.63 84.7964 886.222 83.4523 886.065 82.1103C885.434 77.2448 886.9 72.1449 885.261 67.5228C884.772 65.8428 883.612 64.2413 881.856 63.8081C877.338 62.9336 876.024 69.8783 874.911 72.8022C874.313 74.222 873.715 75.7255 872.451 76.5533C871.272 77.298 869.763 77.2857 868.337 77.5256C857.598 79.031 856.669 90.3363 858.023 99.0623C858.179 100.572 858.502 102.083 858.406 103.591C858.138 105.6 857.117 107.435 856.934 109.445C856.742 112.376 858.563 115.24 857.869 118.167C857.435 120.007 856.082 121.505 855.899 123.347C855.801 125.106 856.793 126.79 857.031 128.552C857.51 131.488 855.643 134.322 855.535 137.338C855.525 138.595 855.766 139.854 855.421 141.108C854.986 143.032 852.967 144.021 851.978 142.002C850.658 139.394 851.857 136.219 851.462 133.283C851.226 131.354 850.318 129.587 850.251 127.575C850.264 125.899 850.864 124.228 850.878 122.552C850.815 120.038 849.324 117.763 849.512 115.334C849.614 113.073 850.972 110.905 850.823 108.641C850.75 107.3 850.089 106.121 849.765 104.778C849.44 103.518 849.45 102.177 849.461 100.92C849.357 93.0426 849.5 85.6694 844.525 79.0929C838.639 71.252 826.761 68.642 818.176 73.2654C813.884 75.4932 810.082 79.401 805.305 79.3624C800.696 79.409 797.869 76.6208 793.26 76.6673C789.154 76.6341 787.685 82.1529 787.484 86.2575C787.273 91.6189 787.062 97.0082 786.851 102.426C786.753 104.101 786.655 105.86 785.889 107.362C785.039 108.863 783.354 110.023 781.68 109.674C779.088 108.983 778.782 105.461 778.971 102.697C779.275 96.2469 779.16 89.7097 778.543 83.1684C778.314 80.4012 777.337 76.8737 774.575 76.4324C772.567 76.081 770.711 77.5744 768.778 78.3129C763.483 80.1975 758.237 76.049 753.398 73.4121C748.893 70.9455 743.709 69.5628 738.675 70.2763C733.641 71.0736 728.839 74.1353 726.79 78.8115C725.595 81.4834 725.319 84.5817 723.457 86.8292C721.427 89.1592 718.068 90.0538 716.289 92.4696C714.764 94.5523 714.412 96.5606 712.22 98.2188C709.943 99.9602 707.592 100.612 705.564 102.69C703.282 105.018 701.334 107.6 699.72 110.352C698.53 112.354 697.34 114.523 696.902 116.866C696.46 119.712 697.107 122.566 696.414 125.409C695.893 127.584 694.62 129.585 693.765 131.673C691.367 138.022 692.901 145.241 693.603 151.7C694.693 162.016 691.342 172.212 692.601 182.362C693.073 186.137 694.132 190 693.263 193.764C692.915 195.353 692.233 196.856 691.717 198.444C690.944 200.7 690.59 203.044 690.488 205.389C690.468 207.819 690.783 210.336 690.26 212.762C689.737 215.355 688.294 217.606 687.854 220.201C687.413 222.962 688.058 226.068 686.864 228.572C686.525 229.072 686.018 229.655 685.433 229.399C685.099 229.312 684.934 228.976 684.769 228.639C683.453 225.528 684.739 222.019 683.509 218.657C683.182 217.565 682.605 216.471 682.279 215.295C681.223 211.18 681.512 206.49 681.128 202.213C680.742 198.104 678.509 194.399 678.123 190.373C677.973 188.193 678.325 186.101 678.594 183.925C679.842 174.717 678.322 165.738 677.643 156.515C677.265 151.4 678.477 146.549 678.937 141.525C679.3 138.092 679.58 134.575 679.189 131.052C678.877 128.201 678.141 125.932 678.499 123.086C679.041 118.314 680.604 111.539 676.359 107.985C674.861 106.716 672.504 108.037 671.736 109.707C671.051 111.461 671.203 113.474 671.02 115.316C670.837 117.242 669.898 119.329 668.052 119.733C666.877 119.891 665.707 119.463 664.534 119.453C657.577 119.649 657.864 136.075 657.074 140.51C656.811 141.849 656.044 143.519 654.704 143.424C653.532 143.247 653.041 141.735 653.052 140.478C653.061 139.305 653.24 137.882 652.241 137.119C651.991 136.866 651.574 136.695 651.324 136.525C650.407 135.848 649.997 134.755 649.922 133.665C649.931 132.576 650.107 131.571 650.283 130.483C651.343 123.788 647.793 117.139 648.015 110.437C648.127 106.919 649.918 103.078 648.774 99.4657C648.365 98.2892 647.534 97.3607 647.125 96.1842C646.221 93.9981 646.743 91.5722 646.846 89.2267C647.311 83.5321 645.775 76.5644 641.702 72.4253C639.541 70.3129 636.87 68.9505 634.028 68.0895C626.506 65.5985 618.037 66.2843 610.885 69.8298C607.772 71.3968 604.906 73.4686 601.71 74.9511C597.336 76.927 593.565 76.9803 589.393 74.684C585.973 72.8128 582.479 69.6002 578.287 69.9015C574.095 70.2028 570.963 74.0322 566.933 74.9214C562.485 75.8072 558.066 73.0061 553.539 73.2209C548.258 73.4297 543.95 77.7524 541.649 82.4265C539.348 87.1844 538.468 92.4567 536.751 97.4707C535.895 99.7264 533.695 102.306 531.695 101.033C531.111 100.693 530.781 100.02 530.45 99.4309C529.296 97.0752 528.562 94.6391 528.079 92.1213C527.521 88.5972 527.469 84.742 524.975 82.2079C523.894 81.1936 522.558 80.5962 521.223 79.915C516.634 77.4477 515.328 73.1634 510.653 70.9469C506.479 68.902 501.455 68.5261 497.001 69.9985C491.791 71.8 487.653 75.7889 482.771 78.431C473.85 83.1354 462.457 82.7081 453.954 77.2762C451.036 75.4091 448.374 72.9574 445.455 71.174C434.948 64.8041 420.77 66.8683 413.4 76.6132C406.793 85.3587 403.856 96.3126 402.929 107.283C402.56 111.47 402.693 115.744 402.157 119.846C401.617 124.451 403.09 128.82 402.969 133.428C402.849 137.869 401.808 142.302 402.107 146.745C402.401 151.859 403.618 156.813 403.326 161.839C403.226 163.849 402.874 165.858 402.607 167.783C401.788 175.821 403.316 183.794 401.827 191.743C401.737 192.496 401.564 193.249 401.057 193.748C400.633 194.331 399.793 194.576 399.209 194.236C398.292 193.726 398.469 192.47 398.477 191.465C398.665 189.036 397.427 186.596 397.364 184.081C397.29 182.824 397.553 181.485 397.563 180.228C397.796 172.102 395.095 164.203 395.328 156.076C395.449 151.468 396.24 146.949 396.025 142.339C395.804 138.65 395.33 135.126 394.94 131.436C394.706 129.339 395.142 127.248 395.411 125.071C396.227 117.452 395.211 108.31 393.512 100.754C393.027 98.5714 392.291 96.3029 390.966 94.3648C388.811 91.4144 384.699 92.2191 382.797 89.0194C381.97 87.7557 381.647 86.2447 381.239 84.8169C380.669 82.8011 380.518 80.7049 378.6 79.5162C376.433 78.1579 373.577 78.889 371.72 80.55C370.455 81.6291 369.269 83.2117 368.836 84.8842C368.319 86.7236 368.721 88.738 367.868 90.5747C367.271 91.9106 366.089 92.9905 365.743 94.3285C365.481 95.6671 365.973 97.0119 365.795 98.2674C365.699 99.775 364.766 101.192 364.502 102.698C364.242 103.786 364.483 105.045 364.558 106.218C364.628 107.895 364.784 109.321 364.268 110.993C363.667 112.747 362.648 114.415 363.051 116.346C363.211 117.353 363.79 118.195 363.865 119.285C364.1 121.382 361.99 123.209 362.056 125.388C362.135 125.975 362.299 126.479 362.21 127.065C362.034 128.153 360.938 128.982 360.594 130.069C360.338 130.653 360.247 131.491 359.576 131.569C359.157 131.566 358.825 131.144 358.661 130.724C358.001 129.461 358.01 128.372 357.853 127.03C357.697 125.604 357.115 125.097 356.454 123.918C355.462 122.15 356.57 119.897 355.915 118.048C355.504 116.955 354.589 116.11 354.179 115.017C353.689 113.421 354.458 111.667 354.471 109.992C354.573 107.73 353.077 106.293 352.507 104.194C352.1 102.766 351.95 100.502 352.13 98.9949C352.396 97.2373 353.332 95.4851 352.843 93.7214C352.68 93.1335 352.433 92.6287 352.186 92.0401C351.612 90.5271 351.878 88.7694 351.975 87.0942C352.078 84.6649 351.108 80.2995 348.603 79.1899C347.518 78.6783 346.175 78.9189 344.918 78.9087C340.311 78.7039 336.823 74.8209 332.989 72.276C323.652 66.167 305.304 65.6834 303.372 76.6455C302.934 79.0721 301.652 82.0785 299.31 81.6406C296.715 81.2006 296.828 77.682 296.009 75.2452C294.373 70.2878 287.091 69.3072 282.876 72.3736C278.661 75.4401 277.785 80.1258 275.822 84.5512C273.52 89.4768 272.64 94.6652 273.099 100.116C273.328 102.883 273.891 105.737 273.617 108.5C273.256 111.765 271.638 114.936 271.528 118.204C271.508 120.717 272.242 123.154 272.725 125.671C273.929 132.134 270.611 138.392 271.816 144.77C272.379 147.708 273.115 149.892 272.169 152.902C271.397 155.158 271.128 157.251 270.857 159.679C270.672 161.94 270.486 164.201 269.548 166.121C268.385 164.938 267.98 163.175 267.909 161.582C267.756 159.737 267.939 157.895 267.786 156.051C267.474 153.199 265.732 151.006 265.504 148.155C265.277 145.136 266.223 142.127 265.409 139.104C264.19 134.485 262.301 129.693 262.759 124.837C263.035 121.822 264.064 118.898 264.089 115.881C264.31 109.263 260.337 103.113 260.475 96.4104C260.506 92.5559 261.04 88.7055 260.652 84.9314C259.957 77.5515 256.431 68.0537 248.911 65.3113C246.07 64.2828 243.885 65.1031 240.952 64.9956C235.506 64.9516 230.502 61.9782 225.064 60.8448C213.856 58.3241 202.245 64.0123 193.969 71.9063C190.76 74.9809 187.631 78.4752 183.267 79.3617C179.489 80.1691 175.563 78.629 171.623 78.8486C154.687 79.8848 152.746 102.327 150.467 114.711C150.028 117.138 148.737 121.317 145.717 121.712C144.123 121.95 143.298 120.435 141.957 120.424C137.768 120.307 136.453 127.419 135.843 130.431C134.879 135.618 133.908 141.728 134.2 147.01C134.412 151.872 136.216 156.747 135.507 161.601C135.15 164.28 133.955 166.952 133.682 169.631C133.312 173.902 135.038 178.106 134.417 182.375C133.972 185.639 132.439 188.643 131.909 191.991C131.113 197.18 132.746 202.557 131.029 207.571C130.857 208.072 130.518 208.572 130.015 208.652C129.846 208.734 129.596 208.648 129.429 208.563C128.008 208.049 127.182 206.618 126.774 205.19C126.45 203.846 126.462 202.338 126.391 200.829C126.331 197.896 126.021 194.709 125.29 191.854C124.802 190.006 124.315 188.075 123.828 186.144C122.853 182.365 124.224 178.605 124.004 174.748C123.697 171.226 122.133 167.778 121.658 164.255C120.787 158.046 123.183 151.949 121.724 145.736C121.078 142.797 119.675 140.105 118.692 137.247C116.235 130.272 116.631 122.734 115.517 115.434C114.486 108.135 111.011 102.66 106.618 96.7588C103.965 93.134 98.8939 88.1489 94.3745 87.4419C89.0178 86.6444 82.7089 89.6102 78.7435 92.9301C76.8027 94.5904 75.1112 96.5041 73.0049 97.9116C70.9823 99.3199 68.2935 100.22 65.8689 99.5299C63.1936 98.7541 61.3712 96.1416 59.967 93.6163C57.2438 88.3988 56.2851 82.6089 51.2873 78.8813C46.9557 75.6619 39.4387 72.5844 34.8773 77.0727C33.6954 78.1525 32.927 79.9061 31.4167 80.1453C30.1591 80.2189 29.1611 79.289 28.4989 78.2781C27.9211 77.184 27.6792 76.0089 27.017 74.998C24.535 71.0394 19.3263 72.6732 15.7137 73.8172C12.0166 75.0443 8.23236 76.6897 4.46776 75.905C0.284187 75.117 -2.95733 71.8227 -7.05643 70.9516C-15.7567 69.1215 -23.2111 79.0333 -32.175 78.7094C-35.024 78.6864 -36.9397 77.2463 -39.7001 76.6374C-43.4641 75.769 -46.2638 80.0201 -47.7174 83.6117C-48.7432 86.1173 -49.934 88.2865 -52.043 90.0292C-54.4042 91.8537 -57.0133 93.2572 -58.7101 95.8412C-59.984 97.9259 -60.9274 100.6 -60.7794 103.031C-60.5504 105.798 -59.3159 108.574 -60.1761 111.332C-60.5194 112.335 -61.1128 113.168 -61.3723 114.172C-62.3238 117.851 -58.6667 121.568 -59.5345 125.248C-59.7953 126.419 -60.5583 127.502 -60.986 128.588C-62.0984 131.428 -59.4922 140.751 -62.8534 141.897C-64.9543 142.634 -64.265 140.294 -64.5035 138.699C-64.9887 136.517 -66.1462 134.58 -66.1279 132.318C-66.1205 131.396 -65.8623 130.56 -65.9386 129.637C-66.0096 128.045 -66.9198 126.613 -67.4103 125.101C-68.3124 122.663 -68.0401 120.067 -67.7683 117.556C-67.5007 115.547 -68.1629 114.536 -68.4818 112.522C-68.8825 110.256 -67.0208 108.009 -67.4221 105.827C-67.5796 104.568 -68.41 103.64 -68.904 102.547C-69.8088 100.444 -69.5384 98.1001 -69.6039 95.837C-69.8883 89.5497 -72.6668 80.8122 -78.5911 77.6638C-83.0963 75.1972 -89.3937 76.7384 -92.8583 80.3138C-94.2105 81.7274 -95.2296 83.3952 -97.2447 83.8817C-99.176 84.3688 -101.435 83.9316 -103.449 84.3343C-108.736 85.2133 -111.707 89.9659 -113.337 94.6454C-114.198 97.4038 -114.385 99.9163 -114.576 102.764C-114.769 105.947 -116.385 108.867 -116.412 112.135C-116.526 115.905 -114.209 119.527 -114.825 123.209C-115.351 126.054 -117.382 128.467 -117.739 131.23C-118.097 133.992 -116.778 136.768 -117.136 139.531C-117.496 142.629 -119.528 145.126 -119.638 148.393C-119.834 151.995 -119.195 155.771 -120.564 159.28C-120.649 159.447 -120.818 159.697 -120.987 159.863C-121.324 160.028 -121.741 159.773 -121.99 159.52C-122.821 158.591 -122.893 157.166 -122.966 155.825C-122.935 151.97 -122.733 147.782 -123.205 143.923C-123.754 139.31 -126.07 135.52 -124.774 130.754C-124.515 129.751 -124.003 128.665 -124.078 127.575C-124.153 126.485 -124.816 125.474 -125.143 124.466C-126.372 121.104 -124.834 117.43 -124.303 113.914C-122.716 104.206 -128.915 93.5977 -133.796 85.6812C-137.353 80.0379 -141.247 74.4757 -142.871 68.01C-146.609 53.5664 -137.18 37.8885 -123.887 31.292C-107.48 23.1286 -91.2786 19.6562 -73.4631 23.8226C-59.9945 16.3057 -43.1189 12.336 -27.7982 14.1359C-12.9797 15.8478 0.881264 21.9934 15.2639 25.7968C37.1724 31.5885 60.1304 31.9417 82.7526 32.3759C90.3778 32.4376 96.3583 28.6312 103.419 25.9229C121.071 19.1941 139.892 13.0613 158.553 16.229C165.917 17.5455 173.018 20.2844 179.271 24.2735C181.938 25.9711 183.357 26.6529 186.367 27.5153C202.67 32.1722 220.206 29.5486 236.744 25.8275C253.283 22.0227 269.831 17.1285 286.84 17.4336C305.859 17.755 320.573 22.1477 339.523 20.7087Z" fill="#A6E2FF"/>
<path d="M-133.435 51.4941C-131.479 58.2976 -125.825 63.7902 -119.139 66.1068C-114.376 67.7375 -109.185 68.2823 -104.396 66.7288C-99.9433 65.3403 -96.0658 62.5224 -91.9416 60.2932C-87.8181 58.1478 -83.0291 56.5943 -78.5151 57.9716C-74.5038 59.3448 -70.8338 61.4694 -67.249 63.761C-65.3319 65.0335 -63.2473 66.3073 -60.9848 66.3256C-58.0521 66.3493 -55.5213 64.2748 -53.3265 62.2814C-49.6118 58.8756 -46.1464 55.2165 -42.0169 52.3169C-37.8873 49.4174 -32.9259 47.2787 -27.8996 47.4869C-21.6165 47.7053 -16.351 49.4239 -10.7585 52.1506C-8.75563 53.1724 -6.92031 54.1928 -4.91605 55.047C-2.82731 55.8181 -0.652068 56.2547 1.52385 56.6075C6.79741 57.3205 12.1629 57.0287 17.3696 55.6462C23.0797 54.184 28.7183 51.2128 34.5913 50.3385C37.6957 49.8608 40.8826 49.5513 43.9775 50.2468C47.8252 51.1158 51.2418 53.4899 54.6604 55.6125C58.579 58.0743 62.6679 60.2023 67.1867 60.993C71.7892 61.7844 76.7398 60.9865 80.1997 57.9977C90.747 49.0327 105.195 55.0992 111.476 65.96C114.368 71.0113 115.494 76.8863 117.545 82.2661C118.447 84.7035 119.518 87.0585 121.347 88.8331C123.176 90.6077 125.765 91.718 128.283 91.2355C131.725 90.4254 133.765 86.9223 135.716 83.9213C138.261 80.0872 141.894 76.5132 146.504 76.299C148.6 76.1484 150.857 76.837 152.873 76.2667C155.057 75.614 156.664 73.7834 158.02 71.9508C160.731 68.2856 163.276 64.4514 166.57 61.2937C168.681 59.2158 171.209 57.4765 174.066 56.5778C177.007 55.5959 179.933 56.3738 182.71 54.9717C188.011 52.3329 191.563 48.3393 197.276 46.4581C203.073 44.5776 209.115 43.6209 215.149 43.5021C227.302 43.2651 239.51 46.5482 249.679 53.2505C253.513 55.7954 257.762 58.9304 262.293 58.2128C269.593 57.0148 272.185 47.3151 278.831 44.1845C287.916 39.9004 298.318 38.5599 306.822 43.908C311.824 47.1328 315.806 52.1091 321.577 53.4965C324.922 54.3615 328.53 53.7203 331.478 51.9006C334.51 49.9977 337.364 49.4342 340.967 49.4633C345.325 49.4148 348.817 52.795 350.799 56.4143C352.533 59.6127 353.511 63.0564 355.497 66.0892C357.401 69.0375 360.732 71.5784 364.339 71.1886C368.617 70.6366 371.504 65.9672 375.702 64.9955C379.732 63.9387 383.651 66.4006 387.068 68.6908C390.486 70.981 394.489 73.3597 398.435 72.386C403.809 71.0886 406.038 64.8218 410.253 61.7553C415.647 57.8603 420.448 54.8824 427.162 53.5959C440.255 51.104 452.056 52.9592 463.737 59.2547C469.995 62.5734 477.611 63.8082 484.334 61.4324C491.056 59.1404 496.707 54.5771 502.688 50.7707C508.585 46.9636 513.801 44.408 521.083 45.4725C526.02 46.2666 530.616 47.8959 534.107 51.4437C537.266 54.5698 539.915 58.6136 544.09 60.4909C548.932 62.7088 554.642 61.2466 559.106 58.4335C563.487 55.536 566.956 51.4579 570.59 47.6325C572.451 45.5805 574.422 43.6132 576.504 41.7306C578.362 39.9858 580.303 38.2417 582.575 37.0869C598.145 28.8329 612.642 49.4808 626.609 52.8619C630.623 53.8999 634.824 52.5931 638.839 53.5474C641.765 54.3252 644.597 56.5269 646.758 58.6393C651.83 63.5406 654.96 70.3537 656.077 77.2342C656.477 79.6676 656.707 82.2672 657.862 84.4553C659.926 88.3268 665.022 90.2953 669.14 88.8202C673.846 87.1823 676.316 82.2581 678.697 77.9199C683.543 69.4115 689.974 61.6702 698.311 56.6259C708.249 50.5051 720.412 48.9275 730.497 55.7129C731.581 56.3921 732.58 57.2381 733.748 57.8342C741.589 62.2551 752.003 59.4063 759.408 55.6952C766.055 52.3132 772.292 47.8385 779.35 45.5492C786.324 43.2592 795.632 42.4127 802.224 45.9855C807.981 49.0488 813.232 52.527 819.586 54.4219C824.935 56.1412 830.628 56.7738 836.085 55.5609C843.64 53.946 849.708 49.6376 856.027 45.4149C861.42 41.7713 866.883 39.8043 873.423 39.2706C879.879 38.82 887.143 42.1469 892.394 45.6251C899.063 49.9527 905.465 56.2056 913.428 55.9348C917.954 55.8038 922.247 53.4083 926.856 53.4456C932.136 53.4045 936.885 56.711 941.218 59.7628C947.634 64.3398 957.251 66.7639 963.656 62.2905C966.858 60.0539 969.063 56.8036 972.016 54.3135C974.211 52.32 976.906 50.7496 978.934 48.5872C980.963 46.4249 982.329 43.2516 981.431 40.3952C980.204 36.6981 975.941 35.3229 972.692 32.8665C969.854 31.5028 967.441 29.3883 965.112 27.2745C960.285 23.1293 955.724 17.2265 949.879 14.6653C945.704 12.788 941.013 12.4987 936.488 12.5459C926.933 12.72 919.781 16.3493 911.124 19.5475C905.661 21.5983 899.625 21.8009 893.933 21.0007C885.981 20.0147 878.376 17.3554 870.596 15.7003C858.55 13.1728 846.065 12.9881 833.981 15.0692C822.149 17.1523 811.799 22.4317 799.943 17.0565C793.263 14.1534 787.434 9.49733 781.008 6.26102C766.57 -1.0624 748.892 -1.54052 734.174 5.12819C724.334 9.48999 717.022 12.1124 706.062 9.92887C677.698 4.50404 648.904 0.500321 620.069 1.4404C594.253 2.23728 568.655 7.14207 543.793 14.2316C532.033 17.6561 520.763 22.7605 509.007 25.766C496.243 29.0148 483.157 30.6688 470.073 32.1552C462.86 32.9348 455.647 33.7145 448.355 33.8232C411.732 34.1975 376.082 17.8199 339.523 20.7087C320.573 22.1477 305.859 17.755 286.84 17.4336C269.831 17.1285 253.283 22.0227 236.744 25.8275C220.206 29.5486 202.67 32.1722 186.367 27.5153C183.357 26.6529 181.938 25.9711 179.271 24.2735C173.018 20.2844 165.917 17.5455 158.553 16.229C139.892 13.0613 121.071 19.1941 103.419 25.9229C96.3583 28.6312 90.3778 32.4376 82.7526 32.3759C60.1304 31.9417 37.1724 31.5885 15.2639 25.7968C0.881264 21.9934 -12.9797 15.8478 -27.7982 14.1359C-43.1189 12.336 -59.9945 16.3057 -73.4631 23.8226C-91.2786 19.6562 -107.48 23.1286 -123.887 31.292C-126.663 32.6104 -129.274 34.4328 -131.638 36.5086C-134.188 41.0132 -134.819 46.5388 -133.435 51.4941Z" fill="#CFEFFF"/>
<path d="M-122.057 32.9828C-124.092 35.9831 -124.795 39.9998 -123.145 43.2813C-121.331 46.8993 -116.987 48.6104 -112.881 48.5598C-108.858 48.5085 -104.991 47.0314 -101.208 45.5536C-97.3425 44.1603 -93.3927 42.7676 -89.3726 43.0515C-85.1843 43.253 -81.3447 45.1276 -77.3335 46.5008C-73.5729 47.7882 -69.6448 49.0769 -65.7038 48.7736C-58.2394 47.9959 -52.7414 41.6717 -46.1757 38.0376C-40.3682 34.9002 -33.4052 33.9509 -26.8802 35.3444C-14.2491 38.1281 -1.22948 44.6859 11.6051 43.0298C18.5674 42.1643 25.3784 39.2864 32.4164 39.4271C41.1302 39.5814 50.7326 43.849 59.0943 46.0953C62.3548 47.0435 65.6159 47.9078 68.8832 48.018C82.9578 48.467 95.2702 38.8459 109.47 44.5752C113.646 46.2011 117.311 48.9961 121.574 50.3714C125.168 51.4898 129.022 51.6047 132.633 50.6284C138.092 49.0803 142.648 45.3462 148.108 43.7144C154.996 41.6751 162.272 43.4099 169.298 45.0588C180.589 47.8317 190.036 40.1148 201.207 36.9369C213.47 33.4327 226.791 33.7918 238.824 37.9952C241.749 39.0244 244.672 40.2213 247.684 40.916C258.225 43.0962 268.409 37.564 278.32 34.795C288.398 31.9435 299.391 30.105 309.585 33.7907C316.77 36.4466 322.764 41.2716 330.64 41.419C338.265 41.5645 346.756 38.1136 353.847 42.1094C356.516 43.6394 358.674 46.1708 361.686 46.7818C365.786 47.5691 369.582 44.4992 373.369 42.5187C386.162 35.6668 398.264 41.7143 410.719 45.5022C417.908 47.7391 425.698 48.1372 433.083 46.7723C438.119 45.8075 442.994 44.0033 448.104 44.1284C455.393 44.3549 462.065 48.3474 469.175 49.9133C474.278 50.9601 479.727 50.7528 484.683 49.2007C492.411 46.9168 499.405 42.1968 506.804 39.156C512.69 36.6896 519.067 35.6518 525.432 36.1223C531.88 36.6772 538.06 39.2411 544.595 39.4615C551.045 39.6813 557.268 36.9662 562.91 33.6599C568.466 30.4366 573.861 26.5417 579.913 24.2443C592.438 19.4852 608.059 25.5612 617.372 34.5192C620.033 37.0546 622.355 40.0064 625.695 41.5417C633.125 45.0376 641.882 39.829 650.088 40.6496C657.038 41.2923 663.282 46.2869 670.243 45.6728C676.364 45.2195 681.008 40.8157 686.061 37.756C691.955 34.2841 698.833 33.4179 705.52 35.4832C709.449 36.6881 713.204 38.6458 717.133 39.9346C728.416 43.5453 741.334 41.9738 751.358 35.5185C758.518 30.9675 764.246 27.3266 772.97 26.1402C781.108 25.0328 789.644 26.3588 796.988 30.1053C801.662 32.4894 805.826 35.7075 810.33 38.3416C814.833 41.0596 819.927 43.1958 825.125 42.9026C838.621 42.3413 849.513 32.2059 862.605 29.7978C871.501 28.1937 880.881 28.9399 888.977 32.8601C893.485 35.0753 897.566 38.1251 902.072 40.5079C906.495 42.8062 911.761 44.3571 916.632 43.0557C920.663 41.9989 924.12 39.4291 928.151 38.3723C932.517 37.2345 937.284 38.4462 941.292 40.2384C946.72 42.5448 951.972 45.9392 957.835 46.3218C963.697 46.7882 970.52 42.4858 969.98 36.6155C969.824 35.2735 969.332 33.9287 968.839 32.6677C968.346 31.4906 967.825 30.3132 967.276 29.1356C966.554 28.5711 965.833 27.9507 965.112 27.2745C960.285 23.1293 955.724 17.2265 949.879 14.6653C945.704 12.788 941.013 12.4987 936.488 12.5459C926.933 12.72 919.781 16.3493 911.124 19.5475C905.661 21.5983 899.625 21.8009 893.933 21.0007C885.981 20.0147 878.376 17.3554 870.596 15.7003C858.55 13.1728 846.065 12.9881 833.981 15.0692C822.149 17.1523 811.799 22.4317 799.943 17.0565C793.263 14.1534 787.434 9.49733 781.008 6.26102C766.57 -1.0624 748.892 -1.54052 734.174 5.12819C724.334 9.48999 717.022 12.1124 706.062 9.92887C677.698 4.50404 648.904 0.500321 620.069 1.4404C594.253 2.23728 568.655 7.14207 543.793 14.2316C532.033 17.6561 520.763 22.7605 509.007 25.766C496.243 29.0148 483.157 30.6688 470.073 32.1552C462.86 32.9348 455.647 33.7145 448.355 33.8232C411.732 34.1975 376.082 17.8199 339.523 20.7087C320.573 22.1477 305.859 17.755 286.84 17.4336C269.831 17.1285 253.283 22.0227 236.744 25.8275C220.206 29.5486 202.67 32.1722 186.367 27.5153C183.357 26.6529 181.938 25.9711 179.271 24.2735C173.018 20.2844 165.917 17.5455 158.553 16.229C139.892 13.0613 121.071 19.1941 103.419 25.9229C96.3583 28.6312 90.3778 32.4376 82.7526 32.3759C60.1304 31.9417 37.1724 31.5885 15.2639 25.7968C0.881264 21.9934 -12.9797 15.8478 -27.7982 14.1359C-43.1189 12.336 -59.9945 16.3057 -73.4631 23.8226C-88.1836 20.3516 -101.857 22.1685 -115.308 27.5067C-118.001 28.8257 -120.361 30.5663 -122.057 32.9828Z" fill="white"/>
<path d="M-128.781 76.9228C-129.446 76.3029 -130.111 75.683 -130.777 75.0631C-130.942 74.8104 -131.276 74.64 -131.442 74.4711C-131.719 74.1895 -132.025 74.0195 -132.36 73.9609C-132.778 73.7899 -133.448 73.7845 -133.869 74.0325C-134.205 74.1974 -134.458 74.3629 -134.628 74.6968C-135.053 75.3637 -135.06 76.2016 -134.982 76.9565C-134.66 78.635 -133.668 80.2352 -132.589 81.5847C-131.926 82.4281 -131.178 83.2721 -130.261 83.7823C-129.259 84.2932 -128.002 84.3034 -127.16 83.7236C-126.063 82.8945 -125.883 81.3038 -126.376 80.0428C-126.784 78.7825 -127.782 77.8526 -128.781 76.9228Z" fill="#CFEFFF"/>
<path d="M58.1343 81.9534C59.379 83.4718 60.2865 85.2389 60.942 87.0878C61.4318 88.684 61.7535 90.3625 62.9164 91.6289C63.4151 92.1357 64.0821 92.5601 64.7531 92.4818C65.6755 92.4054 66.3526 91.5729 66.4439 90.6518C66.5351 89.7308 66.2074 88.8064 65.7107 88.0482C64.5505 86.4466 62.8003 85.2593 61.8077 83.6591C60.9806 82.3116 60.5738 80.7999 59.8305 79.4531C59.3352 78.5273 58.0047 77.2596 56.991 78.257C55.8084 79.4206 57.4707 81.11 58.1343 81.9534Z" fill="#CFEFFF"/>
<path d="M115.783 103.369C114.687 104.198 115.343 105.963 115.918 107.309C120.12 116.225 117.938 127.018 121.467 136.264C122.615 139.374 124.435 142.238 124.659 145.592C124.736 146.43 124.978 147.606 125.816 147.612C126.922 145.61 126.857 143.263 126.372 141.081C125.803 138.897 124.814 136.794 124.245 134.695C123.265 131.502 123.124 128.233 122.815 124.962C122.582 122.614 119.914 100.302 115.783 103.369Z" fill="#CFEFFF"/>
<path d="M262.84 83.8597C262.92 84.2793 263.083 84.8673 263.502 84.8706C264.005 84.8747 264.261 84.2902 264.264 83.8712C264.962 80.4411 264.739 76.9198 263.676 73.643C263.184 72.2983 260.054 65.6528 258.012 69.4911C257.161 71.0764 259.659 73.0239 260.404 74.2031C262.307 77.1515 262.196 80.5863 262.84 83.8597Z" fill="#CFEFFF"/>
<path d="M522.923 76.9958C525.089 78.5217 527.423 80.1327 528.576 82.5722C528.823 83.1608 529.069 83.7494 529.485 84.1718C529.901 84.5941 530.737 84.7685 531.159 84.3529C531.413 84.1035 531.416 83.6846 531.503 83.2663C531.525 80.5849 530.374 77.894 528.294 76.0336C527.378 75.272 526.21 74.5922 525.38 73.6637C524.55 72.6514 524.141 71.4749 523.395 70.3795C521.986 68.4408 518.387 67.9089 517.943 71.0058C517.589 73.4331 521.256 75.8092 522.923 76.9958Z" fill="#CFEFFF"/>
<path d="M651.746 105.104C651.229 106.86 650.544 108.614 650.362 110.456C650.077 114.56 652.812 118.353 652.527 122.457C652.435 123.546 652.34 124.886 653.342 125.313C654.261 125.655 655.106 124.824 655.448 123.989C656.216 122.235 656.065 120.223 655.577 118.375C655.089 116.528 654.349 114.762 654.197 112.834C653.966 110.318 654.657 107.809 654.929 105.214C655.201 102.702 654.805 99.8496 652.807 98.1575C652.558 97.9041 652.057 97.6487 651.721 97.8136C650.797 98.0575 652.007 103.849 651.746 105.104Z" fill="#CFEFFF"/>
<path d="M680.747 187.126C680.721 190.311 681.287 192.913 682.181 196.356C682.724 198.26 683.044 200.19 683.14 202.146C683.217 202.901 683.211 203.655 683.625 204.245C684.039 204.918 684.874 205.26 685.465 204.762C686.493 201.921 685.849 198.732 684.951 195.792C683.972 192.432 683.076 189.324 683.272 185.806C683.47 181.953 684.674 178.192 683.867 174.33C683.705 173.659 683.543 172.903 683.045 172.313C682.631 171.723 681.88 171.298 681.125 171.459C680.957 171.458 680.789 171.54 680.704 171.707C680.535 171.873 680.533 172.125 680.615 172.377C681.168 176.487 681.3 180.846 680.848 185.032C680.786 185.758 680.752 186.456 680.747 187.126Z" fill="#CFEFFF"/>
<path d="M844.099 69.7039C841.853 67.5908 839.91 69.5863 841.398 72.1123C841.977 73.0388 842.809 73.7159 843.473 74.4754C845.134 76.3324 846.118 79.0219 848.457 79.9626C848.792 80.0491 849.21 80.1363 849.379 79.8863C849.465 79.7194 849.465 79.6356 849.467 79.468C849.667 75.4473 847.01 72.3252 844.099 69.7039Z" fill="#CFEFFF"/>
<path d="M957.848 96.4336C957.929 96.8532 958.093 97.2735 958.426 97.5276C958.759 97.7817 959.346 97.7864 959.516 97.4526C959.517 97.3409 959.518 97.2571 959.518 97.2013C959.871 95.0253 959.135 92.7568 957.725 90.9857C956.398 89.2152 954.565 87.9433 952.561 87.0892C951.642 86.7465 950.807 86.4046 950.142 85.7288C949.061 84.6307 947.589 80.0937 945.726 82.5088C944.794 83.842 945.86 86.6998 946.774 87.7128C950.18 91.3436 955.881 90.9708 957.848 96.4336Z" fill="#CFEFFF"/>
<path d="M354.046 90.0439C354.042 90.5467 354.121 91.1339 354.452 91.6394C354.7 92.1442 355.2 92.4834 355.703 92.4875C356.708 92.4956 357.303 91.4948 357.562 90.5751C358.164 88.5689 358.35 86.3916 357.947 84.3772C357.706 83.0344 356.647 79.3387 354.718 79.4907C353.125 79.6454 353.859 82.0815 353.934 83.1715C354.167 85.436 353.814 87.6957 354.046 90.0439Z" fill="#CFEFFF"/>
<path d="M1424.52 20.7103C1461.08 17.8215 1496.73 34.1991 1533.35 33.8247C1540.65 33.7161 1547.86 32.9364 1555.07 32.1567C1568.16 30.6703 1581.24 29.0164 1594.01 25.7676C1605.76 22.7621 1617.03 17.6576 1628.79 14.2332C1653.65 7.14365 1679.25 2.23886 1705.07 1.44198C1733.9 0.501898 1762.7 4.50562 1791.06 9.93044C1802.02 12.114 1809.33 9.49156 1819.17 5.12977C1833.89 -1.53895 1851.57 -1.06082 1866.01 6.2626C1872.43 9.49891 1878.26 14.1549 1884.94 17.0581C1896.8 22.4333 1907.15 17.1538 1918.98 15.0707C1931.07 12.9896 1943.55 13.1744 1955.6 15.7019C1963.38 17.357 1970.98 20.0162 1978.93 21.0023C1984.62 21.8025 1990.66 21.5999 1996.12 19.5491C2004.78 16.3509 2011.93 12.7216 2021.49 12.5475C2026.01 12.5002 2030.7 12.7896 2034.88 14.6669C2040.72 17.2281 2045.28 23.1309 2050.11 27.276C2052.44 29.3899 2054.85 31.5043 2057.69 32.8681C2060.86 34.4021 2064.38 35.0171 2067.3 36.8005C2071.47 39.3481 2074.19 44.0629 2074.41 48.8412C2074.7 53.7039 2072.65 58.6314 2069.1 61.9547C2067.25 63.6995 2065.14 65.0232 2063.2 66.5997C2050.88 76.8074 2052.08 95.3366 2053.38 109.677C2053.53 111.773 2053.77 113.87 2053.42 115.962C2052.98 118.724 2051.53 121.394 2051.67 124.16C2051.82 127.094 2053.72 129.707 2054.2 132.644C2054.92 137.259 2052.12 141.761 2052.25 146.371C2052.39 150.144 2051.69 153.825 2051.99 157.515C2052.38 161.708 2053.77 165.825 2052.73 170.007C2052.38 171.596 2051.61 173.098 2051.6 174.69C2051.51 175.611 2051.75 176.619 2051.41 177.454C2051.07 178.289 2049.97 178.951 2049.22 178.442C2048.97 178.272 2048.81 177.936 2048.73 177.684C2047.66 175.161 2048.6 172.236 2048.04 169.55C2047.72 167.955 2046.89 166.44 2046.23 164.926C2044.26 159.966 2046.4 154.453 2046.19 149.339C2046.05 146.238 2044.64 143.712 2044 140.858C2042.87 135.569 2045.59 129.977 2044.21 124.77C2043.72 122.923 2042.73 121.239 2042.16 119.391C2039.71 111.242 2046.11 96.6292 2035.76 92.4393C2033.25 91.4135 2030.49 90.8884 2028.49 89.0286C2023.84 84.801 2025.67 75.6818 2020.25 72.4536C2016.66 70.2459 2012.12 72.1365 2008.09 73.2771C2002.88 74.7434 1997.02 74.8636 1992.26 72.2274C1990.34 71.1225 1988.6 69.5162 1986.68 68.4113C1984.76 67.3064 1982.34 66.5326 1980.24 67.2698C1978.13 68.007 1978.02 71.6932 1978 73.8718C1978.14 77.3925 1977.7 80.8247 1976.83 84.1696C1976.74 84.7555 1976.57 85.4245 1976.15 85.8401C1975.22 86.8382 1973.54 86.5732 1972.54 85.7272C1971.63 84.798 1971.22 83.4539 1971.06 82.1119C1970.43 77.2464 1971.9 72.1465 1970.26 67.5243C1969.77 65.8444 1968.61 64.2429 1966.85 63.8097C1962.34 62.9352 1961.02 69.8799 1959.91 72.8038C1959.31 74.2236 1958.71 75.7271 1957.45 76.5549C1956.27 77.2995 1954.76 77.2873 1953.34 77.5272C1942.6 79.0326 1941.67 90.3379 1943.02 99.0639C1943.18 100.574 1943.5 102.085 1943.41 103.592C1943.14 105.601 1942.12 107.436 1941.93 109.446C1941.74 112.378 1943.56 115.241 1942.87 118.169C1942.43 120.009 1941.08 121.506 1940.9 123.348C1940.8 125.107 1941.79 126.791 1942.03 128.553C1942.51 131.49 1940.64 134.324 1940.53 137.34C1940.52 138.597 1940.77 139.856 1940.42 141.11C1939.99 143.034 1937.97 144.023 1936.98 142.004C1935.66 139.395 1936.86 136.221 1936.46 133.285C1936.23 131.355 1935.32 129.588 1935.25 127.576C1935.26 125.901 1935.86 124.229 1935.88 122.554C1935.81 120.039 1934.32 117.765 1934.51 115.336C1934.61 113.074 1935.97 110.906 1935.82 108.643C1935.75 107.301 1935.09 106.123 1934.76 104.779C1934.44 103.52 1934.45 102.179 1934.46 100.922C1934.36 93.0441 1934.5 85.671 1929.53 79.0945C1923.64 71.2536 1911.76 68.6436 1903.18 73.2669C1898.88 75.4948 1895.08 79.4026 1890.3 79.364C1885.7 79.4106 1882.87 76.6223 1878.26 76.6689C1874.15 76.6357 1872.68 82.1545 1872.48 86.259C1872.27 91.6205 1872.06 97.0098 1871.85 102.427C1871.75 104.102 1871.66 105.861 1870.89 107.363C1870.04 108.865 1868.35 110.025 1866.68 109.676C1864.09 108.984 1863.78 105.462 1863.97 102.699C1864.27 96.2485 1864.16 89.7113 1863.54 83.17C1863.31 80.4028 1862.34 76.8753 1859.57 76.434C1857.57 76.0826 1855.71 77.5759 1853.78 78.3145C1848.48 80.1991 1843.24 76.0505 1838.4 73.4137C1833.89 70.9471 1828.71 69.5644 1823.67 70.2779C1818.64 71.0752 1813.84 74.1369 1811.79 78.8131C1810.6 81.485 1810.32 84.5833 1808.46 86.8308C1806.43 89.1608 1803.07 90.0554 1801.29 92.4712C1799.76 94.5538 1799.41 96.5622 1797.22 98.2204C1794.94 99.9618 1792.59 100.613 1790.56 102.692C1788.28 105.02 1786.33 107.602 1784.72 110.354C1783.53 112.356 1782.34 114.525 1781.9 116.868C1781.46 119.713 1782.11 122.568 1781.41 125.411C1780.89 127.586 1779.62 129.587 1778.76 131.675C1776.37 138.024 1777.9 145.243 1778.6 151.701C1779.69 162.017 1776.34 172.214 1777.6 182.363C1778.07 186.138 1779.13 190.002 1778.26 193.765C1777.91 195.355 1777.23 196.858 1776.72 198.446C1775.94 200.702 1775.59 203.046 1775.49 205.391C1775.47 207.821 1775.78 210.338 1775.26 212.764C1774.74 215.357 1773.29 217.608 1772.85 220.202C1772.41 222.964 1773.06 226.07 1771.86 228.574C1771.52 229.074 1771.02 229.657 1770.43 229.4C1770.1 229.314 1769.93 228.977 1769.77 228.641C1768.45 225.53 1769.74 222.021 1768.51 218.659C1768.18 217.567 1767.6 216.473 1767.28 215.297C1766.22 211.182 1766.51 206.492 1766.13 202.215C1765.74 198.106 1763.51 194.4 1763.12 190.375C1762.97 188.195 1763.32 186.103 1763.59 183.926C1764.84 174.718 1763.32 165.74 1762.64 156.516C1762.26 151.401 1763.48 146.551 1763.94 141.527C1764.3 138.094 1764.58 134.577 1764.19 131.054C1763.88 128.202 1763.14 125.934 1763.5 123.087C1764.04 118.315 1765.6 111.54 1761.36 107.986C1759.86 106.717 1757.5 108.039 1756.74 109.709C1756.05 111.463 1756.2 113.475 1756.02 115.318C1755.84 117.243 1754.9 119.331 1753.05 119.735C1751.88 119.893 1750.71 119.465 1749.53 119.455C1742.58 119.65 1742.86 136.077 1742.07 140.512C1741.81 141.851 1741.04 143.52 1739.7 143.426C1738.53 143.249 1738.04 141.736 1738.05 140.479C1738.06 139.306 1738.24 137.883 1737.24 137.121C1736.99 136.868 1736.57 136.697 1736.32 136.527C1735.41 135.849 1735 134.756 1734.92 133.667C1734.93 132.577 1735.11 131.573 1735.28 130.485C1736.34 123.79 1732.79 117.141 1733.01 110.439C1733.13 106.92 1734.92 103.08 1733.77 99.4673C1733.36 98.2908 1732.53 97.3623 1732.12 96.1858C1731.22 93.9997 1731.74 91.5738 1731.85 89.2282C1732.31 83.5337 1730.77 76.566 1726.7 72.4269C1724.54 70.3144 1721.87 68.9521 1719.03 68.0911C1711.51 65.6001 1703.04 66.2859 1695.89 69.8314C1692.77 71.3984 1689.91 73.4702 1686.71 74.9527C1682.34 76.9286 1678.56 76.9819 1674.39 74.6856C1670.97 72.8144 1667.48 69.6018 1663.29 69.9031C1659.09 70.2044 1655.96 74.0338 1651.93 74.923C1647.48 75.8088 1643.07 73.0077 1638.54 73.2225C1633.26 73.4312 1628.95 77.7539 1626.65 82.4281C1624.35 87.186 1623.47 92.4583 1621.75 97.4723C1620.89 99.728 1618.7 102.308 1616.69 101.035C1616.11 100.695 1615.78 100.022 1615.45 99.4325C1614.3 97.0768 1613.56 94.6407 1613.08 92.1229C1612.52 88.5988 1612.47 84.7436 1609.97 82.2095C1608.89 81.1952 1607.56 80.5978 1606.22 79.9166C1601.63 77.4493 1600.33 73.165 1595.65 70.9485C1591.48 68.9036 1586.45 68.5277 1582 70.0001C1576.79 71.8016 1572.65 75.7905 1567.77 78.4326C1558.85 83.137 1547.46 82.7097 1538.95 77.2778C1536.04 75.4106 1533.37 72.959 1530.46 71.1756C1519.95 64.8057 1505.77 66.8699 1498.4 76.6148C1491.79 85.3603 1488.86 96.3142 1487.93 107.284C1487.56 111.471 1487.69 115.746 1487.16 119.848C1486.62 124.452 1488.09 128.822 1487.97 133.43C1487.85 137.87 1486.81 142.303 1487.11 146.747C1487.4 151.861 1488.62 156.815 1488.33 161.841C1488.23 163.851 1487.87 165.859 1487.61 167.784C1486.79 175.823 1488.32 183.796 1486.83 191.745C1486.74 192.498 1486.56 193.251 1486.06 193.75C1485.63 194.333 1484.79 194.577 1484.21 194.237C1483.29 193.727 1483.47 192.472 1483.48 191.466C1483.66 189.038 1482.43 186.597 1482.36 184.083C1482.29 182.825 1482.55 181.487 1482.56 180.23C1482.8 172.103 1480.09 164.204 1480.33 156.078C1480.45 151.47 1481.24 146.951 1481.03 142.34C1480.8 138.651 1480.33 135.128 1479.94 131.438C1479.71 129.341 1480.14 127.249 1480.41 125.073C1481.23 117.454 1480.21 108.311 1478.51 100.756C1478.03 98.573 1477.29 96.3045 1475.97 94.3664C1473.81 91.416 1469.7 92.2207 1467.8 89.021C1466.97 87.7573 1466.65 86.2463 1466.24 84.8184C1465.67 82.8027 1465.52 80.7065 1463.6 79.5178C1461.43 78.1595 1458.58 78.8906 1456.72 80.5516C1455.45 81.6307 1454.27 83.2133 1453.84 84.8858C1453.32 86.7252 1453.72 88.7396 1452.87 90.5763C1452.27 91.9122 1451.09 92.9921 1450.74 94.33C1450.48 95.6687 1450.97 97.0135 1450.8 98.269C1450.7 99.7766 1449.77 101.194 1449.5 102.7C1449.24 103.787 1449.48 105.046 1449.56 106.22C1449.63 107.896 1449.78 109.322 1449.27 110.994C1448.67 112.749 1447.65 114.417 1448.05 116.347C1448.21 117.354 1448.79 118.197 1448.87 119.287C1449.1 121.384 1446.99 123.21 1447.06 125.39C1447.14 125.977 1447.3 126.481 1447.21 127.067C1447.03 128.155 1445.94 128.984 1445.59 130.071C1445.34 130.655 1445.25 131.492 1444.58 131.571C1444.16 131.567 1443.83 131.146 1443.66 130.725C1443 129.463 1443.01 128.374 1442.85 127.032C1442.7 125.606 1442.11 125.098 1441.45 123.92C1440.46 122.152 1441.57 119.898 1440.91 118.049C1440.5 116.957 1439.59 116.111 1439.18 115.019C1438.69 113.423 1439.46 111.669 1439.47 109.993C1439.57 107.731 1438.08 106.295 1437.51 104.195C1437.1 102.767 1436.95 100.503 1437.13 98.9965C1437.4 97.2389 1438.33 95.4867 1437.84 93.723C1437.68 93.1351 1437.43 92.6303 1437.19 92.0417C1436.61 90.5287 1436.88 88.771 1436.97 87.0958C1437.08 84.6665 1436.11 80.3011 1433.6 79.1915C1432.52 78.6799 1431.18 78.9205 1429.92 78.9103C1425.31 78.7055 1421.82 74.8225 1417.99 72.2775C1408.65 66.1686 1390.3 65.685 1388.37 76.6471C1387.93 79.0737 1386.65 82.0801 1384.31 81.6422C1381.72 81.2022 1381.83 77.6836 1381.01 75.2468C1379.37 70.2894 1372.09 69.3087 1367.88 72.3752C1363.66 75.4417 1362.79 80.1274 1360.82 84.5528C1358.52 89.4784 1357.64 94.6668 1358.1 100.117C1358.33 102.885 1358.89 105.738 1358.62 108.501C1358.26 111.767 1356.64 114.938 1356.53 118.205C1356.51 120.719 1357.24 123.155 1357.72 125.673C1358.93 132.135 1355.61 138.393 1356.82 144.772C1357.38 147.709 1358.12 149.894 1357.17 152.903C1356.4 155.159 1356.13 157.252 1355.86 159.68C1355.67 161.941 1355.49 164.202 1354.55 166.122C1353.38 164.94 1352.98 163.177 1352.91 161.584C1352.76 159.739 1352.94 157.897 1352.79 156.052C1352.47 153.2 1350.73 151.008 1350.5 148.157C1350.28 145.138 1351.22 142.129 1350.41 139.106C1349.19 134.487 1347.3 129.695 1347.76 124.838C1348.04 121.824 1349.06 118.899 1349.09 115.883C1349.31 109.264 1345.34 103.115 1345.48 96.412C1345.51 92.5575 1346.04 88.7071 1345.65 84.933C1344.96 77.5531 1341.43 68.0553 1333.91 65.3129C1331.07 64.2844 1328.88 65.1047 1325.95 64.9972C1320.51 64.9532 1315.5 61.9798 1310.06 60.8464C1298.86 58.3257 1287.25 64.0139 1278.97 71.9079C1275.76 74.9825 1272.63 78.4768 1268.27 79.3633C1264.49 80.1707 1260.56 78.6306 1256.62 78.8502C1239.69 79.8864 1237.75 102.329 1235.47 114.713C1235.03 117.139 1233.74 121.319 1230.72 121.713C1229.12 121.952 1228.3 120.437 1226.96 120.426C1222.77 120.308 1221.45 127.421 1220.84 130.432C1219.88 135.62 1218.91 141.73 1219.2 147.011C1219.41 151.873 1221.22 156.748 1220.51 161.603C1220.15 164.281 1218.96 166.953 1218.68 169.633C1218.31 173.904 1220.04 178.107 1219.42 182.376C1218.97 185.641 1217.44 188.645 1216.91 191.993C1216.11 197.182 1217.75 202.558 1216.03 207.572C1215.86 208.074 1215.52 208.574 1215.01 208.653C1214.85 208.736 1214.6 208.65 1214.43 208.565C1213.01 208.051 1212.18 206.619 1211.77 205.191C1211.45 203.848 1211.46 202.34 1211.39 200.831C1211.33 197.897 1211.02 194.71 1210.29 191.855C1209.8 190.008 1209.32 188.077 1208.83 186.145C1207.85 182.366 1209.22 178.607 1209 174.75C1208.7 171.228 1207.13 167.78 1206.66 164.256C1205.79 158.048 1208.18 151.95 1206.72 145.737C1206.08 142.799 1204.68 140.106 1203.69 137.249C1201.24 130.274 1201.63 122.735 1200.52 115.436C1199.49 108.137 1196.01 102.662 1191.62 96.7604C1188.97 93.1356 1183.89 88.1505 1179.37 87.4435C1174.02 86.646 1167.71 89.6118 1163.74 92.9317C1161.8 94.592 1160.11 96.5057 1158.01 97.9132C1155.98 99.3215 1153.29 100.222 1150.87 99.5315C1148.19 98.7557 1146.37 96.1432 1144.97 93.6179C1142.24 88.4004 1141.29 82.6105 1136.29 78.8829C1131.96 75.6635 1124.44 72.586 1119.88 77.0743C1118.7 78.1541 1117.93 79.9077 1116.42 80.1469C1115.16 80.2205 1114.16 79.2906 1113.5 78.2797C1112.92 77.1856 1112.68 76.0105 1112.02 74.9995C1109.54 71.0409 1104.33 72.6748 1100.71 73.8188C1097.02 75.0459 1093.23 76.6913 1089.47 75.9066C1085.28 75.1186 1082.04 71.8243 1077.94 70.9532C1069.24 69.123 1061.79 79.0348 1052.83 78.711C1049.98 78.6879 1048.06 77.2479 1045.3 76.639C1041.54 75.7706 1038.74 80.0217 1037.28 83.6133C1036.26 86.1189 1035.07 88.2881 1032.96 90.0308C1030.6 91.8553 1027.99 93.2588 1026.29 95.8428C1025.02 97.9275 1024.07 100.601 1024.22 103.033C1024.45 105.8 1025.68 108.575 1024.82 111.334C1024.48 112.337 1023.89 113.17 1023.63 114.173C1022.68 117.853 1026.33 121.569 1025.47 125.25C1025.2 126.421 1024.44 127.504 1024.01 128.59C1022.9 131.43 1025.51 140.753 1022.15 141.899C1020.05 142.636 1020.74 140.295 1020.5 138.701C1020.01 136.518 1018.85 134.582 1018.87 132.319C1018.88 131.397 1019.14 130.562 1019.06 129.639C1018.99 128.046 1018.08 126.614 1017.59 125.102C1016.69 122.665 1016.96 120.069 1017.23 117.557C1017.5 115.548 1016.84 114.537 1016.52 112.524C1016.12 110.258 1017.98 108.01 1017.58 105.828C1017.42 104.57 1016.59 103.641 1016.1 102.548C1015.19 100.446 1015.46 98.1016 1015.4 95.8385C1015.11 89.5513 1012.33 80.8138 1006.41 77.6654C1001.9 75.1988 995.607 76.74 992.142 80.3154C990.79 81.729 989.771 83.3968 987.755 83.8833C985.824 84.3704 983.565 83.9332 981.551 84.3359C976.264 85.2149 973.293 89.9675 971.663 94.647C970.803 97.4054 970.615 99.9179 970.424 102.765C970.231 105.948 968.615 108.868 968.589 112.136C968.474 115.906 970.791 119.528 970.175 123.21C969.649 126.055 967.619 128.469 967.261 131.232C966.903 133.994 968.222 136.77 967.864 139.533C967.504 142.63 965.473 145.128 965.362 148.395C965.166 151.997 965.806 155.773 964.436 159.281C964.351 159.448 964.182 159.698 964.013 159.864C963.676 160.029 963.259 159.775 963.01 159.521C962.179 158.593 962.107 157.168 962.034 155.826C962.065 151.972 962.267 147.783 961.795 143.925C961.246 139.311 958.93 135.522 960.226 130.756C960.485 129.752 960.997 128.667 960.922 127.577C960.847 126.487 960.185 125.476 959.858 124.468C958.628 121.106 960.166 117.431 960.697 113.916C962.284 104.208 956.085 93.5993 951.205 85.6827C947.647 80.0395 936.623 62.4657 935 56C948.5 59.4999 948 56 961 63.4999C974 62.9999 993.722 19.6578 1011.54 23.8241C1025.01 16.3073 1041.88 12.3376 1057.2 14.1374C1072.02 15.8494 1085.88 21.995 1100.26 25.7984C1122.17 31.59 1145.13 31.9433 1167.75 32.3775C1175.38 32.4392 1181.36 28.6328 1188.42 25.9245C1206.07 19.1957 1224.89 13.0629 1243.55 16.2305C1250.92 17.5471 1258.02 20.286 1264.27 24.2751C1266.94 25.9727 1268.36 26.6545 1271.37 27.5168C1287.67 32.1738 1305.21 29.5502 1321.74 25.8291C1338.28 22.0243 1354.83 17.1301 1371.84 17.4352C1390.86 17.7566 1405.57 22.1493 1424.52 20.7103Z" fill="#A6E2FF"/>
<path d="M951.565 51.4957C953.522 58.2992 959.176 63.7918 965.861 66.1084C970.624 67.7391 975.815 68.2839 980.604 66.7304C985.057 65.3418 988.934 62.524 993.059 60.2948C997.182 58.1494 1001.97 56.5959 1006.49 57.9732C1010.5 59.3464 1014.17 61.471 1017.75 63.7626C1019.67 65.035 1021.75 66.3089 1024.02 66.3272C1026.95 66.3509 1029.48 64.2764 1031.67 62.2829C1035.39 58.8772 1038.85 55.2181 1042.98 52.3185C1047.11 49.4189 1052.07 47.2803 1057.1 47.4885C1063.38 47.7069 1068.65 49.4254 1074.24 52.1522C1076.24 53.174 1078.08 54.1944 1080.08 55.0486C1082.17 55.8197 1084.35 56.2562 1086.52 56.609C1091.8 57.322 1097.16 57.0302 1102.37 55.6478C1108.08 54.1855 1113.72 51.2144 1119.59 50.34C1122.7 49.8624 1125.88 49.5529 1128.98 50.2483C1132.83 51.1174 1136.24 53.4914 1139.66 55.614C1143.58 58.0759 1147.67 60.2039 1152.19 60.9946C1156.79 61.786 1161.74 60.9881 1165.2 57.9993C1175.75 49.0343 1190.2 55.1008 1196.48 65.9616C1199.37 71.0129 1200.49 76.8879 1202.55 82.2676C1203.45 84.7051 1204.52 87.0601 1206.35 88.8347C1208.18 90.6092 1210.77 91.7195 1213.28 91.2371C1216.73 90.4269 1218.76 86.9239 1220.72 83.9229C1223.26 80.0887 1226.89 76.5147 1231.5 76.3006C1233.6 76.15 1235.86 76.8386 1237.87 76.2683C1240.06 75.6156 1241.66 73.785 1243.02 71.9524C1245.73 68.2872 1248.28 64.453 1251.57 61.2952C1253.68 59.2173 1256.21 57.478 1259.07 56.5793C1262.01 55.5975 1264.93 56.3754 1267.71 54.9732C1273.01 52.3345 1276.56 48.3409 1282.28 46.4597C1288.07 44.5792 1294.11 43.6225 1300.15 43.5036C1312.3 43.2667 1324.51 46.5497 1334.68 53.252C1338.51 55.797 1342.76 58.9319 1347.29 58.2144C1354.59 57.0164 1357.19 47.3167 1363.83 44.186C1372.92 39.9019 1383.32 38.5615 1391.82 43.9095C1396.82 47.1343 1400.81 52.1106 1406.58 53.4981C1409.92 54.3631 1413.53 53.7219 1416.48 51.9022C1419.51 49.9993 1422.36 49.4358 1425.97 49.4649C1430.32 49.4163 1433.82 52.7965 1435.8 56.4159C1437.53 59.6143 1438.51 63.0579 1440.5 66.0907C1442.4 69.0391 1445.73 71.58 1449.34 71.1902C1453.62 70.6381 1456.5 65.9687 1460.7 64.9971C1464.73 63.9403 1468.65 66.4021 1472.07 68.6923C1475.49 70.9825 1479.49 73.3612 1483.44 72.3876C1488.81 71.0902 1491.04 64.8233 1495.25 61.7569C1500.65 57.8619 1505.45 54.884 1512.16 53.5975C1525.26 51.1056 1537.06 52.9607 1548.74 59.2563C1554.99 62.575 1562.61 63.8098 1569.33 61.4339C1576.06 59.1419 1581.71 54.5787 1587.69 50.7723C1593.58 46.9652 1598.8 44.4096 1606.08 45.4741C1611.02 46.2682 1615.62 47.8975 1619.11 51.4453C1622.27 54.5714 1624.91 58.6151 1629.09 60.4925C1633.93 62.7104 1639.64 61.2482 1644.11 58.4351C1648.49 55.5375 1651.96 51.4594 1655.59 47.6341C1657.45 45.5821 1659.42 43.6148 1661.5 41.7322C1663.36 39.9874 1665.3 38.2433 1667.58 37.0885C1683.14 28.8345 1697.64 49.4824 1711.61 52.8635C1715.62 53.9015 1719.82 52.5947 1723.84 53.5489C1726.77 54.3268 1729.6 56.5284 1731.76 58.6409C1736.83 63.5422 1739.96 70.3552 1741.08 77.2358C1741.48 79.6692 1741.71 82.2688 1742.86 84.4569C1744.93 88.3283 1750.02 90.2969 1754.14 88.8218C1758.85 87.1839 1761.32 82.2597 1763.7 77.9214C1768.54 69.4131 1774.97 61.6718 1783.31 56.6275C1793.25 50.5067 1805.41 48.9291 1815.5 55.7145C1816.58 56.3937 1817.58 57.2397 1818.75 57.8358C1826.59 62.2567 1837 59.4079 1844.41 55.6968C1851.06 52.3148 1857.29 47.8401 1864.35 45.5508C1871.32 43.2608 1880.63 42.4142 1887.22 45.9871C1892.98 49.0504 1898.23 52.5286 1904.59 54.4235C1909.93 56.1427 1915.63 56.7754 1921.08 55.5625C1928.64 53.9476 1934.71 49.6391 1941.03 45.4165C1946.42 41.7729 1951.88 39.8059 1958.42 39.2722C1964.88 38.8216 1972.14 42.1485 1977.39 45.6267C1984.06 49.9543 1990.46 56.2072 1998.43 55.9364C2002.95 55.8054 2007.25 53.4099 2011.86 53.4472C2017.14 53.406 2021.89 56.7126 2026.22 59.7644C2032.63 64.3414 2042.25 66.7655 2048.66 62.2921C2051.86 60.0554 2054.06 56.8051 2057.02 54.315C2059.21 52.3216 2061.91 50.7512 2063.93 48.5888C2065.96 46.4265 2067.33 43.2532 2066.43 40.3967C2065.2 36.6997 2060.94 35.3245 2057.69 32.8681C2054.85 31.5043 2052.44 29.3899 2050.11 27.276C2045.28 23.1309 2040.72 17.2281 2034.88 14.6669C2030.7 12.7896 2026.01 12.5002 2021.49 12.5475C2011.93 12.7216 2004.78 16.3509 1996.12 19.5491C1990.66 21.5999 1984.62 21.8025 1978.93 21.0023C1970.98 20.0162 1963.38 17.357 1955.6 15.7019C1943.55 13.1744 1931.07 12.9896 1918.98 15.0707C1907.15 17.1538 1896.8 22.4333 1884.94 17.0581C1878.26 14.1549 1872.43 9.49891 1866.01 6.2626C1851.57 -1.06082 1833.89 -1.53895 1819.17 5.12977C1809.33 9.49156 1802.02 12.114 1791.06 9.93044C1762.7 4.50562 1733.9 0.501898 1705.07 1.44198C1679.25 2.23886 1653.65 7.14365 1628.79 14.2332C1617.03 17.6576 1605.76 22.7621 1594.01 25.7676C1581.24 29.0164 1568.16 30.6703 1555.07 32.1567C1547.86 32.9364 1540.65 33.7161 1533.35 33.8247C1496.73 34.1991 1461.08 17.8215 1424.52 20.7103C1405.57 22.1493 1390.86 17.7566 1371.84 17.4352C1354.83 17.1301 1338.28 22.0243 1321.74 25.8291C1305.21 29.5502 1287.67 32.1738 1271.37 27.5168C1268.36 26.6545 1266.94 25.9727 1264.27 24.2751C1258.02 20.286 1250.92 17.5471 1243.55 16.2305C1224.89 13.0629 1206.07 19.1957 1188.42 25.9245C1181.36 28.6328 1175.38 32.4392 1167.75 32.3775C1145.13 31.9433 1122.17 31.59 1100.26 25.7984C1085.88 21.995 1072.02 15.8494 1057.2 14.1374C1041.88 12.3376 1025.01 16.3073 1011.54 23.8241C993.722 19.6578 969.5 43.0004 963.501 45.5006C960.5 42.0004 954 46.0004 950.5 44.5004C947.95 49.0049 950.181 46.5403 951.565 51.4957Z" fill="#CFEFFF"/>
<path d="M962.944 32.9844C960.908 35.9847 960.205 40.0014 961.855 43.2828C963.669 46.9009 968.013 48.6119 972.119 48.5613C976.142 48.5101 980.009 47.033 983.792 45.5552C987.658 44.1618 991.608 42.7692 995.628 43.0531C999.816 43.2545 1003.66 45.1291 1007.67 46.5024C1011.43 47.7897 1015.36 49.0785 1019.3 48.7752C1026.76 47.9975 1032.26 41.6732 1038.82 38.0392C1044.63 34.9018 1051.59 33.9525 1058.12 35.346C1070.75 38.1297 1083.77 44.6874 1096.61 43.0314C1103.57 42.1659 1110.38 39.288 1117.42 39.4287C1126.13 39.583 1135.73 43.8505 1144.09 46.0969C1147.35 47.045 1150.62 47.9094 1153.88 48.0196C1167.96 48.4686 1180.27 38.8474 1194.47 44.5768C1198.65 46.2027 1202.31 48.9977 1206.57 50.3729C1210.17 51.4914 1214.02 51.6063 1217.63 50.6299C1223.09 49.0819 1227.65 45.3478 1233.11 43.7159C1240 41.6766 1247.27 43.4114 1254.3 45.0604C1265.59 47.8333 1275.04 40.1163 1286.21 36.9385C1298.47 33.4343 1311.79 33.7934 1323.82 37.9968C1326.75 39.026 1329.67 40.2229 1332.68 40.9176C1343.22 43.0978 1353.41 37.5656 1363.32 34.7965C1373.4 31.9451 1384.39 30.1065 1394.58 33.7923C1401.77 36.4482 1407.76 41.2731 1415.64 41.4206C1423.27 41.566 1431.76 38.1152 1438.85 42.111C1441.52 43.641 1443.67 46.1724 1446.69 46.7833C1450.79 47.5707 1454.58 44.5008 1458.37 42.5202C1471.16 35.6683 1483.26 41.7159 1495.72 45.5037C1502.91 47.7406 1510.7 48.1388 1518.08 46.7739C1523.12 45.809 1527.99 44.0049 1533.1 44.13C1540.39 44.3565 1547.06 48.349 1554.18 49.9148C1559.28 50.9617 1564.73 50.7543 1569.68 49.2022C1577.41 46.9183 1584.41 42.1984 1591.8 39.1576C1597.69 36.6912 1604.07 35.6534 1610.43 36.1238C1616.88 36.6787 1623.06 39.2427 1629.59 39.4631C1636.05 39.6829 1642.27 36.9678 1647.91 33.6615C1653.47 30.4382 1658.86 26.5433 1664.91 24.2459C1677.44 19.4868 1693.06 25.5628 1702.37 34.5207C1705.03 37.0562 1707.36 40.0079 1710.7 41.5433C1718.13 45.0391 1726.88 39.8306 1735.09 40.6511C1742.04 41.2939 1748.28 46.2885 1755.24 45.6744C1761.36 45.2211 1766.01 40.8173 1771.06 37.7576C1776.95 34.2857 1783.83 33.4195 1790.52 35.4847C1794.45 36.6897 1798.2 38.6474 1802.13 39.9362C1813.42 43.5469 1826.33 41.9754 1836.36 35.5201C1843.52 30.969 1849.25 27.3282 1857.97 26.1418C1866.11 25.0344 1874.64 26.3603 1881.99 30.1069C1886.66 32.491 1890.83 35.709 1895.33 38.3432C1899.83 41.0612 1904.93 43.1973 1910.13 42.9042C1923.62 42.3429 1934.51 32.2075 1947.61 29.7993C1956.5 28.1953 1965.88 28.9415 1973.98 32.8617C1978.48 35.0769 1982.57 38.1267 1987.07 40.5094C1991.49 42.8078 1996.76 44.3587 2001.63 43.0573C2005.66 42.0005 2009.12 39.4307 2013.15 38.3739C2017.52 37.236 2022.28 38.4478 2026.29 40.2399C2031.72 42.5464 2036.97 45.9408 2042.84 46.3234C2048.7 46.7897 2055.52 42.4874 2054.98 36.6171C2054.82 35.2751 2054.33 33.9303 2053.84 32.6693C2053.35 31.4922 2052.83 30.3148 2052.28 29.1371C2051.55 28.5727 2050.83 27.9523 2050.11 27.276C2045.28 23.1309 2040.72 17.2281 2034.88 14.6669C2030.7 12.7896 2026.01 12.5002 2021.49 12.5475C2011.93 12.7216 2004.78 16.3509 1996.12 19.5491C1990.66 21.5999 1984.62 21.8025 1978.93 21.0023C1970.98 20.0162 1963.38 17.357 1955.6 15.7019C1943.55 13.1744 1931.07 12.9896 1918.98 15.0707C1907.15 17.1538 1896.8 22.4333 1884.94 17.0581C1878.26 14.1549 1872.43 9.49891 1866.01 6.2626C1851.57 -1.06082 1833.89 -1.53895 1819.17 5.12977C1809.33 9.49156 1802.02 12.114 1791.06 9.93044C1762.7 4.50562 1733.9 0.501898 1705.07 1.44198C1679.25 2.23886 1653.65 7.14365 1628.79 14.2332C1617.03 17.6576 1605.76 22.7621 1594.01 25.7676C1581.24 29.0164 1568.16 30.6703 1555.07 32.1567C1547.86 32.9364 1540.65 33.7161 1533.35 33.8247C1496.73 34.1991 1461.08 17.8215 1424.52 20.7103C1405.57 22.1493 1390.86 17.7566 1371.84 17.4352C1354.83 17.1301 1338.28 22.0243 1321.74 25.8291C1305.21 29.5502 1287.67 32.1738 1271.37 27.5168C1268.36 26.6545 1266.94 25.9727 1264.27 24.2751C1258.02 20.286 1250.92 17.5471 1243.55 16.2305C1224.89 13.0629 1206.07 19.1957 1188.42 25.9245C1181.36 28.6328 1175.38 32.4392 1167.75 32.3775C1145.13 31.9433 1122.17 31.59 1100.26 25.7984C1085.88 21.995 1072.02 15.8494 1057.2 14.1374C1041.88 12.3376 1025.01 16.3073 1011.54 23.8241C996.816 20.3532 983.143 22.17 969.692 27.5082C967 28.8272 964.639 30.5679 962.944 32.9844Z" fill="white"/>
<path d="M956.22 76.9244C955.554 76.3045 954.889 75.6846 954.224 75.0647C954.058 74.8119 953.724 74.6416 953.558 74.4727C953.281 74.1911 952.975 74.021 952.64 73.9625C952.223 73.7915 951.552 73.7861 951.131 74.0341C950.795 74.1989 950.542 74.3645 950.372 74.6983C949.947 75.3653 949.941 76.2032 950.018 76.958C950.34 78.6366 951.333 80.2368 952.411 81.5863C953.075 82.4297 953.822 83.2737 954.74 83.7839C955.741 84.2948 956.998 84.305 957.841 83.7252C958.937 82.896 959.117 81.3053 958.625 80.0444C958.216 78.7841 957.218 77.8542 956.22 76.9244Z" fill="#CFEFFF"/>
<path d="M1143.13 81.955C1144.38 83.4734 1145.29 85.2405 1145.94 87.0894C1146.43 88.6855 1146.75 90.3641 1147.92 91.6305C1148.42 92.1373 1149.08 92.5617 1149.75 92.4833C1150.68 92.407 1151.35 91.5745 1151.44 90.6534C1151.54 89.7324 1151.21 88.8079 1150.71 88.0497C1149.55 86.4482 1147.8 85.2608 1146.81 83.6606C1145.98 82.3132 1145.57 80.8015 1144.83 79.4547C1144.34 78.5289 1143 77.2612 1141.99 78.2586C1140.81 79.4222 1142.47 81.1116 1143.13 81.955Z" fill="#CFEFFF"/>
<path d="M1200.78 103.371C1199.69 104.2 1200.34 105.965 1200.92 107.31C1205.12 116.227 1202.94 127.019 1206.47 136.266C1207.61 139.376 1209.44 142.24 1209.66 145.593C1209.74 146.432 1209.98 147.607 1210.82 147.614C1211.92 145.612 1211.86 143.265 1211.37 141.082C1210.8 138.899 1209.81 136.796 1209.24 134.696C1208.26 131.504 1208.12 128.235 1207.82 124.964C1207.58 122.616 1204.91 100.304 1200.78 103.371Z" fill="#CFEFFF"/>
<path d="M1347.84 83.8613C1347.92 84.2809 1348.08 84.8688 1348.5 84.8722C1349 84.8763 1349.26 84.2917 1349.26 83.8728C1349.96 80.4427 1349.74 76.9213 1348.68 73.6446C1348.18 72.2998 1345.05 65.6544 1343.01 69.4927C1342.16 71.078 1344.66 73.0255 1345.4 74.2047C1347.31 77.1531 1347.2 80.5879 1347.84 83.8613Z" fill="#CFEFFF"/>
<path d="M1607.92 76.9974C1610.09 78.5233 1612.42 80.1343 1613.58 82.5738C1613.82 83.1624 1614.07 83.751 1614.48 84.1733C1614.9 84.5957 1615.74 84.77 1616.16 84.3544C1616.41 84.1051 1616.42 83.6861 1616.5 83.2679C1616.53 80.5865 1615.37 77.8956 1613.29 76.0352C1612.38 75.2736 1611.21 74.5938 1610.38 73.6653C1609.55 72.653 1609.14 71.4765 1608.4 70.3811C1606.99 68.4423 1603.39 67.9104 1602.94 71.0074C1602.59 73.4347 1606.26 75.8107 1607.92 76.9974Z" fill="#CFEFFF"/>
<path d="M1736.75 105.106C1736.23 106.861 1735.54 108.616 1735.36 110.458C1735.08 114.562 1737.81 118.355 1737.53 122.458C1737.43 123.547 1737.34 124.887 1738.34 125.314C1739.26 125.657 1740.11 124.826 1740.45 123.99C1741.22 122.237 1741.06 120.225 1740.58 118.377C1740.09 116.529 1739.35 114.764 1739.2 112.835C1738.97 110.319 1739.66 107.811 1739.93 105.215C1740.2 102.704 1739.8 99.8512 1737.81 98.1591C1737.56 97.9057 1737.06 97.6502 1736.72 97.8151C1735.8 98.059 1737.01 103.851 1736.75 105.106Z" fill="#CFEFFF"/>
<path d="M1765.75 187.128C1765.72 190.312 1766.29 192.914 1767.18 196.357C1767.72 198.261 1768.04 200.191 1768.14 202.147C1768.22 202.902 1768.21 203.656 1768.63 204.246C1769.04 204.92 1769.87 205.262 1770.46 204.764C1771.49 201.923 1770.85 198.733 1769.95 195.793C1768.97 192.433 1768.08 189.326 1768.27 185.808C1768.47 181.954 1769.67 178.193 1768.87 174.332C1768.7 173.66 1768.54 172.905 1768.05 172.314C1767.63 171.724 1766.88 171.299 1766.12 171.461C1765.96 171.459 1765.79 171.542 1765.7 171.709C1765.53 171.875 1765.53 172.126 1765.61 172.378C1766.17 176.489 1766.3 180.848 1765.85 185.034C1765.79 185.76 1765.75 186.458 1765.75 187.128Z" fill="#CFEFFF"/>
<path d="M1929.1 69.7055C1926.85 67.5924 1924.91 69.5879 1926.4 72.1139C1926.98 73.0403 1927.81 73.7174 1928.47 74.477C1930.13 76.334 1931.12 79.0235 1933.46 79.9642C1933.79 80.0507 1934.21 80.1379 1934.38 79.8879C1934.46 79.7209 1934.47 79.6372 1934.47 79.4696C1934.67 75.4488 1932.01 72.3268 1929.1 69.7055Z" fill="#CFEFFF"/>
<path d="M2042.85 96.4351C2042.93 96.8548 2043.09 97.2751 2043.43 97.5292C2043.76 97.7833 2044.35 97.788 2044.52 97.4542C2044.52 97.3425 2044.52 97.2587 2044.52 97.2028C2044.87 95.0269 2044.13 92.7584 2042.72 90.9872C2041.4 89.2167 2039.56 87.9449 2037.56 87.0907C2036.64 86.7481 2035.81 86.4061 2035.14 85.7304C2034.06 84.6323 2032.59 80.0952 2030.73 82.5103C2029.79 83.8436 2030.86 86.7013 2031.77 87.7143C2035.18 91.3452 2040.88 90.9723 2042.85 96.4351Z" fill="#CFEFFF"/>
<path d="M1439.05 90.0455C1439.04 90.5483 1439.12 91.1355 1439.45 91.641C1439.7 92.1458 1440.2 92.485 1440.7 92.4891C1441.71 92.4972 1442.3 91.4964 1442.56 90.5767C1443.16 88.5704 1443.35 86.3932 1442.95 84.3787C1442.71 83.036 1441.65 79.3403 1439.72 79.4923C1438.12 79.647 1438.86 82.0831 1438.93 83.1731C1439.17 85.4376 1438.81 87.6973 1439.05 90.0455Z" fill="#CFEFFF"/>
</svg>
