<svg viewBox="0 0 40 32" fill="none"
  xmlns="http://www.w3.org/2000/svg">
  <path d="M4.08008 12C5.35476 12 6.57724 12.4214 7.47858 13.1715C8.37991 13.9217 8.88628 14.9391 8.88628 16C8.88628 17.0608 8.37991 18.0782 7.47858 18.8284C6.57724 19.5785 5.35476 20 4.08008 20V22.6666C4.08008 23.3739 4.41766 24.0521 5.01855 24.5522C5.61944 25.0523 6.43442 25.3333 7.28421 25.3333H32.9173C33.7671 25.3333 34.5821 25.0523 35.183 24.5522C35.7838 24.0521 36.1214 23.3739 36.1214 22.6666V20C34.8467 20 33.6243 19.5785 32.7229 18.8284C31.8216 18.0782 31.3152 17.0608 31.3152 16C31.3152 14.9391 31.8216 13.9217 32.7229 13.1715C33.6243 12.4214 34.8467 12 36.1214 12V9.33329C36.1214 8.62605 35.7838 7.94777 35.183 7.44767C34.5821 6.94758 33.7671 6.66663 32.9173 6.66663H7.28421C6.43442 6.66663 5.61944 6.94758 5.01855 7.44767C4.41766 7.94777 4.08008 8.62605 4.08008 9.33329V12Z" currentColor="#FF1F70" stroke-width="2" stroke-linecap="round" stroke-linejoin="round" />
  <path d="M15.2947 16L18.4988 18.6667L24.9071 13.3334" currentColor="#FF1F70" stroke-width="2" stroke-linecap="round" stroke-linejoin="round" />
</svg>
