<?xml version="1.0" encoding="UTF-8"?>
<svg xmlns:xodm="http://www.corel.com/coreldraw/odm/2003" fill="white" xmlns="http://www.w3.org/2000/svg" xmlns:xlink="http://www.w3.org/1999/xlink" version="1.1" id="Layer_1" x="0px" y="0px" viewBox="0 0 2500 431" style="enable-background:new 0 0 2500 431;" xml:space="preserve">
<g id="Layer_x0020_1">
	<g id="_1626880615648">
		<path d="M423.8,215.5v-0.4v-0.4C423.4,96.6,328.1,0.2,211.9,0.2C95.1,0.2,0,96.6,0,215.5C0,334,95.1,430.8,211.9,430.8    c53.9,0,104.6-20.4,144-57.7c7.9-7.5,8.4-19.7,0.7-27.5c-7.1-7.9-19.3-8.4-27.1-1.3c0,0,0,0-0.4,0.4    c-31.6,30-74.3,47.2-118.1,47.2c-51.3,0-97.2-22.5-129-58.4l90.6-145.1v67.2c0,32.2,12.5,42.5,23,45.5c10.5,3,26.2,0.7,43.4-26.2    l49.6-80.5c1.7-2.4,3-5.1,4.7-6.7v40.8c0,29.9,12.2,54.3,33,65.9c18.7,10.9,42.5,9.5,62.1-2.4C412.6,276,425.5,248.4,423.8,215.5    L423.8,215.5z M368.8,257.6c-7.5,4.7-16.3,5.4-23,1.7c-8.4-5.1-13.3-16.3-13.3-31.6v-47.2c0-22.5-8.8-38.8-23.8-43.1    c-25.5-7.5-44.7,23.8-51.9,35.6l-44.9,72.1v-88.9c-0.6-20.4-7.1-32.4-19.6-36.1c-8.4-2.4-20.8-1.3-33,17L58.8,298    c-13.5-25.5-20.4-53.7-20.4-82.6c0-97.1,78.1-176.1,173.5-176.1c95.5,0,173.5,79,173.5,176.1v0.4v0.4    C386.2,235.2,380.4,250.1,368.8,257.6L368.8,257.6z"></path>
		<path d="M717.8,142.6c5.1,3,9.5,9.9,9.5,16.3c0,9.9-8.4,18.3-17.9,18.3c-2.4,0-4.7-0.7-6.7-1.3c-11.2-8.4-25.4-13.8-40.4-13.8    c-35.3,0-59.6,28.8-59.6,64.5c0,35.7,24.9,64.3,59.8,64.3c17.6,0,33.3-7.1,45.1-18.3c3-2.1,6.7-3.4,10.5-3.4c9.5,0,17,7.5,17,17    c0,6.2-3.7,11.6-8.4,14.6c-17,14.6-40,24.3-63.8,24.3c-54.2,0-98.3-44.5-98.3-99.6s44.1-99.6,98.3-99.6    C682.9,125.4,702.1,131.8,717.8,142.6L717.8,142.6z"></path>
		<path d="M817.1,184.2c-38.7,0-70.8,31.2-70.8,69.9s32.1,71.2,70.8,71.2c36.6,0,67.9-32.9,67.9-71.2    C885,215.4,854.1,184.2,817.1,184.2L817.1,184.2z M816.7,290.9c-17.6,0-32.2-15.9-32.2-36.3c0-21.3,14.6-34.2,32.2-34.2    c16.3,0,29.9,13.3,29.9,34.2S832.8,290.9,816.7,290.9z"></path>
		<path d="M908.2,303.8v-98.3c0-10.8,8.4-19.6,19.3-19.6c10.5,0,19.3,8.8,19.3,19.6v98.3c0,10.8-8.8,19.6-19.3,19.6    C917,323.4,908.2,314.3,908.2,303.8z"></path>
		<path d="M905.5,148.8c0-12.9,9.9-23,22.1-23c12.5,0,22.4,10.5,22.4,23c0,12.5-9.9,22.4-22.4,22.4    C915,170.8,905.5,160.9,905.5,148.8z"></path>
		<path d="M1019.9,250.4v53.3c0,10.8-8.8,19.6-19.3,19.6c-10.5,0-19.1-8.8-19.1-19.6V200.9c0-8.4,6.7-15,15-15    c8.2,0,14.6,7.1,14.6,15c15.3-14.6,29.2-16.6,42.1-16.6c38.3,0,55.3,28.8,55.3,61.7v58c0,10.8-8.8,19.6-19.3,19.6    s-19.3-8.8-19.3-19.6v-53.5c0-16.6-2.1-30.8-26.2-30.8C1027.1,219.6,1019.9,233.8,1019.9,250.4L1019.9,250.4L1019.9,250.4z"></path>
		<path d="M1232.9,270.9c-4.7,0-7.5-2.1-9.9-5.1l-44.7-48.2v86.2c0,10.8-8.8,19.6-19.3,19.6c-10.5,0-19.3-8.8-19.3-19.6V132.9    c1.3-3,4.1-5,7.1-5c3.4,0,6.2,3,8.4,5l71.4,80c2.1,2.4,4.7,3.7,6.2,3.7c1.3,0,4.1-1.3,6.2-3.7l71.2-80c2.1-2.1,4.7-5,8.4-5    c3.4,0,6.2,2.1,7.1,5v170.9c0,10.8-8.4,19.6-19.3,19.6c-10.5,0-19.3-8.8-19.3-19.6v-86.2l-44.5,48.2    C1239.6,268.8,1236.6,270.9,1232.9,270.9L1232.9,270.9L1232.9,270.9z"></path>
		<path d="M1593.3,219.6h-4.1c-24.1,1.3-28.8,15-28.8,30.8v53.3c0,10.8-8.8,19.6-19.3,19.6c-10.5,0-19.3-8.8-19.3-19.6V200.9    c0-8.4,6.7-15,15-15c8.2,0,14.6,7.1,14.6,15c14.4-13.3,26-16.3,37.8-16.6h3.7c9.2,0,17.6,7.9,17.6,17.9    C1610.7,211.4,1602.5,219.6,1593.3,219.6L1593.3,219.6L1593.3,219.6z"></path>
		<path d="M1741.2,294.6c1.7,3,3,5.8,3,9.2c0,9.9-9.2,19.3-19.3,19.3c-6.7,0-12.5-5.1-17-10.8l-44.1-51.2v42.4    c0,10.8-8.8,19.6-19.3,19.6c-10.5,0-19.3-8.8-19.3-19.6V147.1c0-10.8,8.4-19.6,19.3-19.6s19.3,8.8,19.3,19.6v97.6l44.1-48.8    c4.7-5.1,9.9-10.5,16.6-10.5c9.5,0,18.3,8.8,18.3,18.7c0,3-0.7,6.2-2.4,8.8l-35.1,38.3L1741.2,294.6L1741.2,294.6L1741.2,294.6z"></path>
		<path d="M1972.8,325h-10.5c-29.2,0-46.2-12.9-46.2-58.3v-47.1h-9.9c-9.2,0-17-8.4-17-17.6c0-9.9,8.4-17.9,17-17.9h9.9v-36.3    c0-10.8,8.4-19.6,19.3-19.6c10.3,0.2,19.1,9,19.1,19.8v36.3h15.9c9.2,0,17,7.9,17,17.9c0,9.2-8.4,17.6-17,17.6h-15.9v39.6    c0,26.2,1.3,31.6,12.9,31.6h5.4c9.2,0,17,7.5,17,17C1990,317.2,1981.9,325,1972.8,325L1972.8,325L1972.8,325z"></path>
		<path d="M2158.1,142.6c5,3,9.5,9.9,9.5,16.3c0,9.9-8.4,18.3-17.9,18.3c-2.4,0-4.7-0.7-6.7-1.3c-11.2-8.4-25.4-13.8-40.4-13.8    c-35.3,0-59.6,28.8-59.6,64.5c0,35.7,24.9,64.3,59.8,64.3c17.6,0,33.3-7.1,45.1-18.3c3-2.1,6.7-3.4,10.5-3.4c9.5,0,17,7.5,17,17    c0,6.2-3.7,11.6-8.4,14.6c-17,14.6-40,24.3-63.8,24.3c-54.2,0-98.3-44.5-98.3-99.6s44.1-99.6,98.3-99.6    C2123.2,125.4,2142.8,131.8,2158.1,142.6L2158.1,142.6L2158.1,142.6z"></path>
		<path d="M1472.8,185.4c-8.4,0-14.6,6.7-14.6,15l-0.7,4.7c-16.8-19.6-38.3-21.3-44.7-21.3c-37.6,0-64.5,31.6-64.5,69.9    c0,38.7,26.7,71.2,62.4,71.2c15,0,38.7-6.7,46.2-21.3l0.7,4.7c0,7.9,6.2,15,15,14.6c8.4,0,15-6.7,15-15V200.4    C1487.8,192.5,1481.3,185.4,1472.8,185.4L1472.8,185.4z M1416.9,290.9c-17,0-30.5-16.3-30.5-36.3c0-20.4,13.8-34.6,30.5-34.6    c16.6,0,31.8,13.8,31.8,34.6S1434.1,290.9,1416.9,290.9z"></path>
		<path d="M1881.1,251.3c-0.7-43-28.8-67.1-65.8-67.1c-45.8,0-65.4,33.3-65.4,71.6c0,48.8,32.2,69.5,70.9,69.5    c14.6,0,29.9-2.1,41.7-10.8c4.7-3,8.4-7.9,8.4-13.8c0-8.8-7.1-15.9-15.3-15.9c-3.7,0-7.5,1.3-9.9,3c-7.9,3.7-17.9,5.1-25.1,5.1    c-9.5,0-31.6-3.7-31.6-26.7l77.6,0C1874.4,266.2,1881.1,259.1,1881.1,251.3L1881.1,251.3z M1788.6,241.7c0-16.3,17-21.7,27.5-21.7    c10.1,0,27.5,5.4,28,21.7H1788.6z"></path>
		<path d="M2311.1,185.4c-8.4,0-14.6,6.7-14.6,15l-0.7,4.7c-16.8-19.6-38.3-21.3-44.7-21.3c-37.6,0-64.5,31.6-64.5,69.9    c0,38.7,26.7,71.2,62.4,71.2c15,0,38.7-6.7,46.2-21.3l0.7,4.7c0,7.9,6.2,15,15,14.6c8.4,0,15-6.7,15-15V200.4    C2326,192.5,2319.5,185.4,2311.1,185.4z M2255.2,290.9c-16.6,0-30.5-16.3-30.5-36.3c0-20.4,13.3-34.6,30.5-34.6    c16.6,0,31.6,13.8,31.6,34.6S2272.4,290.9,2255.2,290.9z"></path>
		<path d="M2435.3,184.3c-13.3,0-30.8,3.7-45,18.3c0-9.5-6.2-16.6-14.6-16.6c-8.4,0-15,6.7-15,15v161.7c0,10.8,8.8,19.6,19.3,19.6    c10.5,0,19.3-8.8,19.3-19.6l0-48.8c10.5,7.8,27.1,11.2,38.3,11.6c36.3,0,62.4-32.9,62.4-71.2    C2499.8,215.5,2472.3,184.3,2435.3,184.3L2435.3,184.3z M2430.6,290.8c-17,0-31.6-15.3-31.6-36.3s14.6-34.6,31.6-34.6    c16.6,0,30.5,13.8,30.5,34.6C2461.1,274.6,2447.8,290.8,2430.6,290.8z"></path>
	</g>
</g>
</svg>
